<?xml version="1.0" encoding="UTF-8"?>
<svg version="1.1" xmlns="http://www.w3.org/2000/svg" width="2500" height="1806">
<path d="M0 0 C1.53476295 -0.00211334 3.0695249 -0.00510199 4.60428467 -0.00887535 C8.80759423 -0.01669315 13.01081162 -0.01215835 17.21411985 -0.00553953 C21.8093923 -0.00053374 26.40465085 -0.00720191 30.99992111 -0.0123432 C39.08001921 -0.01978035 47.16009095 -0.01978998 55.24019063 -0.01495371 C67.33651441 -0.00774932 79.43281545 -0.01207703 91.52913862 -0.01863506 C112.14553658 -0.02947086 132.7619254 -0.03079074 153.3783254 -0.02693671 C174.27282026 -0.02306188 195.1673083 -0.02351322 216.0618028 -0.02924651 C217.38122626 -0.02960533 218.70064973 -0.02996416 220.06005572 -0.03033386 C225.43382233 -0.03180437 230.80758893 -0.03330997 236.18135552 -0.03485533 C251.32892941 -0.03920472 266.47650343 -0.04284017 281.62407762 -0.04598767 C282.31818574 -0.04613212 283.01229386 -0.04627657 283.72743556 -0.0464254 C317.9415067 -0.05347559 352.15557721 -0.0528353 386.36964887 -0.0513069 C387.11120992 -0.05127383 387.85277097 -0.05124076 388.61680357 -0.05120668 C391.61903049 -0.05107237 394.62125741 -0.05093722 397.62348433 -0.05080131 C405.91675491 -0.05042614 414.21002549 -0.05006847 422.50329608 -0.04973358 C423.62644757 -0.04968751 423.62644757 -0.04968751 424.77228899 -0.0496405 C458.71430522 -0.04826636 492.65632073 -0.05079691 526.59833676 -0.05425965 C531.13924238 -0.05472288 535.680148 -0.05517474 540.22105362 -0.05562377 C540.97168874 -0.05569805 541.72232386 -0.05577233 542.4957055 -0.05584886 C544.0132135 -0.05599901 545.5307215 -0.05614913 547.04822951 -0.05629922 C550.84799965 -0.05667529 554.6477698 -0.05705276 558.44753994 -0.0574303 C559.20092693 -0.05750511 559.95431391 -0.05757991 560.73053081 -0.05765698 C564.54031069 -0.05803545 568.35009058 -0.05841538 572.15987046 -0.05879792 C607.71492082 -0.06236606 643.26997121 -0.06523041 678.82502168 -0.06739062 C679.59971053 -0.06743786 680.37439937 -0.0674851 681.17256363 -0.06753377 C730.5370719 -0.07052851 779.90157962 -0.0704035 829.26608791 -0.06796985 C831.69340654 -0.06785026 834.12072518 -0.06773188 836.54804381 -0.06761376 C854.41526568 -0.06674233 872.28248754 -0.06581173 890.14970941 -0.06486312 C891.77917415 -0.06477674 893.40863888 -0.06469036 895.03810362 -0.064604 C896.66823425 -0.06451757 898.29836488 -0.06443112 899.92849552 -0.06434468 C900.73564617 -0.06430189 901.54279682 -0.06425909 902.37440658 -0.06421501 C906.4527685 -0.06399862 910.53113041 -0.06378118 914.60949232 -0.06356178 C991.63822827 -0.05942325 1068.66696148 -0.05834525 1145.69569677 -0.07072181 C1146.5066408 -0.07085209 1147.31758482 -0.07098237 1148.15310291 -0.0711166 C1172.67546946 -0.07506849 1197.19783594 -0.07942806 1221.7202024 -0.08388776 C1248.53465074 -0.08876386 1275.34909907 -0.0935978 1302.16354746 -0.09816951 C1302.96408504 -0.09830628 1303.76462263 -0.09844305 1304.58941893 -0.09858396 C1354.73004121 -0.10713937 1404.87066271 -0.11204241 1455.01128572 -0.11287707 C1455.78576467 -0.11289034 1456.56024361 -0.11290361 1457.35819161 -0.11291729 C1491.37234497 -0.11349263 1525.38649828 -0.1132078 1559.40065162 -0.11199857 C1572.32755559 -0.11153937 1585.25445955 -0.11114713 1598.18136352 -0.11078781 C1601.20745986 -0.11070355 1604.23355619 -0.11061428 1607.25965252 -0.11052099 C1641.95653084 -0.10946564 1676.65340715 -0.11054315 1711.35028476 -0.11819595 C1712.09830403 -0.11836059 1712.84632331 -0.11852524 1713.61700984 -0.11869487 C1725.64942907 -0.12135308 1737.68184827 -0.12417221 1749.71426747 -0.12699889 C1783.87901889 -0.13501498 1818.04376736 -0.14136058 1852.20851976 -0.13693005 C1852.90204056 -0.13684065 1853.59556136 -0.13675125 1854.31009794 -0.13665914 C1869.44205084 -0.13467542 1884.57400345 -0.13183986 1899.70595603 -0.12816862 C1905.74138704 -0.12671644 1911.77681808 -0.1253722 1917.81224912 -0.12406081 C1919.12784821 -0.12377052 1920.4434473 -0.12348022 1921.79891302 -0.12318113 C1942.63466602 -0.11885486 1963.47040361 -0.1245881 1984.30615419 -0.134501 C2004.79149323 -0.14403561 2025.27680846 -0.14286662 2045.76214612 -0.13029478 C2057.77310183 -0.12324286 2069.78398913 -0.12437659 2081.79493998 -0.13764316 C2089.77524492 -0.1456363 2097.75549815 -0.14271914 2105.73579836 -0.13099352 C2110.25739741 -0.1246529 2114.77886143 -0.1228699 2119.30045288 -0.13456073 C2176.73696072 -0.27287314 2226.01054634 15.13516498 2267.58442968 56.126849 C2273.16993795 61.73875069 2278.40980008 67.43256196 2282.97139257 73.91249353 C2284.50419164 76.08341369 2286.03617198 77.95816081 2287.83320898 79.94374353 C2297.03957642 91.28204249 2295.00312671 103.59400124 2293.92456335 117.46275216 C2293.66402289 120.94342085 2293.45873361 124.42744222 2293.24556249 127.91127282 C2292.83280999 134.50628245 2292.36667004 141.09636291 2291.87783331 147.68612844 C2291.51121721 152.64155051 2291.16583134 157.5979564 2290.83735937 162.55604821 C2285.64080928 240.81111634 2276.62828952 318.67115625 2140.39692968 864.251849 C2140.05363622 865.17797998 2139.71034277 866.10411096 2139.35664648 867.05830652 C2138.40824543 869.61434724 2137.45789406 872.16964995 2136.50630468 874.72450525 C2136.24802892 875.41894235 2135.98975317 876.11337945 2135.72365087 876.8288601 C2135.1909164 878.25469066 2134.65464906 879.67920548 2134.11512482 881.10248071 C2133.28199319 883.31210947 2132.459944 885.5259202 2131.64294744 887.74156553 C2128.98444775 894.87477439 2126.21741853 901.81380743 2122.74488634 908.5917843 C2110.09898952 933.99618525 2110.42550767 959.15557112 2110.71160163 987.0496164 C2110.78032585 994.04876381 2110.76453754 1001.047192 2110.74725973 1008.04656605 C2110.71756995 1020.95985631 2110.75156858 1033.87220233 2110.82320875 1046.78529626 C2110.89375526 1059.5563852 2110.93327747 1072.32699365 2110.93328184 1085.09828454 C2110.93329322 1085.89720242 2110.9333046 1086.69612029 2110.93331633 1087.5192478 C2110.93319609 1091.57815562 2110.93250331 1095.63706313 2110.93156948 1099.69597083 C2110.92579658 1128.34793979 2110.98227492 1156.99946818 2111.07832617 1185.65126306 C2111.17116292 1213.41362362 2111.24308373 1241.1758795 2111.28145117 1268.93837243 C2111.28264767 1269.79494324 2111.28384417 1270.65151405 2111.28507692 1271.53404155 C2111.3111488 1290.27387195 2111.33209258 1309.01370634 2111.34935416 1327.75354682 C2111.3516558 1330.24849216 2111.35398931 1332.74343746 2111.35633424 1335.23838276 C2111.35710462 1336.05861492 2111.35787501 1336.87884708 2111.35866874 1337.72393476 C2111.36022279 1339.37594245 2111.36178028 1341.02795013 2111.36334123 1342.67995781 C2111.36720143 1346.77722855 2111.37096082 1350.87449933 2111.37451019 1354.97177035 C2111.39136088 1374.18932211 2111.42451242 1393.40670274 2111.48663475 1412.62416404 C2111.525514 1424.66835081 2111.55534925 1436.71253552 2111.57807926 1448.75676364 C2111.59161397 1455.69797899 2111.61043532 1462.63909273 2111.64350599 1469.58024484 C2111.67344873 1475.94284748 2111.68939787 1482.3053313 2111.69467225 1488.66800076 C2111.69909077 1490.96002627 2111.70862973 1493.25204936 2111.72403113 1495.54402739 C2111.83454704 1512.54731516 2110.86523894 1529.11844506 2105.64692968 1545.439349 C2105.39016454 1546.2633822 2105.13339941 1547.0874154 2104.86885351 1547.93641931 C2093.29426499 1584.0143247 2069.98374783 1612.67552637 2038.39692968 1633.251849 C2037.40950781 1633.90282556 2036.42208593 1634.55380212 2035.40474218 1635.22450525 C2009.74599099 1651.1794511 1979.17705949 1656.55244332 1949.42477697 1656.30913049 C1948.186231 1656.30348498 1946.94768504 1656.29783947 1945.67160738 1656.29202288 C1942.97800488 1656.27917206 1940.28449022 1656.26446704 1937.5909242 1656.2465561 C1933.20585736 1656.21755071 1928.82077242 1656.19615278 1924.43565649 1656.17611963 C1922.89523748 1656.16903053 1921.3548185 1656.16193633 1919.81439954 1656.15483719 C1919.03861743 1656.15127283 1918.26283531 1656.14770846 1917.46354465 1656.14403608 C1915.05953082 1656.13273639 1912.65552128 1656.12074215 1910.25151163 1656.10858637 C1898.53925289 1656.05014185 1886.82707239 1656.01598947 1875.11468786 1655.99608117 C1874.26518555 1655.99460685 1873.41568323 1655.99313252 1872.54043842 1655.99161352 C1864.66065412 1655.97811126 1856.78086774 1655.96622215 1848.90107924 1655.95546347 C1843.51061574 1655.94802864 1838.12015419 1655.93972014 1832.72969335 1655.93055993 C1831.83456094 1655.92905039 1830.93942853 1655.92754085 1830.0171709 1655.92598556 C1815.50655356 1655.90000356 1800.99658938 1655.82396332 1786.48626859 1655.73049797 C1771.55821812 1655.63557124 1756.63078801 1655.59791662 1741.70243967 1655.61215895 C1732.51006759 1655.6190729 1723.32013075 1655.58141113 1714.12824624 1655.48555093 C1707.82602081 1655.42403874 1701.52524136 1655.41809429 1695.22283066 1655.45501132 C1691.59213148 1655.47464191 1687.96575795 1655.4705398 1684.33559889 1655.39984971 C1668.57573548 1654.55399216 1668.57573548 1654.55399216 1654.62672514 1660.55418283 C1651.51400455 1663.59816575 1648.94405282 1666.88176234 1646.55552083 1670.51484066 C1645.05901954 1672.75845802 1643.31463568 1674.71522151 1641.48677343 1676.69325525 C1640.71309423 1677.59068444 1640.71309423 1677.59068444 1639.92378515 1678.50624353 C1637.02684779 1681.8182202 1633.98599642 1684.99624142 1630.95942968 1688.189349 C1629.54131988 1689.68921565 1628.12335517 1691.18921949 1626.70552343 1692.689349 C1625.98864355 1693.44731775 1625.27176367 1694.2052865 1624.53316015 1694.986224 C1622.49187803 1697.15114949 1620.46015351 1699.32454721 1618.43208593 1701.501849 C1610.6505701 1709.84293451 1602.73221721 1718.01380605 1594.59858984 1726.01332361 C1591.32442084 1729.2483279 1588.13727794 1732.49355129 1585.14692968 1735.9940365 C1580.57515369 1741.30418464 1575.58821128 1746.20992678 1570.62715429 1751.15199548 C1568.96266691 1752.8111222 1567.30359521 1754.47552951 1565.64497656 1756.14052087 C1560.7088566 1761.07940994 1555.73684267 1765.9062655 1550.42402929 1770.44301111 C1545.88067703 1774.49717188 1541.67087238 1778.91689148 1537.39692968 1783.251849 C1526.18406826 1794.62478526 1526.18406826 1794.62478526 1520.24849218 1799.6190365 C1518.24356841 1801.28174478 1518.24356841 1801.28174478 1516.42878192 1803.814872 C1512.05619405 1807.32952087 1508.49542357 1806.9435941 1503.03573132 1806.87629348 C1501.97446115 1806.8830566 1500.91319099 1806.88981973 1499.81976112 1806.89678779 C1496.23210606 1806.91346879 1492.64552033 1806.89425683 1489.05788797 1806.87546808 C1486.46134673 1806.88007336 1483.86480861 1806.88687141 1481.26827821 1806.89567417 C1475.58885309 1806.91134952 1469.90967192 1806.90832401 1464.23024858 1806.89330125 C1455.72773406 1806.87090639 1447.22540844 1806.87729152 1438.72288171 1806.88938233 C1424.23330058 1806.9091406 1409.74381226 1806.90510071 1395.25423139 1806.88825113 C1380.56428778 1806.87125769 1365.8743996 1806.8651037 1351.18444723 1806.87226754 C1350.25757444 1806.87271245 1349.33070165 1806.87315735 1348.3757418 1806.87361573 C1343.64977656 1806.87593131 1338.92381143 1806.87841799 1334.19784631 1806.88096002 C1299.96099158 1806.8989819 1265.72417637 1806.89232787 1231.48732466 1806.87219507 C1197.56021031 1806.85227668 1163.63311501 1806.84137429 1129.70599455 1806.84305078 C1127.57683323 1806.8431441 1125.44767191 1806.84323671 1123.3185106 1806.84332858 C1114.76249367 1806.84371379 1106.20647675 1806.8441653 1097.65045982 1806.84469997 C1073.72993815 1806.84617244 1049.80941665 1806.84596519 1025.88889498 1806.84450799 C1024.79947395 1806.84444229 1023.71005293 1806.8443766 1022.58761914 1806.84430891 C987.85924818 1806.84210138 953.13088319 1806.83262755 918.40251535 1806.81794244 C916.71230931 1806.81722825 916.71230931 1806.81722825 914.9879577 1806.81649963 C896.68862567 1806.80873693 878.38929384 1806.80052698 860.08996202 1806.79229203 C787.55254846 1806.75967706 715.01516086 1806.74659132 642.47774023 1806.75282556 C640.18626333 1806.75301951 637.89478643 1806.753213 635.60330953 1806.75340604 C632.16939104 1806.7536954 628.73547254 1806.7539848 625.30155405 1806.75427516 C612.7571642 1806.75533408 600.21277435 1806.75634709 587.66838449 1806.75730401 C586.54344059 1806.7573914 585.41849669 1806.75747879 584.25946359 1806.75756883 C523.5065459 1806.76223825 462.75363138 1806.75245956 402.00071561 1806.73746616 C399.85833098 1806.7369404 397.71594635 1806.73641501 395.57356172 1806.73588997 C393.98499982 1806.73550024 393.98499982 1806.73550024 392.36434575 1806.73510263 C390.22775999 1806.73457858 388.09117422 1806.73405495 385.95458845 1806.73353176 C380.63172508 1806.73222706 375.30886172 1806.73090945 369.98599836 1806.72956657 C346.65764733 1806.72372393 323.32929806 1806.7197121 300.00094622 1806.72068864 C298.4246689 1806.72075316 298.4246689 1806.72075316 296.81654758 1806.72081897 C291.52571181 1806.72104449 286.23487604 1806.72129856 280.94404027 1806.72156058 C242.68261713 1806.72342499 204.42121741 1806.71535677 166.15980197 1806.68991911 C162.3876114 1806.68745165 158.61542081 1806.68502828 154.84323019 1806.68263894 C153.4546026 1806.68175203 153.4546026 1806.68175203 152.03792194 1806.68084721 C137.39654548 1806.6717569 122.75518756 1806.67263953 108.11380987 1806.67767961 C93.70633545 1806.68242069 79.2988985 1806.67637706 64.89143347 1806.65896527 C56.45192881 1806.64907839 48.01251799 1806.64725303 39.57301334 1806.65760288 C33.95637076 1806.66366208 28.33980491 1806.65871301 22.7231758 1806.64510047 C19.54668014 1806.63769971 16.3704075 1806.63637922 13.19391045 1806.64531471 C-5.75755393 1806.69449346 -24.59313007 1805.68468678 -42.97807032 1800.689349 C-43.90885401 1800.44031823 -44.8396377 1800.19128747 -45.79862696 1799.93471032 C-68.76014225 1793.47145479 -89.68167738 1782.63802057 -108.60307032 1768.251849 C-109.50025782 1767.58024743 -110.39744532 1766.90864587 -111.32182032 1766.21669275 C-124.74882581 1755.72178936 -136.80977177 1743.18388066 -146.60307032 1729.251849 C-147.40364284 1728.16575761 -148.20442888 1727.07982358 -149.00541407 1725.9940365 C-168.59099045 1698.75129187 -180.80700678 1663.46310445 -180.73072082 1629.82238054 C-180.7323716 1628.79023594 -180.73402238 1627.75809133 -180.73572318 1626.69466962 C-180.7400483 1623.22473851 -180.73724679 1619.75484985 -180.73449808 1616.28491765 C-180.73614771 1613.76583693 -180.73823397 1611.24675646 -180.74071819 1608.72767642 C-180.74512687 1603.2275517 -180.74641735 1597.72743967 -180.74498984 1592.2273136 C-180.74286849 1583.99324851 -180.74648237 1575.75919273 -180.75120462 1567.52512907 C-180.75907864 1553.49181232 -180.76216669 1539.4584981 -180.76265055 1525.4251793 C-180.7631528 1511.20092915 -180.76579836 1496.97668186 -180.77105814 1482.75243264 C-180.77138828 1481.8544495 -180.77171841 1480.95646635 -180.77205855 1480.03127159 C-180.77340853 1476.3739827 -180.7747712 1472.71669381 -180.77615065 1469.05940493 C-180.7924571 1425.7497915 -180.79883979 1382.44017861 -180.80359852 1339.13056263 C-180.80598138 1317.56584059 -180.80968479 1296.00111885 -180.81363562 1274.43639704 C-180.82630053 1205.26927715 -180.83708432 1136.10215727 -180.84047608 1066.93503624 C-180.84063832 1063.62888915 -180.84080388 1060.32274205 -180.84097046 1057.01659496 C-180.84130426 1050.38602516 -180.84163474 1043.75545536 -180.84196502 1037.12488556 C-180.84235192 1029.3620403 -180.84274153 1021.59919505 -180.84313608 1013.83634979 C-180.8432485 1011.61455738 -180.84335992 1009.39276496 -180.84347034 1007.17097254 C-180.84701974 935.81529636 -180.86209779 864.45963024 -180.88540808 793.1039579 C-180.90215015 741.83364876 -180.91762496 690.56334151 -180.92214304 639.29302961 C-180.92228327 637.71135758 -180.92228327 637.71135758 -180.92242633 636.09773259 C-180.92444541 612.94960423 -180.92560143 589.80147591 -180.92595492 566.65334747 C-180.92609109 558.37035184 -180.92630009 550.08735622 -180.92654817 541.80436061 C-180.92660973 539.74374945 -180.92666805 537.68313829 -180.92672312 535.62252713 C-180.92764285 502.79078131 -180.93761001 469.959046 -180.95218061 437.12730363 C-180.96679896 404.05558685 -180.97183697 370.98388296 -180.96376106 337.91216352 C-180.96264571 333.34033471 -180.96163505 328.76850588 -180.96068674 324.19667703 C-180.96049678 323.3004877 -180.96030681 322.40429837 -180.96011108 321.48095178 C-180.95737931 307.300726 -180.96471338 293.12052409 -180.97626011 278.94030349 C-180.98740914 264.99059903 -180.98782391 251.04092826 -180.97688993 237.09122327 C-180.97080303 228.9173819 -180.97286275 220.74364233 -180.9871419 212.5698106 C-180.99683448 206.49323095 -180.99078396 200.41677211 -180.97873157 194.34019231 C-180.97630294 191.90327172 -180.97886255 189.4663395 -180.98712805 187.02943171 C-181.04292819 169.41504269 -179.96554316 152.51907909 -174.79057032 135.564349 C-174.39938013 134.25240564 -174.39938013 134.25240564 -174.00028712 132.91395837 C-173.22307239 130.35240083 -172.42066068 127.80077693 -171.60307032 125.251849 C-171.26517481 124.19103112 -171.26517481 124.19103112 -170.92045313 123.10878259 C-156.057802 77.57663986 -120.87365989 40.58876724 -78.85111719 18.79945642 C-54.24582871 6.40092826 -27.56440891 -0.09580138 0 0 Z " fill="#ADADA3" transform="translate(180.60307031869888,-0.2518489956855774)"/>
<path d="M0 0 C1.53476295 -0.00211334 3.0695249 -0.00510199 4.60428467 -0.00887535 C8.80759423 -0.01669315 13.01081162 -0.01215835 17.21411985 -0.00553953 C21.8093923 -0.00053374 26.40465085 -0.00720191 30.99992111 -0.0123432 C39.08001921 -0.01978035 47.16009095 -0.01978998 55.24019063 -0.01495371 C67.33651441 -0.00774932 79.43281545 -0.01207703 91.52913862 -0.01863506 C112.14553658 -0.02947086 132.7619254 -0.03079074 153.3783254 -0.02693671 C174.27282026 -0.02306188 195.1673083 -0.02351322 216.0618028 -0.02924651 C217.38122626 -0.02960533 218.70064973 -0.02996416 220.06005572 -0.03033386 C225.43382233 -0.03180437 230.80758893 -0.03330997 236.18135552 -0.03485533 C251.32892941 -0.03920472 266.47650343 -0.04284017 281.62407762 -0.04598767 C282.31818574 -0.04613212 283.01229386 -0.04627657 283.72743556 -0.0464254 C317.9415067 -0.05347559 352.15557721 -0.0528353 386.36964887 -0.0513069 C387.11120992 -0.05127383 387.85277097 -0.05124076 388.61680357 -0.05120668 C391.61903049 -0.05107237 394.62125741 -0.05093722 397.62348433 -0.05080131 C405.91675491 -0.05042614 414.21002549 -0.05006847 422.50329608 -0.04973358 C423.62644757 -0.04968751 423.62644757 -0.04968751 424.77228899 -0.0496405 C458.71430522 -0.04826636 492.65632073 -0.05079691 526.59833676 -0.05425965 C531.13924238 -0.05472288 535.680148 -0.05517474 540.22105362 -0.05562377 C540.97168874 -0.05569805 541.72232386 -0.05577233 542.4957055 -0.05584886 C544.0132135 -0.05599901 545.5307215 -0.05614913 547.04822951 -0.05629922 C550.84799965 -0.05667529 554.6477698 -0.05705276 558.44753994 -0.0574303 C559.20092693 -0.05750511 559.95431391 -0.05757991 560.73053081 -0.05765698 C564.54031069 -0.05803545 568.35009058 -0.05841538 572.15987046 -0.05879792 C607.71492082 -0.06236606 643.26997121 -0.06523041 678.82502168 -0.06739062 C679.59971053 -0.06743786 680.37439937 -0.0674851 681.17256363 -0.06753377 C730.5370719 -0.07052851 779.90157962 -0.0704035 829.26608791 -0.06796985 C831.69340654 -0.06785026 834.12072518 -0.06773188 836.54804381 -0.06761376 C854.41526568 -0.06674233 872.28248754 -0.06581173 890.14970941 -0.06486312 C891.77917415 -0.06477674 893.40863888 -0.06469036 895.03810362 -0.064604 C896.66823425 -0.06451757 898.29836488 -0.06443112 899.92849552 -0.06434468 C900.73564617 -0.06430189 901.54279682 -0.06425909 902.37440658 -0.06421501 C906.4527685 -0.06399862 910.53113041 -0.06378118 914.60949232 -0.06356178 C991.63822827 -0.05942325 1068.66696148 -0.05834525 1145.69569677 -0.07072181 C1146.5066408 -0.07085209 1147.31758482 -0.07098237 1148.15310291 -0.0711166 C1172.67546946 -0.07506849 1197.19783594 -0.07942806 1221.7202024 -0.08388776 C1248.53465074 -0.08876386 1275.34909907 -0.0935978 1302.16354746 -0.09816951 C1302.96408504 -0.09830628 1303.76462263 -0.09844305 1304.58941893 -0.09858396 C1354.73004121 -0.10713937 1404.87066271 -0.11204241 1455.01128572 -0.11287707 C1455.78576467 -0.11289034 1456.56024361 -0.11290361 1457.35819161 -0.11291729 C1491.37234497 -0.11349263 1525.38649828 -0.1132078 1559.40065162 -0.11199857 C1572.32755559 -0.11153937 1585.25445955 -0.11114713 1598.18136352 -0.11078781 C1601.20745986 -0.11070355 1604.23355619 -0.11061428 1607.25965252 -0.11052099 C1641.95653084 -0.10946564 1676.65340715 -0.11054315 1711.35028476 -0.11819595 C1712.09830403 -0.11836059 1712.84632331 -0.11852524 1713.61700984 -0.11869487 C1725.64942907 -0.12135308 1737.68184827 -0.12417221 1749.71426747 -0.12699889 C1783.87901889 -0.13501498 1818.04376736 -0.14136058 1852.20851976 -0.13693005 C1852.90204056 -0.13684065 1853.59556136 -0.13675125 1854.31009794 -0.13665914 C1869.44205084 -0.13467542 1884.57400345 -0.13183986 1899.70595603 -0.12816862 C1905.74138704 -0.12671644 1911.77681808 -0.1253722 1917.81224912 -0.12406081 C1919.12784821 -0.12377052 1920.4434473 -0.12348022 1921.79891302 -0.12318113 C1942.63466602 -0.11885486 1963.47040361 -0.1245881 1984.30615419 -0.134501 C2004.79149323 -0.14403561 2025.27680846 -0.14286662 2045.76214612 -0.13029478 C2057.77310183 -0.12324286 2069.78398913 -0.12437659 2081.79493998 -0.13764316 C2089.77524492 -0.1456363 2097.75549815 -0.14271914 2105.73579836 -0.13099352 C2110.25739741 -0.1246529 2114.77886143 -0.1228699 2119.30045288 -0.13456073 C2176.73696072 -0.27287314 2226.01054634 15.13516498 2267.58442968 56.126849 C2273.16993795 61.73875069 2278.40980008 67.43256196 2282.97139257 73.91249353 C2284.50419164 76.08341369 2286.03617198 77.95816081 2287.83320898 79.94374353 C2297.03957642 91.28204249 2295.00312671 103.59400124 2293.92456335 117.46275216 C2293.66402289 120.94342085 2293.45873361 124.42744222 2293.24556249 127.91127282 C2292.83280999 134.50628245 2292.36667004 141.09636291 2291.87783331 147.68612844 C2291.51121721 152.64155051 2291.16583134 157.5979564 2290.83735937 162.55604821 C2285.64080928 240.81111634 2276.62828952 318.67115625 2140.39692968 864.251849 C2140.05363622 865.17797998 2139.71034277 866.10411096 2139.35664648 867.05830652 C2130.74296607 890.27308248 2121.68841222 913.30056404 2112.39692968 936.251849 C2112.06692968 936.251849 2111.73692968 936.251849 2111.39692968 936.251849 C2111.39668548 935.694784 2111.39644128 935.137719 2111.39618967 934.56377324 C2111.36944519 873.87755581 2111.33773615 813.19134193 2111.2802915 752.50514489 C2111.27943399 751.59776781 2111.27857648 750.69039073 2111.27769298 749.75551737 C2111.25902473 730.03290076 2111.23947194 710.31028512 2111.21900873 690.5876703 C2111.20897808 680.91485763 2111.19914277 671.24204478 2111.18941015 661.56923181 C2111.18843834 660.60670165 2111.18746654 659.64417148 2111.18646528 658.65247374 C2111.155092 627.48806104 2111.13660241 596.32365698 2111.12483722 565.15923122 C2111.11267248 533.11756342 2111.08742366 501.07593168 2111.04585354 469.03428791 C2111.03997997 464.50235185 2111.03425504 459.97041561 2111.02862066 455.43847924 C2111.02695047 454.10063366 2111.02695047 454.10063366 2111.02524654 452.73576089 C2111.00774801 438.41362564 2111.00392764 424.09151828 2111.00530047 409.76937378 C2111.00638792 395.34961556 2110.99287925 380.92992826 2110.9647654 366.51019692 C2110.94852476 357.95687726 2110.94318136 349.40371847 2110.95395793 340.85038929 C2110.96007121 335.11833058 2110.95144525 329.38640952 2110.93143739 323.65438296 C2110.9204823 320.40008509 2110.9176244 317.14616987 2110.92841724 313.89186227 C2111.05729839 271.35327148 2099.72372556 231.91932695 2070.39692968 200.251849 C2069.89822363 199.70931482 2069.39951757 199.16678064 2068.88569921 198.60780603 C2043.9978502 171.83510887 2008.79407665 155.0705546 1972.4823789 151.47011071 C1970.66593325 151.28000273 1968.85789262 151.01272291 1967.05317968 150.73231775 C1955.9704216 149.70359639 1949.86922311 154.96098749 1941.6308164 161.50233728 C1937.91146854 164.41521671 1934.05341461 167.13202139 1930.20942968 169.876849 C1928.6943547 170.97216364 1927.18001812 172.06850045 1925.66646093 173.1659115 C1921.92077604 175.87654964 1918.16258997 178.56905567 1914.39692968 181.251849 C1909.047878 185.06356558 1903.71929108 188.90296013 1898.39692968 192.751849 C1892.51785677 197.00332622 1886.6274523 201.23787084 1880.71846288 205.44764978 C1875.99126471 208.81891159 1871.28735274 212.22183656 1866.58442968 215.626849 C1860.71561565 219.87427881 1854.82268561 224.08424652 1848.89692968 228.251849 C1840.77500272 233.96543168 1832.72199203 239.77132514 1824.68062109 245.59755212 C1820.83813857 248.38103101 1816.99282998 251.16059499 1813.14692968 253.939349 C1812.39419775 254.4832528 1811.64146581 255.02715661 1810.86592382 255.58754236 C1805.8284956 259.22485942 1800.77785914 262.84307806 1795.71748632 266.4483822 C1790.99057226 269.81934179 1786.28702305 273.22207526 1781.58442968 276.626849 C1775.71561565 280.87427881 1769.82268561 285.08424652 1763.89692968 289.251849 C1755.00621668 295.5062544 1746.19860105 301.87300329 1737.39692968 308.251849 C1727.89926167 315.13510517 1718.38260935 321.98568982 1708.78901953 328.73475915 C1701.3734591 333.95869701 1694.02599786 339.27559488 1686.68062109 344.59755212 C1682.83813857 347.38103101 1678.99282998 350.16059499 1675.14692968 352.939349 C1674.39419775 353.4832528 1673.64146581 354.02715661 1672.86592382 354.58754236 C1667.8284956 358.22485942 1662.77785914 361.84307806 1657.71748632 365.4483822 C1652.99057226 368.81934179 1648.28702305 372.22207526 1643.58442968 375.626849 C1637.71561565 379.87427881 1631.82268561 384.08424652 1625.89692968 388.251849 C1617.00621668 394.5062544 1608.19860105 400.87300329 1599.39692968 407.251849 C1589.89926167 414.13510517 1580.38260935 420.98568982 1570.78901953 427.73475915 C1563.3734591 432.95869701 1556.02599786 438.27559488 1548.68062109 443.59755212 C1544.83813857 446.38103101 1540.99282998 449.16059499 1537.14692968 451.939349 C1536.39419775 452.4832528 1535.64146581 453.02715661 1534.86592382 453.58754236 C1529.8284956 457.22485942 1524.77785914 460.84307806 1519.71748632 464.4483822 C1514.99057226 467.81934179 1510.28702305 471.22207526 1505.58442968 474.626849 C1499.71561565 478.87427881 1493.82268561 483.08424652 1487.89692968 487.251849 C1479.00621668 493.5062544 1470.19860105 499.87300329 1461.39692968 506.251849 C1451.89926167 513.13510517 1442.38260935 519.98568982 1432.78901953 526.73475915 C1425.3734591 531.95869701 1418.02599786 537.27559488 1410.68062109 542.59755212 C1406.83813857 545.38103101 1402.99282998 548.16059499 1399.14692968 550.939349 C1398.39419775 551.4832528 1397.64146581 552.02715661 1396.86592382 552.58754236 C1391.8284956 556.22485942 1386.77785914 559.84307806 1381.71748632 563.4483822 C1376.99057226 566.81934179 1372.28702305 570.22207526 1367.58442968 573.626849 C1361.71561565 577.87427881 1355.82268561 582.08424652 1349.89692968 586.251849 C1341.00621668 592.5062544 1332.19860105 598.87300329 1323.39692968 605.251849 C1313.89926167 612.13510517 1304.38260935 618.98568982 1294.78901953 625.73475915 C1287.3734591 630.95869701 1280.02599786 636.27559488 1272.68062109 641.59755212 C1268.83813857 644.38103101 1264.99282998 647.16059499 1261.14692968 649.939349 C1260.39419775 650.4832528 1259.64146581 651.02715661 1258.86592382 651.58754236 C1253.8284956 655.22485942 1248.77785914 658.84307806 1243.71748632 662.4483822 C1238.99057226 665.81934179 1234.28702305 669.22207526 1229.58442968 672.626849 C1223.71561565 676.87427881 1217.82268561 681.08424652 1211.89692968 685.251849 C1203.00621668 691.5062544 1194.19860105 697.87300329 1185.39692968 704.251849 C1175.89926167 711.13510517 1166.38260935 717.98568982 1156.78901953 724.73475915 C1149.3734591 729.95869701 1142.02599786 735.27559488 1134.68062109 740.59755212 C1130.83813857 743.38103101 1126.99282998 746.16059499 1123.14692968 748.939349 C1122.39419775 749.4832528 1121.64146581 750.02715661 1120.86592382 750.58754236 C1115.83277278 754.22177105 1110.78587738 757.83613756 1105.73066992 761.43959314 C1101.66778707 764.33814529 1097.61566428 767.25133674 1093.5695371 770.17323571 C1092.0098248 771.29909404 1090.44881086 772.42315158 1088.88643163 773.54530603 C1085.54708071 775.9483129 1082.22625116 778.36095722 1078.98286718 780.892474 C1078.02638281 781.62981775 1077.06989843 782.3671615 1076.08442968 783.126849 C1075.28392187 783.76364587 1074.48341406 784.40044275 1073.65864843 785.0565365 C1071.39692968 786.251849 1071.39692968 786.251849 1069.11958593 786.31044275 C1064.97074961 784.69733709 1061.68681158 782.10413563 1058.14692968 779.439349 C1056.5278034 778.24443644 1054.90799593 777.05044645 1053.28755468 775.85731775 C1052.06068945 774.94925378 1052.06068945 774.94925378 1050.80903906 774.02284509 C1047.20866297 771.37941107 1043.55512538 768.81434701 1039.89692968 766.251849 C1030.24036853 759.46167689 1020.68483404 752.53362054 1011.12642187 745.60634118 C1003.08064195 739.77722039 995.02307996 733.96857784 986.89692968 728.251849 C978.77508408 722.53814848 970.721994 716.73237427 962.68062109 710.90614587 C958.83813857 708.12266698 954.99282998 705.343103 951.14692968 702.564349 C950.39419775 702.02044519 949.64146581 701.47654138 948.86592382 700.91615564 C943.8284956 697.27883857 938.77785914 693.66061993 933.71748632 690.05531579 C928.99057226 686.6843562 924.28702305 683.28162273 919.58442968 679.876849 C913.71561565 675.62941918 907.82268561 671.41945147 901.89692968 667.251849 C892.24175224 660.45966102 882.68487191 653.53364799 873.12642187 646.60634118 C865.08064195 640.77722039 857.02307996 634.96857784 848.89692968 629.251849 C840.77508408 623.53814848 832.721994 617.73237427 824.68062109 611.90614587 C811.2628928 602.18639744 797.83327099 592.48450041 784.28608984 582.94569665 C775.36851198 576.66614228 766.51270894 570.30527219 757.68062109 563.90614587 C753.83813857 561.12266698 749.99282998 558.343103 746.14692968 555.564349 C745.01783178 554.74849328 745.01783178 554.74849328 743.86592382 553.91615564 C738.8284956 550.27883857 733.77785914 546.66061993 728.71748632 543.05531579 C723.99057226 539.6843562 719.28702305 536.28162273 714.58442968 532.876849 C708.71561565 528.62941918 702.82268561 524.41945147 696.89692968 520.251849 C687.24175224 513.45966102 677.68487191 506.53364799 668.12642187 499.60634118 C660.08064195 493.77722039 652.02307996 487.96857784 643.89692968 482.251849 C635.77508408 476.53814848 627.721994 470.73237427 619.68062109 464.90614587 C615.83813857 462.12266698 611.99282998 459.343103 608.14692968 456.564349 C607.39419775 456.02044519 606.64146581 455.47654138 605.86592382 454.91615564 C600.8284956 451.27883857 595.77785914 447.66061993 590.71748632 444.05531579 C585.99057226 440.6843562 581.28702305 437.28162273 576.58442968 433.876849 C570.71561565 429.62941918 564.82268561 425.41945147 558.89692968 421.251849 C549.24175224 414.45966102 539.68487191 407.53364799 530.12642187 400.60634118 C522.08064195 394.77722039 514.02307996 388.96857784 505.89692968 383.251849 C497.77508408 377.53814848 489.721994 371.73237427 481.68062109 365.90614587 C477.83813857 363.12266698 473.99282998 360.343103 470.14692968 357.564349 C469.39419775 357.02044519 468.64146581 356.47654138 467.86592382 355.91615564 C462.8284956 352.27883857 457.77785914 348.66061993 452.71748632 345.05531579 C447.99057226 341.6843562 443.28702305 338.28162273 438.58442968 334.876849 C432.71561565 330.62941918 426.82268561 326.41945147 420.89692968 322.251849 C411.24175224 315.45966102 401.68487191 308.53364799 392.12642187 301.60634118 C384.08064195 295.77722039 376.02307996 289.96857784 367.89692968 284.251849 C359.77508408 278.53814848 351.721994 272.73237427 343.68062109 266.90614587 C339.83813857 264.12266698 335.99282998 261.343103 332.14692968 258.564349 C331.39419775 258.02044519 330.64146581 257.47654138 329.86592382 256.91615564 C324.8284956 253.27883857 319.77785914 249.66061993 314.71748632 246.05531579 C309.99057226 242.6843562 305.28702305 239.28162273 300.58442968 235.876849 C294.71561565 231.62941918 288.82268561 227.41945147 282.89692968 223.251849 C273.24175224 216.45966102 263.68487191 209.53364799 254.12642187 202.60634118 C246.08064195 196.77722039 238.02307996 190.96857784 229.89692968 185.251849 C221.79138419 179.54961558 213.75422012 173.75580338 205.72896093 167.94130212 C201.64097946 164.979741 197.55040846 162.02176766 193.45942968 159.064349 C192.69574072 158.51142175 191.93205175 157.9584945 191.1452207 157.38881189 C190.08065649 156.61912072 190.08065649 156.61912072 188.99458593 155.83388025 C188.05884741 155.15675988 188.05884741 155.15675988 187.10420507 154.46596032 C178.42547323 148.29416947 166.14130502 151.26376071 156.0695371 152.84364587 C140.54955 155.48035911 126.52219243 160.35054245 112.39692968 167.251849 C111.23290624 167.8190365 110.06888281 168.386224 108.86958593 168.970599 C101.55109764 172.73185843 94.98423806 177.22854009 88.39302343 182.11513025 C86.07884428 183.7655292 83.98123352 185.10818397 81.39692968 186.251849 C81.39692968 186.911849 81.39692968 187.571849 81.39692968 188.251849 C79.96333593 189.66200525 79.96333593 189.66200525 77.95942968 191.314349 C48.82024801 216.37812064 32.48630589 252.38357561 28.39692968 290.251849 C27.91303423 297.38674234 27.99219117 304.53624537 28.01940626 311.68358117 C28.01626974 313.79083278 28.01182074 315.89808276 28.00619316 318.00532919 C27.99457433 323.76778725 28.00146734 329.53009333 28.01152702 335.29254875 C28.01916538 341.57241409 28.0093462 347.85225688 28.00179702 354.132119 C27.99097857 365.12919683 27.99117878 376.12622265 27.9989385 387.12330133 C28.00720882 398.91603914 28.00892003 410.70875103 28.0027265 422.50149041 C28.00233898 423.24791391 28.00195146 423.9943374 28.0015522 424.76337979 C27.99995228 427.80373101 27.99830615 430.8440822 27.99660137 433.88443337 C27.98075448 462.16635437 27.97964792 490.448258 27.98804373 518.73018152 C27.98829211 519.56729646 27.9885405 520.4044114 27.98879641 521.26689347 C27.9890452 522.10535598 27.98929399 522.94381849 27.98955032 523.80768895 C27.99712465 549.36840309 27.99907182 574.92911005 27.99548239 600.48982507 C27.99524995 602.20255005 27.99501848 603.91527503 27.99478798 605.62800001 C27.99385655 612.51100886 27.99290054 619.39401771 27.99190868 626.27702656 C27.98915788 645.51699619 27.98744592 664.75696585 27.98655027 683.99693567 C27.98650933 684.87302403 27.9864684 685.7491124 27.98642622 686.6517489 C27.98519868 714.56102204 27.98857754 742.4702927 27.99509901 770.37956506 C27.99530976 771.2845636 27.9955205 772.18956214 27.99573764 773.12198487 C27.99917234 787.8178846 28.00283079 802.51378427 28.00650816 817.20968394 C28.02107678 875.49262609 28.02040058 933.77554756 28.0058164 992.05848962 C28.00215273 1006.74703737 27.99851953 1021.43558512 27.99509901 1036.12413293 C27.99478199 1037.4808376 27.99478199 1037.4808376 27.99445857 1038.86495045 C27.98798848 1066.74555474 27.98524748 1094.62615731 27.98655027 1122.50676233 C27.9866114 1123.81992566 27.9866114 1123.81992566 27.98667377 1125.15961755 C27.98761127 1144.37833555 27.98951231 1163.59705338 27.99228178 1182.8157712 C27.99326917 1189.69256744 27.99420842 1196.56936368 27.99513391 1203.44615992 C27.99536608 1205.15687349 27.99560227 1206.86758706 27.9958425 1208.57830064 C27.99942096 1234.1311383 27.99637845 1259.68396787 27.98879641 1285.23680452 C27.98842383 1286.49247694 27.98842383 1286.49247694 27.98804373 1287.77351648 C27.98779568 1288.60908209 27.98754763 1289.44464771 27.98729207 1290.30553349 C27.97901167 1318.50710945 27.98207288 1346.70866462 27.99788596 1374.91023761 C27.99954296 1377.94089424 28.00115308 1380.9715509 28.0027265 1384.00220758 C28.00311712 1384.74596476 28.00350774 1385.48972194 28.00391019 1386.25601721 C28.00981873 1398.01507285 28.00571686 1409.77410254 27.99741948 1421.53315584 C27.9894679 1433.1061148 27.99254959 1444.67901635 28.00646174 1456.2519725 C28.01359562 1462.43813202 28.01604314 1468.62419358 28.00524379 1474.81035 C27.99550662 1480.44558943 27.99973642 1486.0806446 28.01478577 1491.71587077 C28.01779029 1493.73443422 28.01585405 1495.75301316 28.00816796 1497.77156422 C27.95093997 1513.95845821 29.18722275 1529.92725562 34.14692968 1545.439349 C34.40369482 1546.2633822 34.66045995 1547.0874154 34.92500585 1547.93641931 C41.25288312 1567.66036517 50.941673 1585.50863491 64.39692968 1601.251849 C65.06595312 1602.04051355 65.06595312 1602.04051355 65.74849218 1602.84511071 C93.13015961 1634.8003973 132.01981673 1651.80777976 173.51193516 1655.07042916 C182.99844503 1655.66697832 192.51785914 1655.52915241 202.01844686 1655.51356202 C204.57090771 1655.51675518 207.12336759 1655.52082048 209.67582583 1655.5256713 C215.21176006 1655.53479681 220.74765835 1655.53664308 226.28359869 1655.53357019 C234.57080501 1655.52901031 242.85797475 1655.53607452 251.14517576 1655.54530188 C265.273043 1655.5607015 279.40090018 1655.56674749 293.52877516 1655.56763536 C307.83666316 1655.56857318 322.14453976 1655.57387619 336.45242399 1655.5844658 C337.3575401 1655.58513313 338.26265621 1655.58580045 339.19520008 1655.586488 C343.81073292 1655.58991095 348.42626571 1655.59340455 353.04179848 1655.5969231 C386.41355826 1655.62221896 419.785317 1655.63791998 453.15708441 1655.64850503 C486.19818997 1655.65901343 519.23928953 1655.6736452 552.28039068 1655.69378549 C553.82050725 1655.69472146 553.82050725 1655.69472146 555.39173729 1655.69567635 C564.7696891 1655.70137779 574.14764087 1655.70712993 583.5255926 1655.71294288 C606.83644024 1655.72739154 630.14728823 1655.74120462 653.4581365 1655.75458604 C654.51957276 1655.75519586 655.58100902 1655.75580568 656.67461001 1655.75643398 C708.28696305 1655.78603099 759.8993189 1655.80830444 811.51167578 1655.829974 C829.41867857 1655.83749636 847.32568135 1655.84505114 865.23268408 1655.85274011 C866.34330272 1655.85321696 867.45392136 1655.85369381 868.59819511 1655.8541851 C920.24386006 1655.87640381 971.88952187 1655.90383059 1023.53518355 1655.93259783 C1026.88873267 1655.9344657 1030.24228178 1655.93633133 1033.5958309 1655.9381965 C1055.82028063 1655.95056084 1078.04473032 1655.96301488 1100.26917997 1655.97552898 C1144.48898899 1656.00042739 1188.7087983 1656.02479882 1232.92860782 1656.04880811 C1235.03439279 1656.04995146 1237.14017776 1656.05109518 1239.24596273 1656.05223926 C1334.02382181 1656.10372958 1428.80168346 1656.14908997 1523.57954687 1656.1917904 C1524.91052831 1656.19239011 1524.91052831 1656.19239011 1526.26839827 1656.19300193 C1570.64457525 1656.21299203 1615.02075237 1656.23263212 1659.39692968 1656.251849 C1658.44208572 1657.53950843 1657.48523851 1658.82568256 1656.52754492 1660.111224 C1655.99491537 1660.82762048 1655.46228582 1661.54401696 1654.91351599 1662.28212243 C1653.24047166 1664.45505505 1651.44981721 1666.36666166 1649.45942968 1668.251849 C1646.18003521 1671.37110319 1643.23675537 1674.7051679 1640.27315038 1678.11952478 C1637.25106371 1681.5541253 1634.10627153 1684.86934802 1630.95942968 1688.189349 C1629.54131988 1689.68921565 1628.12335517 1691.18921949 1626.70552343 1692.689349 C1625.98864355 1693.44731775 1625.27176367 1694.2052865 1624.53316015 1694.986224 C1622.49187803 1697.15114949 1620.46015351 1699.32454721 1618.43208593 1701.501849 C1610.6505701 1709.84293451 1602.73221721 1718.01380605 1594.59858984 1726.01332361 C1591.32442084 1729.2483279 1588.13727794 1732.49355129 1585.14692968 1735.9940365 C1580.57515369 1741.30418464 1575.58821128 1746.20992678 1570.62715429 1751.15199548 C1568.96266691 1752.8111222 1567.30359521 1754.47552951 1565.64497656 1756.14052087 C1560.7088566 1761.07940994 1555.73684267 1765.9062655 1550.42402929 1770.44301111 C1545.88067703 1774.49717188 1541.67087238 1778.91689148 1537.39692968 1783.251849 C1526.18406826 1794.62478526 1526.18406826 1794.62478526 1520.24849218 1799.6190365 C1518.24356841 1801.28174478 1518.24356841 1801.28174478 1516.42878192 1803.814872 C1512.05619405 1807.32952087 1508.49542357 1806.9435941 1503.03573132 1806.87629348 C1501.97446115 1806.8830566 1500.91319099 1806.88981973 1499.81976112 1806.89678779 C1496.23210606 1806.91346879 1492.64552033 1806.89425683 1489.05788797 1806.87546808 C1486.46134673 1806.88007336 1483.86480861 1806.88687141 1481.26827821 1806.89567417 C1475.58885309 1806.91134952 1469.90967192 1806.90832401 1464.23024858 1806.89330125 C1455.72773406 1806.87090639 1447.22540844 1806.87729152 1438.72288171 1806.88938233 C1424.23330058 1806.9091406 1409.74381226 1806.90510071 1395.25423139 1806.88825113 C1380.56428778 1806.87125769 1365.8743996 1806.8651037 1351.18444723 1806.87226754 C1350.25757444 1806.87271245 1349.33070165 1806.87315735 1348.3757418 1806.87361573 C1343.64977656 1806.87593131 1338.92381143 1806.87841799 1334.19784631 1806.88096002 C1299.96099158 1806.8989819 1265.72417637 1806.89232787 1231.48732466 1806.87219507 C1197.56021031 1806.85227668 1163.63311501 1806.84137429 1129.70599455 1806.84305078 C1127.57683323 1806.8431441 1125.44767191 1806.84323671 1123.3185106 1806.84332858 C1114.76249367 1806.84371379 1106.20647675 1806.8441653 1097.65045982 1806.84469997 C1073.72993815 1806.84617244 1049.80941665 1806.84596519 1025.88889498 1806.84450799 C1024.79947395 1806.84444229 1023.71005293 1806.8443766 1022.58761914 1806.84430891 C987.85924818 1806.84210138 953.13088319 1806.83262755 918.40251535 1806.81794244 C916.71230931 1806.81722825 916.71230931 1806.81722825 914.9879577 1806.81649963 C896.68862567 1806.80873693 878.38929384 1806.80052698 860.08996202 1806.79229203 C787.55254846 1806.75967706 715.01516086 1806.74659132 642.47774023 1806.75282556 C640.18626333 1806.75301951 637.89478643 1806.753213 635.60330953 1806.75340604 C632.16939104 1806.7536954 628.73547254 1806.7539848 625.30155405 1806.75427516 C612.7571642 1806.75533408 600.21277435 1806.75634709 587.66838449 1806.75730401 C586.54344059 1806.7573914 585.41849669 1806.75747879 584.25946359 1806.75756883 C523.5065459 1806.76223825 462.75363138 1806.75245956 402.00071561 1806.73746616 C399.85833098 1806.7369404 397.71594635 1806.73641501 395.57356172 1806.73588997 C393.98499982 1806.73550024 393.98499982 1806.73550024 392.36434575 1806.73510263 C390.22775999 1806.73457858 388.09117422 1806.73405495 385.95458845 1806.73353176 C380.63172508 1806.73222706 375.30886172 1806.73090945 369.98599836 1806.72956657 C346.65764733 1806.72372393 323.32929806 1806.7197121 300.00094622 1806.72068864 C298.4246689 1806.72075316 298.4246689 1806.72075316 296.81654758 1806.72081897 C291.52571181 1806.72104449 286.23487604 1806.72129856 280.94404027 1806.72156058 C242.68261713 1806.72342499 204.42121741 1806.71535677 166.15980197 1806.68991911 C162.3876114 1806.68745165 158.61542081 1806.68502828 154.84323019 1806.68263894 C153.4546026 1806.68175203 153.4546026 1806.68175203 152.03792194 1806.68084721 C137.39654548 1806.6717569 122.75518756 1806.67263953 108.11380987 1806.67767961 C93.70633545 1806.68242069 79.2988985 1806.67637706 64.89143347 1806.65896527 C56.45192881 1806.64907839 48.01251799 1806.64725303 39.57301334 1806.65760288 C33.95637076 1806.66366208 28.33980491 1806.65871301 22.7231758 1806.64510047 C19.54668014 1806.63769971 16.3704075 1806.63637922 13.19391045 1806.64531471 C-5.75755393 1806.69449346 -24.59313007 1805.68468678 -42.97807032 1800.689349 C-43.90885401 1800.44031823 -44.8396377 1800.19128747 -45.79862696 1799.93471032 C-68.76014225 1793.47145479 -89.68167738 1782.63802057 -108.60307032 1768.251849 C-109.50025782 1767.58024743 -110.39744532 1766.90864587 -111.32182032 1766.21669275 C-124.74882581 1755.72178936 -136.80977177 1743.18388066 -146.60307032 1729.251849 C-147.40364284 1728.16575761 -148.20442888 1727.07982358 -149.00541407 1725.9940365 C-168.59099045 1698.75129187 -180.80700678 1663.46310445 -180.73072082 1629.82238054 C-180.7323716 1628.79023594 -180.73402238 1627.75809133 -180.73572318 1626.69466962 C-180.7400483 1623.22473851 -180.73724679 1619.75484985 -180.73449808 1616.28491765 C-180.73614771 1613.76583693 -180.73823397 1611.24675646 -180.74071819 1608.72767642 C-180.74512687 1603.2275517 -180.74641735 1597.72743967 -180.74498984 1592.2273136 C-180.74286849 1583.99324851 -180.74648237 1575.75919273 -180.75120462 1567.52512907 C-180.75907864 1553.49181232 -180.76216669 1539.4584981 -180.76265055 1525.4251793 C-180.7631528 1511.20092915 -180.76579836 1496.97668186 -180.77105814 1482.75243264 C-180.77138828 1481.8544495 -180.77171841 1480.95646635 -180.77205855 1480.03127159 C-180.77340853 1476.3739827 -180.7747712 1472.71669381 -180.77615065 1469.05940493 C-180.7924571 1425.7497915 -180.79883979 1382.44017861 -180.80359852 1339.13056263 C-180.80598138 1317.56584059 -180.80968479 1296.00111885 -180.81363562 1274.43639704 C-180.82630053 1205.26927715 -180.83708432 1136.10215727 -180.84047608 1066.93503624 C-180.84063832 1063.62888915 -180.84080388 1060.32274205 -180.84097046 1057.01659496 C-180.84130426 1050.38602516 -180.84163474 1043.75545536 -180.84196502 1037.12488556 C-180.84235192 1029.3620403 -180.84274153 1021.59919505 -180.84313608 1013.83634979 C-180.8432485 1011.61455738 -180.84335992 1009.39276496 -180.84347034 1007.17097254 C-180.84701974 935.81529636 -180.86209779 864.45963024 -180.88540808 793.1039579 C-180.90215015 741.83364876 -180.91762496 690.56334151 -180.92214304 639.29302961 C-180.92228327 637.71135758 -180.92228327 637.71135758 -180.92242633 636.09773259 C-180.92444541 612.94960423 -180.92560143 589.80147591 -180.92595492 566.65334747 C-180.92609109 558.37035184 -180.92630009 550.08735622 -180.92654817 541.80436061 C-180.92660973 539.74374945 -180.92666805 537.68313829 -180.92672312 535.62252713 C-180.92764285 502.79078131 -180.93761001 469.959046 -180.95218061 437.12730363 C-180.96679896 404.05558685 -180.97183697 370.98388296 -180.96376106 337.91216352 C-180.96264571 333.34033471 -180.96163505 328.76850588 -180.96068674 324.19667703 C-180.96049678 323.3004877 -180.96030681 322.40429837 -180.96011108 321.48095178 C-180.95737931 307.300726 -180.96471338 293.12052409 -180.97626011 278.94030349 C-180.98740914 264.99059903 -180.98782391 251.04092826 -180.97688993 237.09122327 C-180.97080303 228.9173819 -180.97286275 220.74364233 -180.9871419 212.5698106 C-180.99683448 206.49323095 -180.99078396 200.41677211 -180.97873157 194.34019231 C-180.97630294 191.90327172 -180.97886255 189.4663395 -180.98712805 187.02943171 C-181.04292819 169.41504269 -179.96554316 152.51907909 -174.79057032 135.564349 C-174.39938013 134.25240564 -174.39938013 134.25240564 -174.00028712 132.91395837 C-173.22307239 130.35240083 -172.42066068 127.80077693 -171.60307032 125.251849 C-171.26517481 124.19103112 -171.26517481 124.19103112 -170.92045313 123.10878259 C-156.057802 77.57663986 -120.87365989 40.58876724 -78.85111719 18.79945642 C-54.24582871 6.40092826 -27.56440891 -0.09580138 0 0 Z " fill="#F8F8F4" transform="translate(180.60307031869888,-0.2518489956855774)"/>
<path d="M0 0 C11.45364448 -1.17253289 17.85150077 4.8567534 26.37255859 11.71582031 C30.07125269 14.64891822 33.91263703 17.37526722 37.75390625 20.1171875 C39.25547425 21.20145475 40.75677749 22.28608876 42.2578125 23.37109375 C47.24363735 26.9601456 52.26563083 30.4969806 57.29052734 34.03100586 C63.28546986 38.25329512 69.23261852 42.53970065 75.171875 46.83984375 C79.66709337 50.09419455 84.17154157 53.33466178 88.69140625 56.5546875 C93.97983258 60.32224915 99.24448489 64.12175892 104.50390625 67.9296875 C110.37272028 72.17711731 116.26565032 76.38708502 122.19140625 80.5546875 C131.84658369 87.34687548 141.40346402 94.27288851 150.96191406 101.20019531 C159.00769398 107.02931611 167.06525597 112.83795866 175.19140625 118.5546875 C183.31325186 124.26838801 191.36634193 130.07416222 199.40771484 135.90039062 C203.25019737 138.68386952 207.09550595 141.46343349 210.94140625 144.2421875 C211.69413818 144.78609131 212.44687012 145.32999512 213.22241211 145.89038086 C218.25984033 149.52769792 223.31047679 153.14591656 228.37084961 156.7512207 C233.09776367 160.1221803 237.80131288 163.52491376 242.50390625 166.9296875 C248.37272028 171.17711731 254.26565032 175.38708502 260.19140625 179.5546875 C269.84658369 186.34687548 279.40346402 193.27288851 288.96191406 200.20019531 C297.00769398 206.02931611 305.06525597 211.83795866 313.19140625 217.5546875 C321.31325186 223.26838801 329.36634193 229.07416222 337.40771484 234.90039062 C341.25019737 237.68386952 345.09550595 240.46343349 348.94140625 243.2421875 C349.69413818 243.78609131 350.44687012 244.32999512 351.22241211 244.89038086 C356.25984033 248.52769792 361.31047679 252.14591656 366.37084961 255.7512207 C371.09776367 259.1221803 375.80131288 262.52491376 380.50390625 265.9296875 C386.37272028 270.17711731 392.26565032 274.38708502 398.19140625 278.5546875 C407.84658369 285.34687548 417.40346402 292.27288851 426.96191406 299.20019531 C435.00769398 305.02931611 443.06525597 310.83795866 451.19140625 316.5546875 C459.31325186 322.26838801 467.36634193 328.07416222 475.40771484 333.90039062 C479.25019737 336.68386952 483.09550595 339.46343349 486.94140625 342.2421875 C487.69413818 342.78609131 488.44687012 343.32999512 489.22241211 343.89038086 C494.25984033 347.52769792 499.31047679 351.14591656 504.37084961 354.7512207 C509.09776367 358.1221803 513.80131288 361.52491376 518.50390625 364.9296875 C524.37272028 369.17711731 530.26565032 373.38708502 536.19140625 377.5546875 C545.84658369 384.34687548 555.40346402 391.27288851 564.96191406 398.20019531 C573.00769398 404.02931611 581.06525597 409.83795866 589.19140625 415.5546875 C598.84648726 422.34701574 608.40346145 429.27288665 617.96191406 436.20019531 C626.00769398 442.02931611 634.06525597 447.83795866 642.19140625 453.5546875 C651.84648726 460.34701574 661.40346145 467.27288665 670.96191406 474.20019531 C679.00769398 480.02931611 687.06525597 485.83795866 695.19140625 491.5546875 C704.84648726 498.34701574 714.40346145 505.27288665 723.96191406 512.20019531 C732.00769398 518.02931611 740.06525597 523.83795866 748.19140625 529.5546875 C756.31325186 535.26838801 764.36634193 541.07416222 772.40771484 546.90039062 C776.25019737 549.68386952 780.09550595 552.46343349 783.94140625 555.2421875 C785.07050415 556.05804321 785.07050415 556.05804321 786.22241211 556.89038086 C791.25984033 560.52769792 796.31047679 564.14591656 801.37084961 567.7512207 C806.09776367 571.1221803 810.80131288 574.52491376 815.50390625 577.9296875 C821.37272028 582.17711731 827.26565032 586.38708502 833.19140625 590.5546875 C842.84658369 597.34687548 852.40346402 604.27288851 861.96191406 611.20019531 C866.44638647 614.44916951 870.93603866 617.69075898 875.43164062 620.92431641 C877.76838521 622.61022612 880.09693553 624.30710734 882.42578125 626.00390625 C883.95149169 627.10462593 885.47752192 628.2049025 887.00390625 629.3046875 C887.70330322 629.81845947 888.4027002 630.33223145 889.12329102 630.86157227 C893.95225566 634.53040449 893.95225566 634.53040449 899.69140625 635.5546875 C902.32028815 633.92223664 904.55993187 632.30824422 906.94140625 630.3671875 C908.3745309 629.24512994 909.80948526 628.1254061 911.24609375 627.0078125 C911.98182617 626.43095703 912.71755859 625.85410156 913.47558594 625.25976562 C916.92936192 622.60207815 920.49156257 620.10832857 924.06640625 617.6171875 C929.97694104 613.4775054 935.84934009 609.29046882 941.69140625 605.0546875 C947.4969372 600.84764522 953.32662625 596.6787328 959.19140625 592.5546875 C968.08217197 586.30035874 976.88973626 579.9335322 985.69140625 573.5546875 C995.18907426 566.67143133 1004.70572658 559.82084668 1014.29931641 553.07177734 C1021.71487683 547.84783949 1029.06233807 542.53094161 1036.40771484 537.20898438 C1040.25019737 534.42550548 1044.09550595 531.64594151 1047.94140625 528.8671875 C1048.69413818 528.32328369 1049.44687012 527.77937988 1050.22241211 527.21899414 C1055.25984033 523.58167708 1060.31047679 519.96345844 1065.37084961 516.3581543 C1070.09776367 512.9871947 1074.80131288 509.58446124 1079.50390625 506.1796875 C1085.37272028 501.93225769 1091.26565032 497.72228998 1097.19140625 493.5546875 C1106.08211925 487.30028209 1114.88973488 480.9335332 1123.69140625 474.5546875 C1133.18907426 467.67143133 1142.70572658 460.82084668 1152.29931641 454.07177734 C1159.71487683 448.84783949 1167.06233807 443.53094161 1174.40771484 438.20898438 C1178.25019737 435.42550548 1182.09550595 432.64594151 1185.94140625 429.8671875 C1186.69413818 429.32328369 1187.44687012 428.77937988 1188.22241211 428.21899414 C1193.25984033 424.58167708 1198.31047679 420.96345844 1203.37084961 417.3581543 C1208.09776367 413.9871947 1212.80131288 410.58446124 1217.50390625 407.1796875 C1223.37272028 402.93225769 1229.26565032 398.72228998 1235.19140625 394.5546875 C1244.08211925 388.30028209 1252.88973488 381.9335332 1261.69140625 375.5546875 C1271.18907426 368.67143133 1280.70572658 361.82084668 1290.29931641 355.07177734 C1297.71487683 349.84783949 1305.06233807 344.53094161 1312.40771484 339.20898438 C1316.25019737 336.42550548 1320.09550595 333.64594151 1323.94140625 330.8671875 C1324.69413818 330.32328369 1325.44687012 329.77937988 1326.22241211 329.21899414 C1331.25984033 325.58167708 1336.31047679 321.96345844 1341.37084961 318.3581543 C1346.09776367 314.9871947 1350.80131288 311.58446124 1355.50390625 308.1796875 C1361.37272028 303.93225769 1367.26565032 299.72228998 1373.19140625 295.5546875 C1382.08211925 289.30028209 1390.88973488 282.9335332 1399.69140625 276.5546875 C1409.18907426 269.67143133 1418.70572658 262.82084668 1428.29931641 256.07177734 C1435.71487683 250.84783949 1443.06233807 245.53094161 1450.40771484 240.20898438 C1454.25019737 237.42550548 1458.09550595 234.64594151 1461.94140625 231.8671875 C1462.69413818 231.32328369 1463.44687012 230.77937988 1464.22241211 230.21899414 C1469.25984033 226.58167708 1474.31047679 222.96345844 1479.37084961 219.3581543 C1484.09776367 215.9871947 1488.80131288 212.58446124 1493.50390625 209.1796875 C1499.37272028 204.93225769 1505.26565032 200.72228998 1511.19140625 196.5546875 C1520.08211925 190.30028209 1528.88973488 183.9335332 1537.69140625 177.5546875 C1547.18907426 170.67143133 1556.70572658 163.82084668 1566.29931641 157.07177734 C1573.71487683 151.84783949 1581.06233807 146.53094161 1588.40771484 141.20898438 C1592.25019737 138.42550548 1596.09550595 135.64594151 1599.94140625 132.8671875 C1600.69413818 132.32328369 1601.44687012 131.77937988 1602.22241211 131.21899414 C1607.25984033 127.58167708 1612.31047679 123.96345844 1617.37084961 120.3581543 C1622.09776367 116.9871947 1626.80131288 113.58446124 1631.50390625 110.1796875 C1637.37272028 105.93225769 1643.26565032 101.72228998 1649.19140625 97.5546875 C1657.31333321 91.84110481 1665.3663439 86.03521135 1673.40771484 80.20898438 C1677.25019737 77.42550548 1681.09550595 74.64594151 1684.94140625 71.8671875 C1685.69413818 71.32328369 1686.44687012 70.77937988 1687.22241211 70.21899414 C1692.25770178 66.58322123 1697.30646611 62.96692666 1702.36425781 59.36254883 C1707.15408188 55.94605498 1711.92394494 52.50229795 1716.69140625 49.0546875 C1722.57047917 44.80321027 1728.46088363 40.56866565 1734.36987305 36.35888672 C1739.09707177 32.98762452 1743.80093339 29.58463184 1748.50390625 26.1796875 C1755.25181259 21.29739574 1762.01077101 16.43021679 1768.85205078 11.67919922 C1771.81991662 9.6152944 1774.69375386 7.55275031 1777.484375 5.25 C1783.68769977 0.2104311 1788.69896341 -0.46379287 1796.61035156 0.32177734 C1797.64047363 0.43706787 1797.64047363 0.43706787 1798.69140625 0.5546875 C1799.44776367 0.63541504 1800.20412109 0.71614258 1800.98339844 0.79931641 C1820.12793796 2.97500792 1837.40156229 8.10723308 1854.69140625 16.5546875 C1856.43744141 17.40546875 1856.43744141 17.40546875 1858.21875 18.2734375 C1871.59952135 25.15034302 1882.91631351 34.15529535 1893.69140625 44.5546875 C1894.54347656 45.34359375 1895.39554688 46.1325 1896.2734375 46.9453125 C1923.20469856 72.56181908 1939.0836416 111.20103986 1940.03357502 148.1525352 C1940.09363908 152.76425482 1940.08649082 157.37444038 1940.06892967 161.98641968 C1940.07206619 164.09367129 1940.07651519 166.20092127 1940.08214277 168.3081677 C1940.0937616 174.07062575 1940.08686859 179.83293183 1940.07680891 185.59538725 C1940.06917055 191.8752526 1940.07898973 198.15509539 1940.08653891 204.4349575 C1940.09735736 215.43203534 1940.09715715 226.42906115 1940.08939743 237.42613983 C1940.08112711 249.21887764 1940.0794159 261.01158954 1940.08560944 272.80432892 C1940.08599695 273.55075241 1940.08638447 274.2971759 1940.08678373 275.06621829 C1940.08838365 278.10656951 1940.09002979 281.14692071 1940.09173456 284.18727187 C1940.10758145 312.46919287 1940.10868801 340.75109651 1940.10029221 369.03302002 C1940.10004382 369.87013496 1940.09979543 370.70724991 1940.09953952 371.56973197 C1940.09929073 372.40819448 1940.09904194 373.24665699 1940.09878561 374.11052746 C1940.09121128 399.67124159 1940.08926411 425.23194855 1940.09285355 450.79266357 C1940.09308598 452.50538855 1940.09331745 454.21811353 1940.09354796 455.93083851 C1940.09447938 462.81384736 1940.09543539 469.69685622 1940.09642725 476.57986506 C1940.09917805 495.8198347 1940.10089002 515.05980436 1940.10178566 534.29977417 C1940.1018266 535.17586254 1940.10186753 536.0519509 1940.10190971 536.9545874 C1940.10313725 564.86386055 1940.09975839 592.7731312 1940.09323692 620.68240356 C1940.09302618 621.5874021 1940.09281543 622.49240064 1940.0925983 623.42482338 C1940.08916359 638.1207231 1940.08550514 652.81662277 1940.08182777 667.51252244 C1940.06725915 725.79546459 1940.06793536 784.07838606 1940.08251953 842.36132812 C1940.08618321 857.04987587 1940.0898164 871.73842363 1940.09323692 886.42697144 C1940.09355394 887.78367611 1940.09355394 887.78367611 1940.09387736 889.16778896 C1940.10034746 917.04839325 1940.10308845 944.92899581 1940.10178566 972.80960083 C1940.10174491 973.68504305 1940.10170415 974.56048527 1940.10166217 975.46245605 C1940.10072466 994.68117406 1940.09882362 1013.89989188 1940.09605415 1033.11860971 C1940.09506676 1039.99540594 1940.09412751 1046.87220218 1940.09320202 1053.74899842 C1940.09296985 1055.45971199 1940.09273366 1057.17042557 1940.09249343 1058.88113914 C1940.08891497 1084.4339768 1940.09195748 1109.98680638 1940.09953952 1135.53964303 C1940.09978791 1136.37675797 1940.10003629 1137.21387292 1940.10029221 1138.07635498 C1940.10066428 1139.3297034 1940.10066428 1139.3297034 1940.10104386 1140.608372 C1940.10932427 1168.80994796 1940.10626305 1197.01150312 1940.09044997 1225.21307611 C1940.08879297 1228.24373275 1940.08718285 1231.2743894 1940.08560944 1234.30504608 C1940.08521882 1235.04880326 1940.0848282 1235.79256044 1940.08442574 1236.55885572 C1940.0785172 1248.31791135 1940.08261907 1260.07694105 1940.09091645 1271.83599434 C1940.09886803 1283.4089533 1940.09578634 1294.98185485 1940.08187419 1306.55481101 C1940.07474031 1312.74097052 1940.07229279 1318.92703209 1940.08309214 1325.11318851 C1940.09282931 1330.74842793 1940.08859951 1336.3834831 1940.07355016 1342.01870927 C1940.07054565 1344.03727272 1940.07248188 1346.05585167 1940.08016797 1348.07440272 C1940.13739596 1364.26129672 1938.90111318 1380.23009412 1933.94140625 1395.7421875 C1933.68464111 1396.5662207 1933.42787598 1397.39025391 1933.16333008 1398.23925781 C1921.58874156 1434.31716321 1898.2782244 1462.97836488 1866.69140625 1483.5546875 C1865.70398437 1484.20566406 1864.7165625 1484.85664062 1863.69921875 1485.52734375 C1817.46797643 1514.27453267 1758.76721216 1506.5546875 1707.69140625 1506.5546875 C1707.19640625 953.1446875 1707.19640625 953.1446875 1706.69140625 388.5546875 C1693.64613289 397.74385401 1693.64613289 397.74385401 1680.69140625 407.0546875 C1674.19168577 411.76627527 1667.65275099 416.41767515 1661.0859375 421.03515625 C1655.92573905 424.66923316 1650.80211685 428.35140151 1645.69140625 432.0546875 C1639.19082142 436.76509407 1632.65276745 441.41766358 1626.0859375 446.03515625 C1620.92573905 449.66923316 1615.80211685 453.35140151 1610.69140625 457.0546875 C1604.19082142 461.76509407 1597.65276745 466.41766358 1591.0859375 471.03515625 C1585.92573905 474.66923316 1580.80211685 478.35140151 1575.69140625 482.0546875 C1569.19082142 486.76509407 1562.65276745 491.41766358 1556.0859375 496.03515625 C1550.92573905 499.66923316 1545.80211685 503.35140151 1540.69140625 507.0546875 C1534.19082142 511.76509407 1527.65276745 516.41766358 1521.0859375 521.03515625 C1515.92573905 524.66923316 1510.80211685 528.35140151 1505.69140625 532.0546875 C1499.19082142 536.76509407 1492.65276745 541.41766358 1486.0859375 546.03515625 C1480.92573905 549.66923316 1475.80211685 553.35140151 1470.69140625 557.0546875 C1464.19082142 561.76509407 1457.65276745 566.41766358 1451.0859375 571.03515625 C1445.92573905 574.66923316 1440.80211685 578.35140151 1435.69140625 582.0546875 C1429.19082142 586.76509407 1422.65276745 591.41766358 1416.0859375 596.03515625 C1410.92573905 599.66923316 1405.80211685 603.35140151 1400.69140625 607.0546875 C1394.19082142 611.76509407 1387.65276745 616.41766358 1381.0859375 621.03515625 C1375.92573905 624.66923316 1370.80211685 628.35140151 1365.69140625 632.0546875 C1359.19082142 636.76509407 1352.65276745 641.41766358 1346.0859375 646.03515625 C1340.92573905 649.66923316 1335.80211685 653.35140151 1330.69140625 657.0546875 C1324.19082142 661.76509407 1317.65276745 666.41766358 1311.0859375 671.03515625 C1305.92573905 674.66923316 1300.80211685 678.35140151 1295.69140625 682.0546875 C1289.19082142 686.76509407 1282.65276745 691.41766358 1276.0859375 696.03515625 C1270.92573905 699.66923316 1265.80211685 703.35140151 1260.69140625 707.0546875 C1254.19082142 711.76509407 1247.65276745 716.41766358 1241.0859375 721.03515625 C1235.92573905 724.66923316 1230.80211685 728.35140151 1225.69140625 732.0546875 C1219.19082142 736.76509407 1212.65276745 741.41766358 1206.0859375 746.03515625 C1200.92573905 749.66923316 1195.80211685 753.35140151 1190.69140625 757.0546875 C1184.19082142 761.76509407 1177.65276745 766.41766358 1171.0859375 771.03515625 C1165.92573905 774.66923316 1160.80211685 778.35140151 1155.69140625 782.0546875 C1149.19082142 786.76509407 1142.65276745 791.41766358 1136.0859375 796.03515625 C1130.92573905 799.66923316 1125.80211685 803.35140151 1120.69140625 807.0546875 C1114.19082142 811.76509407 1107.65276745 816.41766358 1101.0859375 821.03515625 C1095.92573905 824.66923316 1090.80211685 828.35140151 1085.69140625 832.0546875 C1079.19082142 836.76509407 1072.65276745 841.41766358 1066.0859375 846.03515625 C1060.92573905 849.66923316 1055.80211685 853.35140151 1050.69140625 857.0546875 C1044.19082142 861.76509407 1037.65276745 866.41766358 1031.0859375 871.03515625 C1025.92573905 874.66923316 1020.80211685 878.35140151 1015.69140625 882.0546875 C1009.19082142 886.76509407 1002.65276745 891.41766358 996.0859375 896.03515625 C990.92573905 899.66923316 985.80211685 903.35140151 980.69140625 907.0546875 C974.19082142 911.76509407 967.65276745 916.41766358 961.0859375 921.03515625 C955.92573905 924.66923316 950.80211685 928.35140151 945.69140625 932.0546875 C939.20009687 936.75837296 932.67490339 941.40950057 926.11230469 946.01318359 C922.31546982 948.68230712 918.54502159 951.38246935 914.80078125 954.125 C913.98931641 954.71796875 913.17785156 955.3109375 912.34179688 955.921875 C910.7798238 957.06571208 909.22104566 958.21392917 907.66601562 959.3671875 C905.69996197 960.80550155 903.71002446 962.1915504 901.69140625 963.5546875 C900.86253906 964.11929688 900.03367187 964.68390625 899.1796875 965.265625 C894.77828181 965.7769343 891.95512239 962.6762214 888.62890625 960.0546875 C887.01436215 958.83416114 885.39842609 957.61547437 883.78125 956.3984375 C882.9444873 955.76164062 882.10772461 955.12484375 881.24560547 954.46875 C877.13604937 951.38913618 872.9136648 948.47677678 868.69140625 945.5546875 C861.49750193 940.54437415 854.36529562 935.45674447 847.26953125 930.30859375 C842.2704236 926.68490196 837.24235725 923.10570865 832.19140625 919.5546875 C825.56213999 914.8933766 818.98411998 910.16524254 812.421875 905.41015625 C807.37058417 901.75473162 802.29188273 898.14110788 797.19140625 894.5546875 C790.56217913 889.89332001 783.98412088 885.16524319 777.421875 880.41015625 C772.37058239 876.75473034 767.291801 873.14122595 762.19140625 869.5546875 C752.53617162 862.7625828 742.97934693 855.83648537 733.42089844 848.90917969 C724.6799383 842.57640486 715.91520391 836.28278406 707.08569336 830.07397461 C701.16161517 825.90213676 695.2890055 821.66155373 689.421875 817.41015625 C684.37058417 813.75473162 679.29188273 810.14110788 674.19140625 806.5546875 C667.56217913 801.89332001 660.98412088 797.16524319 654.421875 792.41015625 C649.37058417 788.75473162 644.29188273 785.14110788 639.19140625 781.5546875 C632.56217913 776.89332001 625.98412088 772.16524319 619.421875 767.41015625 C614.37058417 763.75473162 609.29188273 760.14110788 604.19140625 756.5546875 C597.56217913 751.89332001 590.98412088 747.16524319 584.421875 742.41015625 C579.37058417 738.75473162 574.29188273 735.14110788 569.19140625 731.5546875 C562.56217913 726.89332001 555.98412088 722.16524319 549.421875 717.41015625 C544.37058417 713.75473162 539.29188273 710.14110788 534.19140625 706.5546875 C527.56217913 701.89332001 520.98412088 697.16524319 514.421875 692.41015625 C509.37058417 688.75473162 504.29188273 685.14110788 499.19140625 681.5546875 C492.56217913 676.89332001 485.98412088 672.16524319 479.421875 667.41015625 C474.37058417 663.75473162 469.29188273 660.14110788 464.19140625 656.5546875 C457.56217913 651.89332001 450.98412088 647.16524319 444.421875 642.41015625 C439.37058417 638.75473162 434.29188273 635.14110788 429.19140625 631.5546875 C422.56217913 626.89332001 415.98412088 622.16524319 409.421875 617.41015625 C404.37058417 613.75473162 399.29188273 610.14110788 394.19140625 606.5546875 C387.56217913 601.89332001 380.98412088 597.16524319 374.421875 592.41015625 C369.37058417 588.75473162 364.29188273 585.14110788 359.19140625 581.5546875 C352.56217913 576.89332001 345.98412088 572.16524319 339.421875 567.41015625 C334.37058417 563.75473162 329.29188273 560.14110788 324.19140625 556.5546875 C317.56217913 551.89332001 310.98412088 547.16524319 304.421875 542.41015625 C299.37058417 538.75473162 294.29188273 535.14110788 289.19140625 531.5546875 C282.56217913 526.89332001 275.98412088 522.16524319 269.421875 517.41015625 C264.37058417 513.75473162 259.29188273 510.14110788 254.19140625 506.5546875 C247.56217913 501.89332001 240.98412088 497.16524319 234.421875 492.41015625 C229.37058417 488.75473162 224.29188273 485.14110788 219.19140625 481.5546875 C212.56217913 476.89332001 205.98412088 472.16524319 199.421875 467.41015625 C194.37058417 463.75473162 189.29188273 460.14110788 184.19140625 456.5546875 C177.56217913 451.89332001 170.98412088 447.16524319 164.421875 442.41015625 C159.37058417 438.75473162 154.29188273 435.14110788 149.19140625 431.5546875 C143.32652768 427.43077474 137.4971523 423.26143303 131.69140625 419.0546875 C123.07562205 412.81387988 114.39184251 406.67721672 105.69140625 400.5546875 C100.08140625 396.5946875 94.47140625 392.6346875 88.69140625 388.5546875 C88.36140625 757.4946875 88.03140625 1126.4346875 87.69140625 1506.5546875 C-9.55646566 1506.5546875 -9.55646566 1506.5546875 -26.05859375 1502.3046875 C-26.92508545 1502.08852783 -27.79157715 1501.87236816 -28.68432617 1501.6496582 C-66.30552633 1491.93347494 -100.93509987 1467.67386235 -121.16015625 1434.21484375 C-121.87818677 1432.9958999 -122.59430075 1431.77582527 -123.30859375 1430.5546875 C-123.86691895 1429.62245361 -123.86691895 1429.62245361 -124.43652344 1428.67138672 C-136.94358029 1407.56506188 -144.50116338 1382.32065729 -144.43739492 1357.72756767 C-144.43916993 1356.86895663 -144.44094494 1356.01034558 -144.44277373 1355.12571602 C-144.44750645 1352.24727736 -144.44514248 1349.36888897 -144.44281483 1346.490448 C-144.44476836 1344.39753183 -144.44715743 1342.30461603 -144.4499428 1340.2117008 C-144.45634578 1334.43777108 -144.45650418 1328.66385527 -144.45566539 1322.88992268 C-144.45583483 1316.61662397 -144.46174032 1310.34333025 -144.46690625 1304.07003403 C-144.47515076 1293.06728438 -144.47965695 1282.06453901 -144.48163223 1271.06178665 C-144.4837612 1259.2547551 -144.4880223 1247.44772726 -144.49487495 1235.64069748 C-144.49530557 1234.895092 -144.49573618 1234.14948653 -144.49617985 1233.38128694 C-144.49793821 1230.34454492 -144.49970786 1227.30780291 -144.50149287 1224.2710609 C-144.5230887 1187.45929001 -144.53397138 1150.64751838 -144.5429691 1113.8357426 C-144.54590355 1101.8966544 -144.54927351 1089.95756639 -144.55293632 1078.01847839 C-144.55319461 1077.17607483 -144.5534529 1076.33367127 -144.55371902 1075.46574033 C-144.55476526 1072.05756145 -144.55581368 1068.64938257 -144.55686484 1065.24120368 C-144.57483041 1006.93872674 -144.59020835 948.63624952 -144.59762387 890.3337702 C-144.59820784 885.75438685 -144.5988051 881.1750035 -144.59940149 876.59562016 C-144.59951961 875.68722448 -144.59963773 874.7788288 -144.59975942 873.84290598 C-144.6009568 864.63972784 -144.60216556 855.4365497 -144.60339196 846.23337156 C-144.60363719 844.38812091 -144.60388105 842.54287026 -144.60412353 840.69761962 C-144.61191078 781.45360943 -144.63428822 722.20961908 -144.66679995 662.96561756 C-144.69015313 620.39629912 -144.71170101 577.82698464 -144.71880627 535.25765991 C-144.71895329 534.38174705 -144.71910031 533.50583419 -144.71925178 532.60337852 C-144.722437 513.37240853 -144.72448762 494.14143858 -144.72547933 474.91046837 C-144.72589406 467.17210341 -144.72644895 459.43373847 -144.72704124 451.69537354 C-144.72710191 450.84847608 -144.72716258 450.00157863 -144.72722509 449.12901762 C-144.72923919 421.87443932 -144.74346378 394.61988446 -144.76398625 367.36531434 C-144.78459299 339.90133566 -144.79244794 312.43738404 -144.78290848 284.97339841 C-144.78159015 281.17263048 -144.78041207 277.37186252 -144.77931786 273.57109451 C-144.77909801 272.82608434 -144.77887816 272.08107417 -144.77865165 271.31348793 C-144.77554537 259.54836803 -144.78583243 247.7833001 -144.80179341 236.01819223 C-144.81723286 224.4305303 -144.81791454 212.84295518 -144.80424517 201.25528889 C-144.79735304 195.06448439 -144.79666382 188.87385758 -144.81380526 182.68306899 C-144.82930879 177.03761005 -144.82598323 171.39247017 -144.80839498 165.7470202 C-144.80527632 163.73035239 -144.80868265 161.71365955 -144.81988673 159.69702046 C-145.04063057 117.15206957 -130.6221928 77.31329854 -100.71557617 46.6640625 C-100.08627197 46.02984375 -99.45696777 45.395625 -98.80859375 44.7421875 C-97.89074097 43.81599609 -97.89074097 43.81599609 -96.9543457 42.87109375 C-92.56587616 38.5546875 -92.56587616 38.5546875 -90.30859375 38.5546875 C-90.30859375 37.8946875 -90.30859375 37.2346875 -90.30859375 36.5546875 C-88.13819004 34.74905753 -85.97007435 33.07769179 -83.68359375 31.4296875 C-83.00425781 30.93758789 -82.32492187 30.44548828 -81.625 29.93847656 C-59.0931713 13.87566547 -32.98173359 3.50662593 -5.38964844 0.77734375 C-3.58481008 0.58424044 -1.79015587 0.30012058 0 0 Z " fill="#E14A3F" transform="translate(352.30859375,149.4453125)"/>
<path d="M0 0 C2.95588782 1.60930899 5.68699343 3.49759391 8.4453125 5.421875 C9.27094696 5.98485291 10.09658142 6.54783081 10.94723511 7.12786865 C12.73807532 8.3503738 14.52573246 9.57755197 16.31054688 10.80883789 C21.15344111 14.14904019 26.01994111 17.4546077 30.8828125 20.765625 C31.88805969 21.45148682 32.89330688 22.13734863 33.92901611 22.84399414 C44.20844518 29.84808973 54.59734991 36.6809074 65 43.5 C80.4722015 53.65499519 95.85198784 63.93727501 111.17724609 74.3125 C124.71892107 83.47689335 138.33223343 92.52486001 152 101.5 C168.60719366 112.40634605 185.11570231 123.45020394 201.57397461 134.57983398 C203.33314594 135.76940492 205.09234163 136.95893983 206.8515625 138.1484375 C207.70768631 138.72733231 208.56381012 139.30622711 209.44587708 139.90266418 C221.04552908 147.74078283 232.69951362 155.49756898 244.35847473 163.24708557 C247.62827613 165.42065579 250.8958071 167.59754513 254.16015625 169.77929688 C262.31237141 175.22624191 270.48345595 180.64291707 278.6796875 186.0234375 C280.05183662 186.92475655 280.05183662 186.92475655 281.45170593 187.84428406 C285.19377361 190.30214042 288.93587831 192.75992186 292.68115234 195.21289062 C303.43037802 202.25529279 314.07689516 209.4057817 324.57637024 216.81575012 C332.88101036 222.65854223 341.35233909 228.23444127 349.85107422 233.78955078 C365.8211921 244.232104 381.70097658 254.80061192 397.5 265.5 C411.93233622 275.27156279 426.43101427 284.93338492 441 294.5 C456.47006483 304.6583019 471.85193641 314.93724019 487.17724609 325.3125 C500.71891755 334.47689097 514.33209604 343.5250735 528 352.5 C543.47006483 362.6583019 558.85193641 372.93724019 574.17724609 383.3125 C587.71891755 392.47689097 601.33209604 401.5250735 615 410.5 C630.47006483 420.6583019 645.85193641 430.93724019 661.17724609 441.3125 C674.71892193 450.47689393 688.33227054 459.52480272 702 468.5 C718.45286361 479.30535252 734.81151104 490.24146463 751.11254883 501.27441406 C760.17480779 507.40622896 769.25217445 513.51320563 778.3671875 519.56640625 C779.28402817 520.17558395 780.20086884 520.78476166 781.14549255 521.41239929 C785.53435787 524.32749242 789.92599926 527.23828311 794.3215332 530.14331055 C795.87458356 531.17355707 797.42756609 532.20390586 798.98046875 533.234375 C799.69689545 533.70577408 800.41332214 534.17717316 801.15145874 534.66285706 C802.78527228 535.74917373 804.3957046 536.87054576 806 538 C806 538.33 806 538.66 806 539 C271.4 539 -263.2 539 -814 539 C-809.50053365 534.50053365 -809.50053365 534.50053365 -806.64819336 532.61938477 C-806.00471954 532.19156708 -805.36124573 531.76374939 -804.69827271 531.32296753 C-803.65460037 530.6390947 -803.65460037 530.6390947 -802.58984375 529.94140625 C-801.84765594 529.44939728 -801.10546814 528.95738831 -800.34078979 528.45046997 C-798.72635933 527.38079835 -797.11056008 526.31319041 -795.49356079 525.24740601 C-791.06490744 522.32812308 -786.64634134 519.39363155 -782.2265625 516.4609375 C-781.30239029 515.84826523 -780.37821808 515.23559296 -779.42604065 514.60435486 C-770.40624195 508.61922286 -761.43888306 502.5577098 -752.47488403 496.48947144 C-736.14182467 485.4348279 -719.72675706 474.51395897 -703.24111938 463.68832397 C-689.59338303 454.72351159 -676.02146535 445.65405423 -662.5 436.5 C-647.15557842 426.1118014 -631.7289709 415.85838316 -616.23974609 405.6875 C-602.59247662 396.72295137 -589.02102213 387.65375417 -575.5 378.5 C-560.15557842 368.1118014 -544.7289709 357.85838316 -529.23974609 347.6875 C-515.59247662 338.72295137 -502.02102213 329.65375417 -488.5 320.5 C-473.15557842 310.1118014 -457.7289709 299.85838316 -442.23974609 289.6875 C-428.59247662 280.72295137 -415.02102213 271.65375417 -401.5 262.5 C-386.15557842 252.1118014 -370.7289709 241.85838316 -355.23974609 231.6875 C-341.59247662 222.72295137 -328.02102213 213.65375417 -314.5 204.5 C-299.15557842 194.1118014 -283.7289709 183.85838316 -268.23974609 173.6875 C-254.59247662 164.72295137 -241.02102213 155.65375417 -227.5 146.5 C-212.15557842 136.1118014 -196.7289709 125.85838316 -181.23974609 115.6875 C-167.59247662 106.72295137 -154.02102213 97.65375417 -140.5 88.5 C-125.16160027 78.1158782 -109.74149591 67.86576327 -94.25787354 57.69958496 C-81.15710335 49.09502177 -68.12158223 40.40024488 -55.13876343 31.61871338 C-52.41386678 29.7762797 -49.68736262 27.93625312 -46.96020508 26.09716797 C-46.08903549 25.50964752 -45.21786591 24.92212708 -44.32029724 24.31680298 C-42.61067164 23.16389079 -40.90100651 22.01103722 -39.19129944 20.85824585 C-34.67936133 17.81423634 -30.17577537 14.75854912 -25.68078613 11.6895752 C-23.2415636 10.02903993 -20.7933712 8.38219038 -18.34185791 6.73986816 C-16.74694478 5.66505971 -15.16397571 4.57259224 -13.58154297 3.47949219 C-12.65100098 2.85977539 -11.72045898 2.24005859 -10.76171875 1.6015625 C-9.97756592 1.06869629 -9.19341309 0.53583008 -8.38549805 -0.01318359 C-5.03633454 -1.39864249 -3.47050339 -1.07595835 0 0 Z " fill="#E1E0D1" transform="translate(1254,1117)"/>
<path d="M0 0 C7.87301587 4.49886621 7.87301587 4.49886621 10.98828125 6.77734375 C11.6851001 7.28402588 12.38191895 7.79070801 13.09985352 8.31274414 C14.19511353 9.11699829 14.19511353 9.11699829 15.3125 9.9375 C16.91141417 11.10162317 18.51037378 12.26568391 20.109375 13.4296875 C20.92083984 14.02233398 21.73230469 14.61498047 22.56835938 15.22558594 C26.39176342 18.01559604 30.22621206 20.79024304 34.0625 23.5625 C34.80669189 24.10060303 35.55088379 24.63870605 36.31762695 25.19311523 C42.05067546 29.33154098 47.82192937 33.41362338 53.60571289 37.48071289 C59.52979108 41.65255074 65.40240075 45.89313377 71.26953125 50.14453125 C76.32082208 53.79995588 81.39952352 57.41357962 86.5 61 C93.12922712 65.66136749 99.70728537 70.38944431 106.26953125 75.14453125 C111.32082208 78.79995588 116.39952352 82.41357962 121.5 86 C128.12922712 90.66136749 134.70728537 95.38944431 141.26953125 100.14453125 C146.32082208 103.79995588 151.39952352 107.41357962 156.5 111 C163.12922712 115.66136749 169.70728537 120.38944431 176.26953125 125.14453125 C181.32082208 128.79995588 186.39952352 132.41357962 191.5 136 C198.12922712 140.66136749 204.70728537 145.38944431 211.26953125 150.14453125 C216.32082208 153.79995588 221.39952352 157.41357962 226.5 161 C233.12922712 165.66136749 239.70728537 170.38944431 246.26953125 175.14453125 C251.32082208 178.79995588 256.39952352 182.41357962 261.5 186 C268.12922712 190.66136749 274.70728537 195.38944431 281.26953125 200.14453125 C286.32082208 203.79995588 291.39952352 207.41357962 296.5 211 C303.12922712 215.66136749 309.70728537 220.38944431 316.26953125 225.14453125 C321.32082208 228.79995588 326.39952352 232.41357962 331.5 236 C338.12922712 240.66136749 344.70728537 245.38944431 351.26953125 250.14453125 C356.32082208 253.79995588 361.39952352 257.41357962 366.5 261 C373.12922712 265.66136749 379.70728537 270.38944431 386.26953125 275.14453125 C391.32082208 278.79995588 396.39952352 282.41357962 401.5 286 C408.12922712 290.66136749 414.70728537 295.38944431 421.26953125 300.14453125 C426.32082208 303.79995588 431.39952352 307.41357962 436.5 311 C443.12922712 315.66136749 449.70728537 320.38944431 456.26953125 325.14453125 C461.32082208 328.79995588 466.39952352 332.41357962 471.5 336 C478.12922712 340.66136749 484.70728537 345.38944431 491.26953125 350.14453125 C496.32082208 353.79995588 501.39952352 357.41357962 506.5 361 C513.12922712 365.66136749 519.70728537 370.38944431 526.26953125 375.14453125 C531.32082208 378.79995588 536.39952352 382.41357962 541.5 386 C548.12922712 390.66136749 554.70728537 395.38944431 561.26953125 400.14453125 C566.32082208 403.79995588 571.39952352 407.41357962 576.5 411 C583.12922712 415.66136749 589.70728537 420.38944431 596.26953125 425.14453125 C601.32082208 428.79995588 606.39952352 432.41357962 611.5 436 C618.12922712 440.66136749 624.70728537 445.38944431 631.26953125 450.14453125 C636.32082386 453.79995716 641.39960525 457.41346155 646.5 461 C656.15523463 467.7921047 665.71205932 474.71820213 675.27050781 481.64550781 C684.01146795 487.97828264 692.77620234 494.27190344 701.60571289 500.48071289 C707.52979108 504.65255074 713.40240075 508.89313377 719.26953125 513.14453125 C724.32082208 516.79995588 729.39952352 520.41357962 734.5 524 C740.36487777 528.1239122 746.194297 532.29319549 752 536.5 C758.11955941 540.93352427 764.26293888 545.33085687 770.4375 549.6875 C771.15357422 550.1928125 771.86964844 550.698125 772.60742188 551.21875 C775.38738561 553.17631903 778.17066638 555.11377759 781 557 C781 557.66 781 558.32 781 559 C779.61894226 560.14631653 779.61894226 560.14631653 777.64331055 561.42895508 C776.52752876 562.16097893 776.52752876 562.16097893 775.38920593 562.90779114 C774.56338516 563.43966537 773.73756439 563.97153961 772.88671875 564.51953125 C772.02766434 565.08109421 771.16860992 565.64265717 770.28352356 566.22123718 C768.41015332 567.44516267 766.53478786 568.66603822 764.65771484 569.88427734 C759.58889253 573.17488713 754.53524187 576.48864683 749.48046875 579.80078125 C748.4374057 580.48355133 747.39434265 581.16632141 746.31967163 581.86978149 C735.97940015 588.64801866 725.73423243 595.56314716 715.5 602.5 C700.1571442 612.89047616 684.72893442 623.1416408 669.23974609 633.3125 C655.59247662 642.27704863 642.02102213 651.34624583 628.5 660.5 C613.15557842 670.8881986 597.7289709 681.14161684 582.23974609 691.3125 C568.59247662 700.27704863 555.02102213 709.34624583 541.5 718.5 C526.15557842 728.8881986 510.7289709 739.14161684 495.23974609 749.3125 C481.59247662 758.27704863 468.02102213 767.34624583 454.5 776.5 C439.15557842 786.8881986 423.7289709 797.14161684 408.23974609 807.3125 C394.59247662 816.27704863 381.02102213 825.34624583 367.5 834.5 C352.15557842 844.8881986 336.7289709 855.14161684 321.23974609 865.3125 C307.59247662 874.27704863 294.02102213 883.34624583 280.5 892.5 C265.15557842 902.8881986 249.7289709 913.14161684 234.23974609 923.3125 C220.59247662 932.27704863 207.02102213 941.34624583 193.5 950.5 C178.15557842 960.8881986 162.7289709 971.14161684 147.23974609 981.3125 C132.69256999 990.8681747 118.23824173 1000.55305403 103.82577515 1010.31048584 C89.31885518 1020.12830872 74.72463848 1029.8057003 60.0809021 1039.4180603 C44.31801005 1049.76759841 28.66487562 1060.27230325 13.0715332 1070.87548828 C12.26317017 1071.42404984 11.45480713 1071.97261139 10.62194824 1072.53779602 C9.10948376 1073.56437681 7.59834692 1074.59291722 6.08874512 1075.623703 C1.11229496 1079 1.11229496 1079 0 1079 C0 722.93 0 366.86 0 0 Z " fill="#EBEBDE" transform="translate(440,537)"/>
<path d="M0 0 C0.021994 35.08829703 0.04308153 70.17659459 0.06347656 105.26489258 C0.06387575 105.95153819 0.06427494 106.6381838 0.06468623 107.34563686 C0.10744261 180.93303303 0.1443331 254.52042939 0.16937256 328.10783386 C0.16993036 329.74275819 0.17048817 331.37768253 0.17104598 333.01260686 C0.18273719 367.3315239 0.19360401 401.65044116 0.20351871 435.96935875 C0.20850022 453.20937178 0.21364011 470.44938476 0.21892977 487.6893977 C0.21972676 490.28995793 0.22051924 492.89051815 0.22131152 495.49107838 C0.23354872 535.52707591 0.24917878 575.56306857 0.2746582 615.59906006 C0.2752058 616.459603 0.27575339 617.32014595 0.27631758 618.20676596 C0.28516686 632.08090595 0.29430138 645.95504576 0.30347376 659.82918554 C0.32989481 699.80021121 0.35420006 739.77123313 0.36455917 779.74226665 C0.36477331 780.56457319 0.36498745 781.38687972 0.36520808 782.23410463 C0.36987159 800.28752938 0.3734508 818.34095416 0.37600393 836.39437932 C0.37705039 843.65892774 0.37825287 850.92347613 0.37950897 858.18802452 C0.37964268 858.98308812 0.37977639 859.77815172 0.37991415 860.59730816 C0.38429687 886.19675153 0.40137074 911.79616707 0.42512883 937.39559921 C0.44901128 963.19180071 0.46039054 988.98797522 0.45449595 1014.78418805 C0.45368368 1018.3525567 0.45301413 1021.92092536 0.45243073 1025.48929405 C0.4523112 1026.18876879 0.45219168 1026.88824354 0.45206854 1027.60891448 C0.45054855 1038.66498254 0.46246082 1049.72099332 0.48003945 1060.77704579 C0.49706574 1071.66061348 0.49939366 1082.54410389 0.48732725 1093.42767851 C0.48129268 1099.24491301 0.48152899 1105.06195688 0.49953273 1110.87917087 C0.51581298 1116.17990513 0.51338987 1121.4803014 0.4965599 1126.78103093 C0.49372212 1128.6785346 0.49747321 1130.5760637 0.50894098 1132.47353483 C0.59963372 1148.50680695 -1.62520908 1163.86584756 -7.125 1179 C-7.56332153 1180.22227295 -7.56332153 1180.22227295 -8.01049805 1181.46923828 C-15.59604605 1201.81345497 -27.69219756 1218.88700753 -42 1235 C-42.87011719 1235.98033203 -42.87011719 1235.98033203 -43.7578125 1236.98046875 C-71.1251572 1265.92934342 -111.49580818 1280.41283725 -150.52558899 1282.10980988 C-156.38679689 1282.26325712 -162.24683115 1282.23139622 -168.109375 1282.1953125 C-169.94166914 1282.19156742 -171.77396532 1282.18872756 -173.60626221 1282.18673706 C-178.35388029 1282.17921801 -183.10136965 1282.15967534 -187.84893799 1282.1373291 C-192.72349304 1282.11661293 -197.59806956 1282.10768112 -202.47265625 1282.09765625 C-211.9818264 1282.07641427 -221.49090236 1282.04242642 -231 1282 C-231.05498147 1247.83268548 -231.10770085 1213.66536758 -231.15869141 1179.49804688 C-231.15968938 1178.82946291 -231.16068736 1178.16087895 -231.16171558 1177.47203486 C-231.2685758 1105.84095314 -231.36081018 1034.2098703 -231.4234314 962.57873535 C-231.4248259 960.98784433 -231.42622042 959.3969533 -231.42761494 957.80606227 C-231.456841 924.41377183 -231.48400824 891.02147997 -231.50879678 857.62918594 C-231.52125085 840.85544693 -231.53410059 824.08170825 -231.54732442 807.30796984 C-231.5493169 804.77769469 -231.55129809 802.24741953 -231.5532788 799.71714438 C-231.58388321 760.74862145 -231.6229799 721.78012975 -231.68664551 682.81164551 C-231.6880145 681.9736146 -231.68938348 681.13558368 -231.69079396 680.27215789 C-231.71291802 666.76038349 -231.73575398 653.24861028 -231.7586844 639.73683722 C-231.82471009 600.8247526 -231.88548269 561.91269197 -231.91139793 523.00055695 C-231.91220096 521.80057863 -231.91220096 521.80057863 -231.91302021 520.57635833 C-231.92467712 503.01587005 -231.933626 485.45538147 -231.94000983 467.89489051 C-231.94262609 460.8294274 -231.94563229 453.76396447 -231.94877243 446.69850159 C-231.9491067 445.92521147 -231.94944097 445.15192135 -231.94978537 444.3551982 C-231.96075452 419.42856171 -232.00348096 394.50210344 -232.06282208 369.5755389 C-232.12244064 344.47149034 -232.15100054 319.36761481 -232.13623988 294.26349365 C-232.13420901 290.79622098 -232.13253521 287.32894822 -232.13107681 283.86167526 C-232.13077801 283.18197705 -232.1304792 282.50227884 -232.13017134 281.80198372 C-232.12612949 270.37359193 -232.16181964 258.94564344 -232.20797543 247.51735306 C-232.24535905 237.58556909 -232.24671885 227.65420997 -232.21831814 217.72239715 C-232.20315991 212.05600009 -232.20410825 206.39082756 -232.24883182 200.72455972 C-232.28918322 195.57328955 -232.28382107 190.4242036 -232.24139976 185.27296855 C-232.23423484 183.41744859 -232.24397933 181.56177009 -232.27235245 179.70645325 C-232.47013175 165.90262293 -232.47013175 165.90262293 -228.82674877 161.18741018 C-226.30513482 159.1333771 -223.85246288 157.5489525 -221 156 C-219.70832485 155.10470046 -218.42452442 154.19768316 -217.15625 153.26953125 C-215.9397424 152.44719379 -214.72094355 151.62823676 -213.5 150.8125 C-207.61609118 146.82385145 -201.81396292 142.73984562 -196.0625 138.5625 C-186.73559832 131.79257137 -177.32352267 125.14855538 -167.89550781 118.52050781 C-159.13121284 112.3566527 -150.40724456 106.14258119 -141.73071289 99.85571289 C-135.98426483 95.69705836 -130.19697315 91.59954142 -124.39453125 87.51953125 C-119.2343313 83.88545328 -114.11078334 80.20318728 -109 76.5 C-99.69024511 69.75651759 -90.29947664 63.13165063 -80.89550781 56.52050781 C-72.89556845 50.89421759 -64.92087496 45.23721785 -57 39.5 C-49.08667158 33.76824823 -41.11919755 28.11739524 -33.12646484 22.49707031 C-30.95331304 20.96713152 -28.78289793 19.43338476 -26.61328125 17.8984375 C-19.92149041 13.16434746 -13.22477321 8.43716315 -6.5 3.75 C-5.4584375 3.02296875 -4.416875 2.2959375 -3.34375 1.546875 C-1 0 -1 0 0 0 Z " fill="#AA3125" transform="translate(2291,374)"/>
<path d="M0 0 C5.69874388 3.10011667 10.89203254 6.67290439 16.125 10.5 C17.30255859 11.35271484 17.30255859 11.35271484 18.50390625 12.22265625 C22.41056394 15.06206513 26.26279587 17.93819421 30 21 C28.85821289 21.54213135 27.71642578 22.0842627 26.54003906 22.64282227 C21.88228267 24.97597797 17.648283 27.76955359 13.359375 30.71484375 C12.53657043 31.27357681 11.71376587 31.83230988 10.86602783 32.40797424 C9.08887023 33.61506482 7.31309554 34.82419346 5.53857422 36.03515625 C0.71576235 39.32524118 -4.11854271 42.59833878 -8.953125 45.87109375 C-9.95218872 46.54768036 -10.95125244 47.22426697 -11.98059082 47.9213562 C-22.26060253 54.87216583 -32.62481917 61.69243541 -43 68.5 C-57.56989314 78.06523087 -72.06728801 87.7290303 -86.5 97.5 C-101.84442158 107.8881986 -117.2710291 118.14161684 -132.76025391 128.3125 C-146.40752338 137.27704863 -159.97897787 146.34624583 -173.5 155.5 C-188.84442158 165.8881986 -204.2710291 176.14161684 -219.76025391 186.3125 C-233.40752338 195.27704863 -246.97897787 204.34624583 -260.5 213.5 C-275.84442158 223.8881986 -291.2710291 234.14161684 -306.76025391 244.3125 C-320.40752338 253.27704863 -333.97897787 262.34624583 -347.5 271.5 C-362.84442158 281.8881986 -378.2710291 292.14161684 -393.76025391 302.3125 C-407.40752338 311.27704863 -420.97897787 320.34624583 -434.5 329.5 C-449.84442158 339.8881986 -465.2710291 350.14161684 -480.76025391 360.3125 C-494.40752338 369.27704863 -507.97897787 378.34624583 -521.5 387.5 C-536.84442158 397.8881986 -552.2710291 408.14161684 -567.76025391 418.3125 C-581.40752338 427.27704863 -594.97897787 436.34624583 -608.5 445.5 C-622.93273566 455.27098573 -637.43107227 464.93327367 -652 474.5 C-668.78479962 485.52224736 -685.47461684 496.67755005 -702.10351562 507.93359375 C-712.2524967 514.80335016 -722.42689505 521.6326896 -732.62915039 528.4230957 C-737.22129625 531.4797078 -741.80797687 534.54441209 -746.39280701 537.61198425 C-750.08542922 540.08248058 -753.7794955 542.55081294 -757.47363281 545.01904297 C-759.36087312 546.28063291 -761.24757247 547.54303236 -763.13378906 548.80615234 C-765.90548697 550.66195619 -768.67909872 552.51486651 -771.453125 554.3671875 C-772.3007843 554.93573456 -773.1484436 555.50428162 -774.02178955 556.09005737 C-775.18131134 556.86314743 -775.18131134 556.86314743 -776.36425781 557.65185547 C-777.04482239 558.10704559 -777.72538696 558.56223572 -778.42657471 559.03121948 C-780 560 -780 560 -781 560 C-781.27334724 554.59269451 -781.47212791 549.18945701 -781.60424805 543.77685547 C-781.65934131 541.93922865 -781.73424833 540.10207924 -781.82983398 538.26611328 C-782.59017682 523.27882075 -782.59017682 523.27882075 -779.20556641 518.4284668 C-776.86618611 516.69233299 -774.51356177 515.31892782 -771.91030884 514.01800537 C-768.89780569 512.41263962 -766.12121309 510.475793 -763.29386902 508.56802368 C-760.73573743 506.84276081 -758.15920273 505.14866702 -755.57617188 503.4609375 C-738.46436976 492.26689728 -721.43054524 480.96628755 -704.5 469.5 C-689.15606988 459.11108537 -673.72895978 448.85837585 -658.23974609 438.6875 C-644.59247662 429.72295137 -631.02102213 420.65375417 -617.5 411.5 C-602.15557842 401.1118014 -586.7289709 390.85838316 -571.23974609 380.6875 C-557.59247662 371.72295137 -544.02102213 362.65375417 -530.5 353.5 C-515.15557842 343.1118014 -499.7289709 332.85838316 -484.23974609 322.6875 C-470.59247662 313.72295137 -457.02102213 304.65375417 -443.5 295.5 C-428.15557842 285.1118014 -412.7289709 274.85838316 -397.23974609 264.6875 C-383.59247662 255.72295137 -370.02102213 246.65375417 -356.5 237.5 C-341.15557842 227.1118014 -325.7289709 216.85838316 -310.23974609 206.6875 C-296.59247662 197.72295137 -283.02102213 188.65375417 -269.5 179.5 C-254.15557842 169.1118014 -238.7289709 158.85838316 -223.23974609 148.6875 C-209.59247662 139.72295137 -196.02102213 130.65375417 -182.5 121.5 C-167.15557842 111.1118014 -151.7289709 100.85838316 -136.23974609 90.6875 C-122.59247336 81.72294923 -109.02115222 72.65356587 -95.5 63.5 C-78.96910605 52.30980105 -62.34417194 41.27079024 -45.66308594 30.3059082 C-43.86782404 29.12583586 -42.07257644 27.94574176 -40.27734375 26.765625 C-39.40723663 26.19369919 -38.53712952 25.62177338 -37.64065552 25.03251648 C-29.15474012 19.45102239 -20.69721527 13.82734914 -12.25 8.1875 C-11.60654633 7.75790985 -10.96309265 7.3283197 -10.30014038 6.88571167 C-6.8656227 4.59217327 -3.43221879 2.29697777 0 0 Z " fill="#C4C4B8" transform="translate(1221,1095)"/>
</svg>
