<?xml version="1.0" encoding="UTF-8"?>
<svg version="1.1" xmlns="http://www.w3.org/2000/svg" width="5000" height="5000">
<path d="M0 0 C1.27595032 0.06316406 2.55190063 0.12632813 3.86651611 0.19140625 C82.08726475 4.06391702 160.14801498 11.03691821 915.05773926 220.10083008 C918.15836126 221.53626353 921.263039 222.96283386 924.3671875 224.390625 C948.20241915 235.37465583 971.78428206 246.84728087 995.27355957 258.54916382 C997.34301338 259.57987861 999.41305839 260.60940745 1001.48376465 261.63760376 C1014.20140156 267.95706441 1026.75396403 274.51121297 1039.19360352 281.36181641 C1044.66627792 284.37530348 1050.19318536 287.26960643 1055.75 290.125 C1064.76632819 294.79860831 1073.67666246 299.62775569 1082.52539062 304.61035156 C1085.28866572 306.16210392 1088.05807123 307.70256968 1090.828125 309.2421875 C1105.32807117 317.31188116 1119.70372084 325.57520782 1134 334 C1135.09103027 334.64227539 1136.18206055 335.28455078 1137.30615234 335.94628906 C1198.57876963 372.045022 1258.51145828 410.41352365 1316.66552734 451.35644531 C1318.90728286 452.93472372 1321.15077662 454.51050302 1323.39453125 456.0859375 C1345.67490705 471.7493917 1367.63215953 487.84169949 1389.265625 504.38671875 C1392.88899788 507.15682284 1396.52908713 509.90140257 1400.1875 512.625 C1408.21851212 518.6282102 1416.10094923 524.8249554 1424 531 C1424.65887207 531.5141748 1425.31774414 532.02834961 1425.99658203 532.55810547 C1432.73405558 537.81700505 1439.42372767 543.12306791 1446.0234375 548.5546875 C1449.670616 551.55092601 1453.33501377 554.52559279 1457 557.5 C1459.04785213 559.16353607 1461.09548964 560.82733595 1463.14306641 562.49121094 C1464.76566368 563.80959789 1466.38865777 565.12749645 1468.01171875 566.4453125 C1473.45058202 570.87580258 1478.82466151 575.37566662 1484.16918945 579.91894531 C1487.53888745 582.77892853 1490.94048907 585.59274041 1494.375 588.375 C1500.71964111 593.54266421 1506.87632058 598.92008315 1513.04296875 604.29736328 C1514.99292902 605.99384818 1516.94852113 607.68358247 1518.90625 609.37109375 C1525.54938909 615.10022419 1532.12524464 620.88230134 1538.59375 626.80859375 C1540.68565123 628.71371809 1542.79963385 630.58439061 1544.9375 632.4375 C1548.88901053 635.86971551 1552.73516535 639.41383951 1556.58447266 642.95947266 C1559.29417909 645.45097058 1562.02242869 647.91145824 1564.8125 650.3125 C1569.39426738 654.28463513 1573.79591709 658.44899294 1578.21875 662.59594727 C1582.22092106 666.34698806 1586.25213789 670.06214817 1590.3125 673.75 C1594.83307082 677.8761586 1599.18644713 682.12790663 1603.453125 686.515625 C1605.4905484 688.50305028 1607.55210533 690.35884517 1609.70774841 692.21192932 C1613.7009623 695.69520576 1617.48323074 699.34152318 1621.22290039 703.09350586 C1621.89557449 703.76442764 1622.5682486 704.43534943 1623.26130676 705.12660217 C1625.45925905 707.32019382 1627.65358069 709.51737504 1629.84765625 711.71484375 C1631.38872443 713.25523723 1632.92994095 714.79548233 1634.47129822 716.33558655 C1637.69123297 719.55405216 1640.90936546 722.77430611 1644.1262207 725.99584961 C1648.23370154 730.10902723 1652.34565605 734.21769853 1656.4589777 738.32503414 C1659.6393634 741.50179304 1662.81734713 744.68094627 1665.994627 747.86081123 C1667.50923876 749.3760864 1669.02458352 750.89062926 1670.5406971 752.40440178 C1672.66506955 754.52621278 1674.78617326 756.65124085 1676.90649414 758.77709961 C1677.83171875 759.69928787 1677.83171875 759.69928787 1678.77563477 760.6401062 C1682.48988218 764.37219449 1686.00993743 768.22530172 1689.4404211 772.22011662 C1691.67974439 774.77576437 1694.06860608 777.12581535 1696.5 779.5 C1700.24655958 783.15840524 1703.72456522 786.94043614 1707.15234375 790.8984375 C1710.26088717 794.43415919 1713.50941792 797.83568133 1716.75 801.25 C1725.06263924 810.04715066 1733.34098807 818.86846241 1741.265625 828.01953125 C1743.27264538 830.31133155 1745.32402851 832.55996752 1747.375 834.8125 C1750.50422827 838.27530082 1753.50500349 841.80679003 1756.4375 845.4375 C1759.51336588 849.24087503 1762.68753166 852.90082652 1766 856.5 C1770.11378909 860.9698512 1773.97087297 865.59044893 1777.78515625 870.31640625 C1779.95632827 872.94708557 1782.20241357 875.47942424 1784.5 878 C1788.72684222 882.64879893 1792.70482292 887.46285841 1796.65576172 892.34667969 C1798.74425258 894.9153793 1800.85351727 897.4668444 1802.9609375 900.02001953 C1813.67514553 913.00046971 1824.31094463 926.03394405 1834.67041016 939.29980469 C1836.43079126 941.55086859 1838.19898245 943.79573621 1839.96704102 946.04077148 C1860.77819144 972.4785984 1881.1313123 999.22830288 1900.78515625 1026.5390625 C1902.93010804 1029.5194303 1905.08406408 1032.49293642 1907.24609375 1035.4609375 C1913.36212192 1043.86772291 1919.34120345 1052.35033756 1925.18432617 1060.94921875 C1928.83696207 1066.320059 1932.55193887 1071.64174859 1936.3125 1076.9375 C1940.58585839 1082.9645576 1944.75593629 1089.04480173 1948.81982422 1095.21582031 C1950.20703528 1097.31299417 1951.60504284 1099.40276787 1953.00390625 1101.4921875 C1982.67618582 1145.82774184 2011.02640981 1190.97370079 2038 1237 C2038.56283691 1237.95825684 2039.12567383 1238.91651367 2039.70556641 1239.90380859 C2048.28703423 1254.51885931 2056.73373679 1269.20429929 2065 1284 C2065.60537598 1285.08313477 2066.21075195 1286.16626953 2066.83447266 1287.28222656 C2077.49889068 1306.40104729 2087.82156006 1325.69251911 2097.99139404 1345.07849121 C2098.92140461 1346.85026686 2099.85343176 1348.6209836 2100.78564453 1350.39160156 C2117.13259933 1381.46575981 2133.02186188 1412.845915 2147.54492188 1444.81640625 C2149.05775904 1448.12637212 2150.59549728 1451.42374144 2152.140625 1454.71875 C2190.48267858 1536.50311213 2223.04465249 1620.92272463 2372.12734222 2337.47345352 C2372.24482234 2339.41445496 2372.3640995 2341.35534738 2372.48345947 2343.29623413 C2373.01312614 2352.0257786 2373.4720616 2360.75769036 2373.88218689 2369.49354172 C2373.96373373 2371.22843998 2374.04624615 2372.96329302 2374.12953186 2374.69810867 C2375.97530021 2413.29650728 2376.31712966 2451.83750585 2376.25713849 2490.46931183 C2376.24959789 2495.88654894 2376.25232239 2501.30371283 2376.26074219 2506.72094727 C2376.39866718 2597.86846596 2371.66942917 2688.71100565 2279 3205 C2278.46707934 3206.8329953 2277.93419985 3208.66600256 2277.40136719 3210.49902344 C2264.30599208 3255.43929458 2249.66729269 3299.8949363 2234 3344 C2233.73592346 3344.74388977 2233.47184692 3345.48777954 2233.19976807 3346.25421143 C2229.898399 3355.53990735 2226.49202979 3364.78431722 2223 3374 C2222.70841003 3374.76991272 2222.41682007 3375.53982544 2222.11639404 3376.33306885 C2201.10721535 3431.73849288 2178.31564253 3486.38272866 2153.27905273 3540.09326172 C2151.56893056 3543.76549482 2149.87786142 3547.4461235 2148.19165039 3551.12939453 C2140.28012132 3568.36252747 2131.97106857 3585.37308987 2123.46948242 3602.32177734 C2121.65903728 3605.93117403 2119.85598553 3609.54420904 2118.05472565 3613.15819645 C2111.28026724 3626.74342645 2104.50814038 3640.30449151 2096.96801758 3653.48657227 C2094.95226296 3657.02695375 2093.15588874 3660.64842944 2091.375 3664.3125 C2085.08233692 3677.13105176 2077.96382276 3689.53736995 2071 3702 C2070.12239014 3703.57104492 2070.12239014 3703.57104492 2069.22705078 3705.17382812 C2061.60896316 3718.78379589 2053.80319899 3732.28040089 2045.91259766 3745.73388672 C2044.22786705 3748.61087498 2042.54801279 3751.49060731 2040.87059021 3754.37185669 C2032.12923953 3769.38500239 2023.25768975 3784.29731125 2014 3799 C2013.49662109 3799.80050781 2012.99324219 3800.60101562 2012.47460938 3801.42578125 C2009.48231499 3806.1811862 2006.47854831 3810.92922549 2003.47070312 3815.67480469 C2002.01216619 3817.98076514 2000.55980319 3820.29049459 1999.109375 3822.6015625 C1988.84152631 3838.94812919 1978.31471462 3855.12926967 1967.56640625 3871.1640625 C1965.64730738 3874.02714234 1963.74140521 3876.8986806 1961.83984375 3879.7734375 C1954.98871831 3890.11683193 1948.01581071 3900.36382099 1940.90527344 3910.53076172 C1937.15232604 3915.89771345 1933.43591045 3921.28602833 1929.76293945 3926.70800781 C1924.8272578 3933.9912465 1919.73986378 3941.0610071 1914.3125 3947.984375 C1912.02208705 3950.97119729 1909.87354133 3954.01775938 1907.75 3957.125 C1898.43194256 3970.74875593 1888.3822886 3983.87132313 1878.45898438 3997.05712891 C1876.99434562 3999.00752971 1875.53543134 4000.96208464 1874.078125 4002.91796875 C1867.59312316 4011.61337572 1860.98602265 4020.20546676 1854.30859375 4028.75390625 C1851.49353923 4032.35926424 1848.71140021 4035.9879088 1845.9375 4039.625 C1841.69059675 4045.15989849 1837.30953233 4050.57581466 1832.89526367 4055.9777832 C1829.29765791 4060.38534058 1825.75256925 4064.82911223 1822.25 4069.3125 C1817.58543653 4075.28006552 1812.81574515 4081.1535468 1808 4087 C1806.54155659 4088.79157706 1805.08322483 4090.58324502 1803.625 4092.375 C1799.82895506 4097.01754973 1795.96604477 4101.59917048 1792.08203125 4106.16796875 C1789.2217818 4109.5381234 1786.40758766 4112.9400841 1783.625 4116.375 C1778.98380567 4122.07514776 1774.16726107 4127.61420627 1769.33984375 4133.15625 C1766.11945263 4136.85487997 1762.93304005 4140.58173568 1759.75 4144.3125 C1755.57493177 4149.19904226 1751.33044795 4154.01275576 1747.01171875 4158.7734375 C1745.15265331 4160.83104391 1743.32071642 4162.90846763 1741.5 4165 C1736.62856797 4170.58979989 1731.6410485 4176.07534898 1726.671875 4181.578125 C1723.31574095 4185.29955255 1719.96775821 4189.02392091 1716.6875 4192.8125 C1708.01342648 4202.75691838 1698.86904743 4212.30096791 1689.83203125 4221.9140625 C1687.36027806 4224.54486112 1684.89945103 4227.18508948 1682.44921875 4229.8359375 C1674.27944046 4238.65184957 1665.87787101 4247.20297782 1657.31982422 4255.64331055 C1652.87225068 4260.0465182 1648.58550217 4264.50363152 1644.51025391 4269.25390625 C1642.48892382 4271.59088536 1640.36242284 4273.8060323 1638.1875 4276 C1637.43855469 4276.763125 1636.68960938 4277.52625 1635.91796875 4278.3125 C1634 4280 1634 4280 1632 4280 C1631.63624268 4280.87035889 1631.63624268 4280.87035889 1631.26513672 4281.75830078 C1629.76427123 4284.41768845 1628.08367012 4285.88840086 1625.7578125 4287.8671875 C1621.40573724 4291.68756833 1617.26055057 4295.64940926 1613.1796875 4299.7578125 C1612.58585266 4300.35495056 1611.99201782 4300.95208862 1611.38018799 4301.56732178 C1609.54313254 4303.41791893 1607.70863171 4305.27101077 1605.875 4307.125 C1591.85049992 4321.30430402 1591.85049992 4321.30430402 1585.66845703 4326.55419922 C1582.96825241 4328.89406047 1580.49291532 4331.4434899 1578 4334 C1565.81091371 4346.32392132 1565.81091371 4346.32392132 1560 4349 C1560 4349.66 1560 4350.32 1560 4351 C1558.77734375 4352.234375 1558.77734375 4352.234375 1556.9375 4353.75 C1552.71953985 4357.32479602 1548.70428775 4361.07873188 1544.6875 4364.875 C1539.55792191 4369.70324697 1534.31726013 4374.26468248 1528.80859375 4378.66015625 C1525.41762122 4381.48518065 1522.21213573 4384.4750547 1519 4387.5 C1514.02061472 4392.18763234 1508.91818819 4396.61232876 1503.578125 4400.890625 C1500.9757371 4403.01985146 1498.48424498 4405.23449357 1496 4407.5 C1491.7992051 4411.32489959 1487.45618531 4414.92116145 1483.0390625 4418.4921875 C1479.52942315 4421.38831663 1476.10975866 4424.37674574 1472.6875 4427.375 C1467.38402282 4432.00859248 1461.97802946 4436.45319945 1456.41088867 4440.76513672 C1451.69948697 4444.42231702 1447.09177126 4448.19402216 1442.5 4452 C1435.64555056 4457.67423857 1428.70542377 4463.22075986 1421.68408203 4468.68652344 C1419.43730009 4470.43887003 1417.19913412 4472.20204145 1414.9609375 4473.96533203 C1412.61556611 4475.81204426 1410.26673661 4477.65432712 1407.91748047 4479.49609375 C1406.59036295 4480.53697024 1405.26390911 4481.57869328 1403.93798828 4482.62109375 C1394.81557527 4489.7882606 1385.61344849 4496.8225107 1376.25170898 4503.67456055 C1370.42164101 4507.94224884 1364.64225891 4512.27292746 1358.875 4516.625 C1351.41877722 4522.240189 1343.86294072 4527.68534878 1336.21484375 4533.03515625 C1331.75244217 4536.16082157 1327.34520976 4539.36040219 1322.9375 4542.5625 C1315.40749894 4548.02112589 1307.78820795 4553.33250833 1300.10107422 4558.56689453 C1297.86736704 4560.09046659 1295.63837797 4561.62076147 1293.41015625 4563.15234375 C1267.75586189 4580.77565977 1241.79666559 4598.01784819 1215.39355469 4614.50146484 C1212.80142271 4616.12432348 1210.21693819 4617.75895648 1207.6328125 4619.39453125 C1192.0756645 4629.21416914 1176.29246547 4638.62866859 1160.44482422 4647.96923828 C1157.66061075 4649.61056271 1154.8783181 4651.25501501 1152.09765625 4652.90234375 C1148.07372487 4655.28310201 1144.03995898 4657.64654976 1140 4660 C1138.62328125 4660.80219971 1138.62328125 4660.80219971 1137.21875 4661.62060547 C1120.59519738 4671.29205692 1103.85559016 4680.7390775 1087 4690 C1085.99259766 4690.55397461 1084.98519531 4691.10794922 1083.94726562 4691.67871094 C1070.25948631 4699.19029715 1056.44586709 4706.43876419 1042.56373596 4713.58215332 C1037.34093095 4716.26983485 1032.13081956 4718.97711202 1026.94677734 4721.73876953 C1004.78942785 4733.53473207 982.23950566 4744.5719772 959.42578125 4755.03515625 C954.49222366 4757.29975205 949.59422911 4759.62735484 944.71069336 4761.99755859 C896.21858085 4785.52079718 846.01146985 4806.08444201 795.76904297 4825.53808594 C793.09151785 4826.57516116 790.4164638 4827.61836688 787.74267578 4828.66503906 C764.12525529 4837.90800595 740.36718871 4846.68450062 716.42080688 4855.03923035 C710.85905605 4856.9833146 705.31539346 4858.97049848 699.78283691 4860.99610901 C657.38229863 4876.49461953 606.80703277 4885.44739555 563.83984375 4866.1796875 C536.21087685 4853.21739096 516.63860556 4829.24843485 505.40625 4801.16015625 C502.92422331 4794.19080692 501.25229292 4787.10929635 499.75 4779.875 C499.5864502 4779.08810791 499.42290039 4778.30121582 499.25439453 4777.49047852 C497.12567327 4766.44816297 496.85111487 4755.27151627 496.86692142 4744.05619812 C496.8646784 4742.8147053 496.86243537 4741.57321249 496.86012438 4740.29409868 C496.85492529 4736.8725657 496.85411073 4733.45108424 496.85519732 4730.02955103 C496.85527045 4726.29741937 496.84953934 4722.56529573 496.84455246 4718.83316803 C496.83660232 4712.29948071 496.83227043 4705.76579892 496.83033562 4699.23210716 C496.82742836 4689.51485128 496.81879551 4679.79760634 496.8089225 4670.08035532 C496.79242433 4653.7228429 496.78022885 4637.36533004 496.77020454 4621.0078125 C496.75576144 4597.60886735 496.73299762 4574.20993424 496.70853943 4550.81099769 C496.69874974 4541.41034508 496.68922825 4532.0096922 496.67970943 4522.60903931 C496.67865067 4521.56460044 496.6775919 4520.52016157 496.67650105 4519.44407304 C496.65135672 4494.58950754 496.62886071 4469.73493983 496.60717773 4444.88037109 C496.6062273 4443.79316701 496.60527686 4442.70596292 496.60429762 4441.58581325 C496.58216991 4416.24847381 496.56129662 4390.91113372 496.54260254 4365.5737915 C496.54179879 4364.48568156 496.54099504 4363.39757162 496.54016693 4362.27648865 C496.53611638 4356.79018803 496.53207476 4351.30388741 496.52803367 4345.81758678 C496.52723468 4344.73335278 496.52643569 4343.64911877 496.52561248 4342.5320292 C496.52400018 4340.3436324 496.52238935 4338.15523559 496.52078002 4335.96683879 C496.49408691 4299.72558356 496.46068325 4263.48433924 496.42000187 4227.24309693 C496.41425291 4222.11328745 496.40859414 4216.98347787 496.40299797 4211.85366821 C496.40189617 4210.84421807 496.40079436 4209.83476792 496.39965917 4208.79472838 C496.38222656 4192.61900586 496.37200938 4176.44328661 496.36474552 4160.26755666 C496.35731367 4143.97283497 496.34283405 4127.67813172 496.32131977 4111.38342243 C496.30989163 4102.5728834 496.3015761 4093.76236944 496.30232811 4084.95182228 C496.43490669 4035.93797537 496.43490669 4035.93797537 494 3987 C493.87698554 3985.39233293 493.87698554 3985.39233293 493.75148594 3983.75218773 C493.30357785 3977.97181165 492.78489318 3972.20427867 492.1875 3966.4375 C492.10318726 3965.60355713 492.01887451 3964.76961426 491.93200684 3963.91040039 C485.64464586 3901.95194777 473.63025352 3840.2011574 451 3782 C450.64921387 3781.09636719 450.29842773 3780.19273437 449.93701172 3779.26171875 C430.53463514 3729.87071117 403.76748732 3684.14396461 369 3644 C368.46576416 3643.38181396 367.93152832 3642.76362793 367.38110352 3642.12670898 C356.53123667 3629.64103018 345.28392583 3617.02978481 332.33300781 3606.66601562 C330.85683839 3605.48266155 329.42459931 3604.24495776 328 3603 C328 3602.34 328 3601.68 328 3601 C328.89794281 3600.89177162 328.89794281 3600.89177162 329.81402588 3600.78135681 C406.24730328 3591.56023337 482.56426383 3581.60228585 558 3566 C559.08873413 3565.77503845 560.17746826 3565.5500769 561.29919434 3565.31829834 C651.84564425 3546.54735696 740.00179099 3521.57816609 844 3477 C844.69770508 3476.68820801 845.39541016 3476.37641602 846.11425781 3476.05517578 C867.33542775 3466.55948838 888.26285325 3456.51041757 909.0625 3446.125 C910.0980603 3445.60901245 911.13362061 3445.0930249 912.20056152 3444.56140137 C925.84809057 3437.75039763 939.3165784 3430.66660425 952.66586304 3423.28845215 C954.70802031 3422.16117386 956.75345204 3421.04040908 958.80200195 3419.92480469 C975.07685985 3411.05976668 990.99105056 3401.71869708 1006.76269531 3391.99414062 C1009.79227508 3390.12795605 1012.82848091 3388.27314855 1015.8671875 3386.421875 C1025.8190583 3380.33963467 1035.54861553 3374.03123267 1045.09375 3367.32958984 C1047.01093409 3365.99237359 1048.94026653 3364.67495673 1050.875 3363.36328125 C1066.36973715 3352.84837564 1081.37434951 3341.6906131 1096 3330 C1097.26944267 3328.98947205 1098.53897665 3327.97905879 1099.80859375 3326.96875 C1103.54747713 3323.98959192 1107.27582098 3320.99750995 1111 3318 C1112.41732422 3316.86111328 1112.41732422 3316.86111328 1113.86328125 3315.69921875 C1125.27061587 3306.45505277 1136.2808818 3296.77142563 1147.01953125 3286.76171875 C1149.64283136 3284.31927815 1152.31455337 3281.9365905 1155 3279.5625 C1160.74735495 3274.41715931 1166.14878754 3268.93334968 1171.56835938 3263.44799805 C1175.22731501 3259.74723647 1178.92325994 3256.08374304 1182.6171875 3252.41796875 C1184.3698604 3250.67454827 1186.12246256 3248.93105665 1187.875 3247.1875 C1188.74769531 3246.32318359 1189.62039062 3245.45886719 1190.51953125 3244.56835938 C1194.99152706 3240.11317558 1199.32110688 3235.60760034 1203.43115234 3230.81616211 C1205.83475437 3228.03365425 1208.36012851 3225.3690145 1210.875 3222.6875 C1215.28226211 3217.94500684 1219.49064391 3213.09950345 1223.54296875 3208.046875 C1225.39945546 3205.74471342 1227.27495624 3203.46817659 1229.17578125 3201.203125 C1237.27140497 3191.53300259 1244.89260877 3181.59765522 1252.27978516 3171.37744141 C1253.98497031 3169.02077195 1255.7002911 3166.67179369 1257.41796875 3164.32421875 C1272.04603538 3144.2808725 1285.46783864 3123.4155239 1298 3102 C1298.4321582 3101.26185059 1298.86431641 3100.52370117 1299.30957031 3099.76318359 C1331.80285815 3044.03914134 1357.95725707 2985.5047762 1380.24664307 2925.04260254 C1380.94670507 2923.14450037 1381.64974394 2921.24749687 1382.35302734 2919.35058594 C1407.46651498 2851.38262056 1426.31490311 2781.12342819 1440 2710 C1440.19315796 2708.99638428 1440.38631592 2707.99276855 1440.58532715 2706.95874023 C1451.1636952 2651.70953593 1457.97531486 2596.0076712 1463 2540 C1463.08487671 2539.06291199 1463.16975342 2538.12582397 1463.25720215 2537.16033936 C1464.37356427 2524.78498695 1465.2705778 2512.40404765 1466 2500 C1466.06338562 2498.92600952 1466.12677124 2497.85201904 1466.19207764 2496.7454834 C1471.20353623 2410.76163632 1472.49512293 2324.30257398 1371 1925 C1370.47937988 1923.93152832 1369.95875977 1922.86305664 1369.42236328 1921.76220703 C1361.81675684 1906.18331661 1353.72641771 1890.97899929 1345 1876 C1344.18764893 1874.60007812 1344.18764893 1874.60007812 1343.35888672 1873.171875 C1332.22317243 1854.01593286 1320.41234178 1835.35196423 1308 1817 C1307.54802246 1816.32904297 1307.09604492 1815.65808594 1306.63037109 1814.96679688 C1299.59546412 1804.53900487 1292.22328513 1794.38050843 1284.70800781 1784.29443359 C1283.09954686 1782.13372519 1281.49820671 1779.96792842 1279.8984375 1777.80078125 C1273.32239101 1768.92397979 1266.4772492 1760.3002086 1259.45605469 1751.77197266 C1258.16496651 1750.20075905 1256.88261416 1748.62237609 1255.6015625 1747.04296875 C1250.0411497 1740.18780278 1244.31037223 1733.48806515 1238.54833984 1726.80273438 C1237.02159309 1725.02514087 1235.50358292 1723.24047985 1233.98828125 1721.453125 C1227.18878064 1713.44556316 1220.18212839 1705.66603066 1213 1698 C1215.06268453 1691.64175792 1217.32663983 1685.38021861 1219.66674805 1679.11914062 C1229.59873026 1652.47634208 1238.09937516 1625.59887318 1245 1598 C1245.30534668 1596.78521973 1245.61069336 1595.57043945 1245.92529297 1594.31884766 C1259.10026545 1541.38683061 1266.03568682 1486.53191006 1267 1432 C1267.02191406 1430.80858398 1267.04382812 1429.61716797 1267.06640625 1428.38964844 C1268.23543342 1352.50030125 1258.55453148 1276.76605409 1241 1203 C1240.68698163 1201.67237037 1240.37399474 1200.34473333 1240.06103516 1199.01708984 C1231.39368947 1162.40319213 1220.24572148 1126.56247244 1208 1091 C1207.7454303 1090.26033997 1207.4908606 1089.52067993 1207.22857666 1088.75860596 C1203.80779164 1078.82715217 1203.80779164 1078.82715217 1200.26928711 1068.93725586 C1199.76804999 1067.56234322 1199.26682903 1066.1874247 1198.765625 1064.8125 C1198.5230043 1064.14823502 1198.28038361 1063.48397003 1198.03041077 1062.79957581 C1196.50005277 1058.55409084 1195.19447445 1054.28791889 1193.984375 1049.9375 C1191.39553046 1040.05250596 1191.39553046 1040.05250596 1184.91992188 1032.61767578 C1179.71034644 1030.37841589 1174.38576382 1029.73275268 1168.7734375 1029.26220703 C1166.19844452 1029.01876139 1163.75048733 1028.60832246 1161.21875 1028.08984375 C1133.33156036 1022.70508198 1101.90120986 1024.7448712 1074 1029 C1072.73478516 1029.18804199 1071.46957031 1029.37608398 1070.16601562 1029.56982422 C985.34478008 1042.37849375 903.95738887 1076.01819264 801.30484009 1120.97592163 C798.89438442 1122.04692674 796.48194276 1123.11335811 794.0690918 1124.17895508 C793.26058777 1124.53661453 792.45208374 1124.89427399 791.61907959 1125.26277161 C790.0908669 1125.93880103 788.5622141 1126.61383689 787.03302002 1127.28764343 C781.56309574 1129.71104721 776.22766037 1132.33850415 770.89453125 1135.05078125 C766.1377613 1137.45360813 761.31456552 1139.71594572 756.5 1142 C735.60903297 1151.95157009 714.94430407 1162.28182686 694.70703125 1173.50976562 C691.86706779 1175.07317985 689.01404625 1176.61006614 686.15625 1178.140625 C671.90916347 1185.77373728 657.90098985 1193.75429994 644 1202 C643.11296387 1202.52480957 642.22592773 1203.04961914 641.31201172 1203.59033203 C629.87034962 1210.36842514 618.57646399 1217.35794873 607.35888672 1224.5 C603.4120811 1227.00974681 599.45554988 1229.50406712 595.5 1232 C593.91662026 1232.99992652 592.33328692 1233.99992651 590.75 1235 C574.91666667 1245 559.08333333 1255 543.25 1265 C542.46536377 1265.49556396 541.68072754 1265.99112793 540.87231445 1266.50170898 C539.29794843 1267.49603689 537.72356706 1268.4903405 536.14916992 1269.48461914 C532.05350691 1272.07119733 527.95815658 1274.65826871 523.86328125 1277.24609375 C523.01765625 1277.78041016 522.17203125 1278.31472656 521.30078125 1278.86523438 C519.69781651 1279.87809671 518.09494467 1280.89110611 516.4921875 1281.90429688 C515.03191823 1282.82690988 513.56669083 1283.74173041 512.09619141 1284.64794922 C509.97909751 1285.97121254 509.97909751 1285.97121254 508.02490234 1287.52783203 C503.23040529 1291.07900019 503.23040529 1291.07900019 499.7988739 1290.8586731 C499.01663956 1290.67472992 498.23440521 1290.49078674 497.4284668 1290.30126953 C496.54739761 1290.09915359 495.66632843 1289.89703766 494.75856018 1289.688797 C493.84823532 1289.46149399 492.93791046 1289.23419098 492 1289 C490.69983192 1288.68158394 490.69983192 1288.68158394 489.37339783 1288.35673523 C486.59996862 1287.6607431 483.83488018 1286.9374016 481.0703125 1286.20703125 C480.05076477 1285.94027084 479.03121704 1285.67351044 477.98077393 1285.39866638 C475.81360352 1284.83149896 473.64673959 1284.26315936 471.48016357 1283.69372559 C465.81686197 1282.20627314 460.15042843 1280.73083476 454.484375 1279.25390625 C453.37891327 1278.96554901 452.27345154 1278.67719177 451.13449097 1278.38009644 C373.08824841 1258.02612362 293.79995312 1242.61010117 214 1231 C213.07108948 1230.86398376 212.14217896 1230.72796753 211.18511963 1230.58782959 C119.96605972 1217.23904762 27.71050069 1209.67531486 -67.0625 1207.4375 C-68.43474731 1207.40623016 -68.43474731 1207.40623016 -69.8347168 1207.37432861 C-163.8084759 1205.31614689 -258.04150232 1208.54111135 -374 1220 C-375.05431213 1220.11172546 -376.10862427 1220.22345093 -377.19488525 1220.33856201 C-465.56144486 1229.75045478 -553.35527636 1244.22886227 -640 1264 C-641.20299744 1264.27366394 -641.20299744 1264.27366394 -642.43029785 1264.55285645 C-663.28271073 1269.30191297 -684.02468209 1274.4762828 -704.75 1279.75 C-705.82978119 1280.0245401 -706.90956238 1280.2990802 -708.02206421 1280.5819397 C-711.15602315 1281.38008774 -714.2891753 1282.18129957 -717.421875 1282.984375 C-718.41355179 1283.23809372 -719.40522858 1283.49181244 -720.42695618 1283.7532196 C-725.0938025 1284.95643586 -729.7433881 1286.19740695 -734.37304688 1287.53710938 C-735.61843231 1287.89582123 -735.61843231 1287.89582123 -736.88897705 1288.26177979 C-738.42322599 1288.70807881 -739.95500549 1289.16299914 -741.48358154 1289.62835693 C-747.78543166 1291.46649864 -747.78543166 1291.46649864 -751 1290 C-753.01082021 1288.8162409 -754.98162378 1287.56376119 -756.92578125 1286.2734375 C-757.50137283 1285.8938237 -758.07696442 1285.5142099 -758.66999817 1285.12309265 C-760.55426487 1283.87883278 -762.43327428 1282.62685728 -764.3125 1281.375 C-765.62376934 1280.50775155 -766.93545993 1279.6411397 -768.24755859 1278.77514648 C-770.90405672 1277.02120949 -773.55890531 1275.26482145 -776.21240234 1273.50634766 C-781.50218354 1270.0030079 -786.81086277 1266.5287595 -792.125 1263.0625 C-793.05642822 1262.4547876 -793.98785645 1261.8470752 -794.94750977 1261.22094727 C-803.15738645 1255.87607747 -811.43122019 1250.63669191 -819.72900391 1245.4296875 C-821.96344637 1244.02301205 -824.19164551 1242.60698438 -826.41796875 1241.1875 C-839.9011451 1232.601418 -853.56354851 1224.31514015 -867.2489624 1216.05712891 C-868.95253917 1215.02865285 -870.65523748 1213.99872213 -872.35791016 1212.96875 C-892.0626282 1201.05193237 -911.91725449 1189.56025368 -932.25 1178.75 C-932.95567108 1178.3735434 -933.66134216 1177.99708679 -934.38839722 1177.60922241 C-943.52791744 1172.7410135 -952.75688312 1168.14894701 -962.15600586 1163.80249023 C-965.91925213 1162.05549693 -969.61606848 1160.19668562 -973.3125 1158.3125 C-1022.5234954 1133.4934755 -1073.96325482 1112.70614958 -1125 1092 C-1125.68366638 1091.72240845 -1126.36733276 1091.44481689 -1127.07171631 1091.15881348 C-1136.36115936 1087.38850108 -1145.67085587 1083.67109053 -1155 1080 C-1155.64163086 1079.74688049 -1156.28326172 1079.49376099 -1156.94433594 1079.23297119 C-1201.48395754 1061.67038814 -1247.03261362 1045.69144642 -1294 1036 C-1295.62252686 1035.66427979 -1295.62252686 1035.66427979 -1297.27783203 1035.32177734 C-1340.07252366 1026.5732778 -1384.8338126 1021.09074363 -1427.85375977 1031.53442383 C-1430 1032 -1430 1032 -1432.17553711 1032.19018555 C-1434.47778464 1032.47445002 -1435.99632595 1032.81861079 -1438 1034 C-1440.26427088 1037.34512208 -1441.41827927 1040.99858549 -1442.6875 1044.8125 C-1443.09629395 1045.95686523 -1443.50508789 1047.10123047 -1443.92626953 1048.28027344 C-1444.82681722 1050.81467673 -1445.71417847 1053.35038219 -1446.58447266 1055.89501953 C-1448.04470025 1060.15419788 -1449.57321314 1064.38740678 -1451.10546875 1068.62109375 C-1462.98016879 1101.57452086 -1473.42941421 1134.95561573 -1482.41790771 1168.80957031 C-1482.99000526 1170.96238952 -1483.5663674 1173.11403458 -1484.14306641 1175.265625 C-1499.87498694 1234.21335651 -1510.116238 1295.09260113 -1514 1356 C-1514.13027588 1357.8260376 -1514.13027588 1357.8260376 -1514.26318359 1359.68896484 C-1515.38091951 1376.64014844 -1515.24582367 1393.64489427 -1515.25 1410.625 C-1515.25044186 1411.44830559 -1515.25088371 1412.27161118 -1515.25133896 1413.11986542 C-1515.25835154 1438.06803589 -1514.97998049 1462.86597077 -1512.25323486 1487.69207764 C-1511.98857972 1490.10408171 -1511.73400506 1492.51703059 -1511.47998047 1494.93017578 C-1508.85731855 1519.50397772 -1504.96115974 1543.79298447 -1500 1568 C-1499.85067017 1568.7307373 -1499.70134033 1569.46147461 -1499.54748535 1570.21435547 C-1493.0719705 1601.72371409 -1484.08159246 1632.56984955 -1473.6875 1663 C-1473.33262512 1664.04256958 -1473.33262512 1664.04256958 -1472.97058105 1665.10620117 C-1470.83041915 1671.36090761 -1468.64944968 1677.5650116 -1466.01806641 1683.6328125 C-1465.68627884 1684.40351074 -1465.35449127 1685.17420898 -1465.01264954 1685.96826172 C-1464.36422122 1687.45805777 -1463.70184295 1688.94188112 -1463.02384949 1690.41845703 C-1460.84071474 1695.42142883 -1460.84071474 1695.42142883 -1461.62744141 1698.27905273 C-1463.01549928 1700.01943338 -1464.39475059 1701.68277391 -1465.94140625 1703.28515625 C-1466.52059814 1703.89270752 -1467.09979004 1704.50025879 -1467.6965332 1705.1262207 C-1468.62018677 1706.08467896 -1468.62018677 1706.08467896 -1469.5625 1707.0625 C-1474.59842231 1712.3655323 -1479.35985189 1717.74328971 -1483.92578125 1723.45703125 C-1486.04087596 1726.05011347 -1488.24518096 1728.527849 -1490.5 1731 C-1495.20408144 1736.17530203 -1499.61992659 1741.54939747 -1504 1747 C-1504.4630957 1747.57411621 -1504.92619141 1748.14823242 -1505.40332031 1748.73974609 C-1547.75287707 1801.25040112 -1584.69440778 1857.61400222 -1615.33300781 1917.73339844 C-1616.88668673 1920.77795379 -1618.45400067 1923.81511089 -1620.0234375 1926.8515625 C-1648.60435398 1982.57695268 -1669.4838096 2042.3162216 -1685.4119873 2102.7769165 C-1685.94816254 2104.80401954 -1686.49360744 2106.82866495 -1687.04003906 2108.85302734 C-1714.04177806 2208.93402971 -1719.75522689 2313.76500315 -1710 2551 C-1709.91361267 2551.98867065 -1709.82722534 2552.97734131 -1709.73822021 2553.99597168 C-1701.51206658 2647.8277678 -1685.45127391 2742.03409739 -1654 2847 C-1653.71983032 2847.88502197 -1653.43966064 2848.77004395 -1653.15100098 2849.68188477 C-1633.59152452 2911.36642972 -1611.08385767 2971.71069606 -1583.32080078 3030.20703125 C-1582.12497083 3032.73573636 -1580.94635454 3035.27131241 -1579.77734375 3037.8125 C-1547.39174249 3108.06009981 -1503.07944063 3174.43552269 -1451.1171875 3231.66796875 C-1449.74009159 3233.18480687 -1448.36989217 3234.70794468 -1447.0078125 3236.23828125 C-1436.67065363 3247.84320488 -1425.96857878 3259.11634559 -1415 3270.125 C-1414.31873047 3270.81086182 -1413.63746094 3271.49672363 -1412.93554688 3272.20336914 C-1409.0780269 3276.04910539 -1405.11025136 3279.70021602 -1400.98681641 3283.25830078 C-1397.63001488 3286.20096754 -1394.42075345 3289.29810423 -1391.1875 3292.375 C-1385.78568515 3297.48096238 -1380.31128023 3302.33733848 -1374.49609375 3306.96875 C-1371.97276669 3309.02216169 -1369.58067727 3311.17188057 -1367.1875 3313.375 C-1361.62793016 3318.43394507 -1355.73373489 3323.01001203 -1349.79248047 3327.60595703 C-1348.07251723 3328.9436021 -1346.36427159 3330.29458922 -1344.66015625 3331.65234375 C-1292.97368367 3372.78761537 -1236.21888924 3406.09975596 -1178 3437 C-1177.06833008 3437.4954834 -1176.13666016 3437.9909668 -1175.17675781 3438.50146484 C-1172.70268815 3439.81636474 -1170.22690241 3441.12794529 -1167.75 3442.4375 C-1166.75347412 3442.96585449 -1166.75347412 3442.96585449 -1165.73681641 3443.50488281 C-1121.91991233 3466.56191256 -1076.24840801 3486.39341718 -1030 3504 C-1029.33156067 3504.25483154 -1028.66312134 3504.50966309 -1027.97442627 3504.7722168 C-942.81522875 3537.1849991 -854.11438225 3558.2511046 -746.45910645 3577.5916748 C-743.7228559 3578.04601871 -740.98787024 3578.50756368 -738.25292969 3578.96972656 C-688.02327419 3587.43941818 -637.48652918 3594.58616033 -586.79321289 3599.66210938 C-584.15594546 3599.98113552 -581.59566342 3600.43980631 -579 3601 C-583.41016804 3606.29220165 -588.08623024 3611.17575236 -593 3616 C-593.69867187 3616.73863281 -594.39734375 3617.47726563 -595.1171875 3618.23828125 C-597 3620 -597 3620 -599 3620 C-599.33837891 3620.83337891 -599.33837891 3620.83337891 -599.68359375 3621.68359375 C-601.38894414 3624.68440319 -603.56706316 3626.67937537 -606.0625 3629.0625 C-610.64517216 3633.52653179 -614.77184901 3638.18884947 -618.76171875 3643.19921875 C-621.07876141 3646.09855485 -623.47125713 3648.92228988 -625.875 3651.75 C-672.05078821 3707.18944942 -701.69372895 3775.75453994 -720 3845 C-720.24669434 3845.91185059 -720.49338867 3846.82370117 -720.74755859 3847.76318359 C-728.269526 3875.65109075 -733.75300452 3904.29232895 -737.64624023 3932.9074707 C-738 3935 -738 3935 -739 3938 C-741.10009766 3939.25170898 -741.10009766 3939.25170898 -743.9140625 3940.49609375 C-744.96835449 3940.96595703 -746.02264648 3941.43582031 -747.10888672 3941.91992188 C-748.2692041 3942.42072266 -749.42952148 3942.92152344 -750.625 3943.4375 C-751.22411194 3943.69877686 -751.82322388 3943.96005371 -752.44049072 3944.22924805 C-813.07124296 3970.66320953 -876.42600294 3987.72987747 -942.05609131 3995.75970459 C-943.8567649 3995.98229406 -945.65622952 3996.21460541 -947.45556641 3996.44775391 C-955.62084939 3997.50137875 -963.79550593 3998.32058057 -972 3999 C-973.2016983 3999.10021454 -973.2016983 3999.10021454 -974.42767334 3999.20245361 C-1002.31758516 4001.49034681 -1030.17039728 4002.31144232 -1058.1421051 4002.36880875 C-1060.46240534 4002.37490129 -1062.78263098 4002.38614056 -1065.10290527 4002.39852905 C-1156.45299521 4002.82417167 -1242.68750089 3968.45494384 -1314 3912 C-1314.67595215 3911.46536133 -1315.3519043 3910.93072266 -1316.04833984 3910.37988281 C-1323.50372056 3904.45473574 -1330.82285299 3898.41954233 -1337.83984375 3891.9765625 C-1339.88115416 3890.10874502 -1341.96188623 3888.30052609 -1344.0625 3886.5 C-1347.91017175 3883.16065887 -1351.46892473 3879.56912342 -1355.01953125 3875.91796875 C-1357.04935277 3873.83682933 -1357.04935277 3873.83682933 -1360 3872 C-1360 3871.34 -1360 3870.68 -1360 3870 C-1360.66 3870 -1361.32 3870 -1362 3870 C-1363.375 3868.6015625 -1363.375 3868.6015625 -1365 3866.625 C-1367.86045355 3863.25204852 -1370.84869661 3860.10326523 -1374 3857 C-1378.21685089 3852.82113876 -1382.15268112 3848.51675236 -1386 3844 C-1386.87926737 3842.99526951 -1387.75956223 3841.9914377 -1388.640625 3840.98828125 C-1395.97696657 3832.59216422 -1402.79856652 3823.87459994 -1409.50537109 3814.97070312 C-1410.83871953 3813.21265207 -1412.18784004 3811.46951855 -1413.55078125 3809.734375 C-1418.63127862 3803.24863368 -1423.45485009 3796.61779089 -1428.1875 3789.875 C-1428.75782959 3789.06377686 -1429.32815918 3788.25255371 -1429.91577148 3787.41674805 C-1434.11932556 3781.38503362 -1438.08847216 3775.22413574 -1442 3769 C-1442.58740967 3768.07171387 -1443.17481934 3767.14342773 -1443.7800293 3766.18701172 C-1450.25284098 3755.95179586 -1456.68223966 3745.70556946 -1462.6875 3735.1875 C-1471.3838906 3719.97525345 -1480.89186994 3705.3091312 -1491 3691 C-1491.52239258 3690.25830566 -1492.04478516 3689.51661133 -1492.58300781 3688.75244141 C-1498.66022208 3680.14937368 -1504.83151367 3671.7351885 -1511.67578125 3663.72265625 C-1513.98217853 3661.02087657 -1516.21223782 3658.26877755 -1518.4375 3655.5 C-1522.51958288 3650.49312666 -1526.82552267 3645.7443713 -1531.2265625 3641.01953125 C-1533.26785753 3638.82322918 -1535.23129219 3636.57249864 -1537.18359375 3634.296875 C-1541.70154548 3629.11339801 -1546.5669926 3624.28723764 -1551.4375 3619.4375 C-1552.34048828 3618.53064453 -1553.24347656 3617.62378906 -1554.17382812 3616.68945312 C-1559.28812706 3611.58256085 -1564.50290725 3606.68995405 -1570 3602 C-1571.19161811 3600.95484859 -1572.38174551 3599.9079949 -1573.5703125 3598.859375 C-1628.52302587 3550.6791378 -1696.506391 3508.25296508 -1766.4375 3486.625 C-1767.15647461 3486.3983667 -1767.87544922 3486.1717334 -1768.61621094 3485.93823242 C-1776.59103391 3483.5768678 -1784.80933225 3482.35552571 -1793 3481 C-1794.41845718 3480.76234924 -1794.41845718 3480.76234924 -1795.86557007 3480.51989746 C-1834.21240413 3473.69130835 -1834.21240413 3473.69130835 -1873 3473 C-1875.1145368 3473.11285449 -1877.22912172 3473.22481032 -1879.34375 3473.3359375 C-1904.8842679 3474.87050261 -1935.57616118 3477.44679352 -1955.1171875 3495.8671875 C-1959.65290536 3501.00515835 -1961.75971001 3506.79465989 -1961.37109375 3513.6484375 C-1958.030857 3534.8149904 -1941.26534031 3555.92508069 -1927 3571 C-1925.91132498 3572.26626031 -1924.82784386 3573.53700751 -1923.75 3574.8125 C-1915.33795496 3584.43182928 -1906.12927149 3593.2113043 -1896 3601 C-1895.41379883 3601.45197754 -1894.82759766 3601.90395508 -1894.22363281 3602.36962891 C-1889.52862567 3605.97700356 -1884.77691432 3609.50208799 -1880 3613 C-1879.3699707 3613.46696289 -1878.73994141 3613.93392578 -1878.09082031 3614.41503906 C-1870.08040143 3620.31899892 -1861.88889664 3625.21087806 -1853 3629.6875 C-1829.60105443 3641.50209435 -1809.20858367 3657.34047223 -1789.62548828 3674.57861328 C-1788.1879674 3675.83563439 -1786.73383646 3677.07360495 -1785.27734375 3678.30859375 C-1784.18099609 3679.23865234 -1784.18099609 3679.23865234 -1783.0625 3680.1875 C-1782.45535156 3680.69667969 -1781.84820313 3681.20585937 -1781.22265625 3681.73046875 C-1780 3683 -1780 3683 -1780 3685 C-1779.45988281 3685.21398438 -1778.91976562 3685.42796875 -1778.36328125 3685.6484375 C-1775.14956719 3687.48636323 -1772.75082564 3689.99669319 -1770.1875 3692.625 C-1769.6519751 3693.16769531 -1769.1164502 3693.71039062 -1768.56469727 3694.26953125 C-1765.1961391 3697.70698131 -1761.95161779 3701.22063529 -1758.83203125 3704.88671875 C-1756.95116648 3707.05633035 -1755.0110051 3709.16448509 -1753.05737305 3711.26855469 C-1748.32715098 3716.36722937 -1743.78677877 3721.5621756 -1739.42578125 3726.984375 C-1737.64640135 3729.19642216 -1735.85369447 3731.39206839 -1734.04296875 3733.578125 C-1726.26288673 3743.00190315 -1718.94738372 3752.70757161 -1711.76171875 3762.58984375 C-1710.03215422 3764.95601075 -1708.28534118 3767.30822275 -1706.53125 3769.65625 C-1698.26233299 3780.74086076 -1690.38020223 3792.05373752 -1682.66308594 3803.52880859 C-1681.21118075 3805.686205 -1679.75191237 3807.83830167 -1678.2890625 3809.98828125 C-1666.67305988 3827.13307653 -1656.07320686 3844.9125549 -1646 3863 C-1645.4740625 3863.94214355 -1644.948125 3864.88428711 -1644.40625 3865.85498047 C-1629.97618923 3891.80567569 -1618.03195949 3918.60133538 -1606.45050049 3945.90539551 C-1603.86973065 3951.98078512 -1601.25167276 3958.03878262 -1598.60546875 3964.0859375 C-1592.44968785 3978.16562375 -1586.39882547 3992.19332492 -1581.16015625 4006.64697266 C-1577.0957528 4017.72480793 -1572.09835656 4028.36645355 -1567 4039 C-1566.6405127 4039.75216797 -1566.28102539 4040.50433594 -1565.91064453 4041.27929688 C-1563.68958888 4045.89701141 -1561.37676969 4050.46065258 -1559 4055 C-1558.6090918 4055.7513623 -1558.21818359 4056.50272461 -1557.81542969 4057.27685547 C-1536.33082839 4098.29064316 -1505.52092347 4138.02134828 -1470 4168 C-1468.95206034 4168.91023405 -1467.90529407 4169.82181987 -1466.859375 4170.734375 C-1459.12578892 4177.46178083 -1451.23052881 4183.88844202 -1443 4190 C-1442.03465332 4190.72026367 -1442.03465332 4190.72026367 -1441.04980469 4191.45507812 C-1350.98251467 4258.39640521 -1250.08588643 4285.8172167 -1082.73474121 4304.77996826 C-1080.03363766 4304.99729358 -1077.33373753 4305.22632884 -1074.63378906 4305.45751953 C-1043.68927203 4308.05957391 -1012.75727693 4308.29012797 -981.72388458 4308.31007385 C-978.55019009 4308.31246223 -975.3765101 4308.3177797 -972.20281982 4308.32336426 C-946.40163115 4308.35666241 -920.73971544 4307.82325784 -895 4306 C-894.26537474 4305.94859297 -893.53074947 4305.89718594 -892.77386284 4305.84422112 C-862.20782409 4303.70072785 -832.25151219 4299.11937859 -802.0703125 4293.94140625 C-801.28213701 4293.80620386 -800.49396152 4293.67100147 -799.68190193 4293.53170204 C-791.66542967 4292.15567906 -783.65008495 4290.77352426 -775.63804626 4289.3718977 C-772.60961047 4288.84253278 -769.58065902 4288.31615577 -766.55164719 4287.79009819 C-765.12570384 4287.54152296 -763.70003048 4287.29139338 -762.27464676 4287.03962898 C-760.30330425 4286.69145053 -758.3309925 4286.34877331 -756.35864258 4286.00634766 C-755.24685135 4285.81126617 -754.13506012 4285.61618469 -752.98957825 4285.41519165 C-750.26931438 4285.03740229 -747.73894767 4284.96927384 -745 4285 C-744.99668985 4285.87324606 -744.99337971 4286.74649212 -744.98996925 4287.64620018 C-744.87855426 4316.88917796 -744.75534472 4346.13210065 -744.625 4375.375 C-744.61992007 4376.51898616 -744.61484014 4377.66297233 -744.60960627 4378.84162474 C-744.35516575 4436.05046183 -744.03193354 4493.25795013 -743.48828125 4550.46484375 C-743.47142698 4552.23922428 -743.47142698 4552.23922428 -743.45423222 4554.04945087 C-743.21468377 4579.19507468 -742.95936722 4604.34052621 -742.69460869 4629.48589611 C-741.90532149 4704.5115075 -741.90532149 4704.5115075 -741.82803535 4732.18248558 C-741.82047745 4734.56960518 -741.80973394 4736.95671757 -741.79527092 4739.34380531 C-741.60955538 4772.03084518 -741.60955538 4772.03084518 -746.25 4787.1875 C-746.46688477 4787.92395752 -746.68376953 4788.66041504 -746.90722656 4789.41918945 C-756.45698423 4820.97210497 -776.38982461 4848.18128549 -805.62109375 4864 C-838.95335203 4881.10731786 -888.12312498 4881.00443126 -923.20436096 4869.80491638 C-931.83534764 4866.95678381 -940.3653387 4863.8338146 -948.87635803 4860.64756775 C-956.14081108 4857.92806426 -963.46244983 4855.41696031 -970.8125 4852.9375 C-1042.65544173 4828.31197808 -1113.15914179 4798.88274334 -1182.01989746 4766.91809082 C-1183.96047141 4766.01832776 -1185.9023266 4765.12139937 -1187.84472656 4764.22558594 C-1226.14206146 4746.56092473 -1264.32650335 4728.29698426 -1301.49023438 4708.34472656 C-1304.50482877 4706.72951392 -1307.52598045 4705.12683538 -1310.546875 4703.5234375 C-1324.52014104 4696.09559113 -1338.36624948 4688.4725683 -1352.11523438 4680.63574219 C-1356.15786383 4678.34345907 -1360.21845189 4676.08388249 -1364.27856445 4673.82275391 C-1428.39557917 4638.09482469 -1490.74907747 4598.76113378 -1550.83984375 4556.60546875 C-1555.0432468 4553.65796532 -1559.27888171 4550.76183931 -1563.52905273 4547.88232422 C-1570.93159281 4542.8652555 -1578.18385659 4537.70735413 -1585.30566406 4532.29882812 C-1589.38130938 4529.20386584 -1593.50282972 4526.19547267 -1597.6875 4523.25 C-1604.55712049 4518.3990401 -1611.22226752 4513.28978518 -1617.89575195 4508.17382812 C-1623.83721353 4503.6260559 -1629.83256686 4499.1624731 -1635.875 4494.75 C-1642.18531732 4490.13375369 -1648.36221527 4485.3945425 -1654.43457031 4480.4699707 C-1659.09456788 4476.69672631 -1663.84367607 4473.05533823 -1668.625 4469.4375 C-1674.95654629 4464.63617855 -1681.07337527 4459.64737858 -1687.1015625 4454.47265625 C-1690.41846556 4451.64300714 -1693.80887061 4448.92204765 -1697.22265625 4446.2109375 C-1706.63983809 4438.71427798 -1715.95216716 4431.10758509 -1725.06152344 4423.23925781 C-1728.49976585 4420.27281538 -1731.97376369 4417.36217137 -1735.5 4414.5 C-1745.10490083 4406.68895565 -1754.43727405 4398.58329836 -1763.56640625 4390.22265625 C-1767.96445036 4386.20582303 -1772.45351174 4382.30346868 -1777.0078125 4378.46484375 C-1785.29368825 4371.46597711 -1793.22652202 4364.1565215 -1801.09375 4356.69140625 C-1804.85162162 4353.12806186 -1808.67970148 4349.65176563 -1812.54296875 4346.203125 C-1820.12139097 4339.40784657 -1827.62497629 4332.54615851 -1834.70703125 4325.23046875 C-1836.57468036 4323.4137266 -1838.46790278 4321.73757027 -1840.44921875 4320.05078125 C-1847.23040992 4314.1633635 -1853.41913662 4307.63524333 -1859.72753906 4301.25195312 C-1861.42038232 4299.54082446 -1863.11558379 4297.83208927 -1864.8125 4296.125 C-1865.35253662 4295.58101562 -1865.89257324 4295.03703125 -1866.44897461 4294.4765625 C-1870.01507297 4290.91101302 -1873.68949498 4287.54591374 -1877.609375 4284.3671875 C-1879 4283 -1879 4283 -1880 4280 C-1880.55042969 4279.73445313 -1881.10085938 4279.46890625 -1881.66796875 4279.1953125 C-1885.1650786 4277.40282403 -1887.58233177 4274.66541585 -1890.3125 4271.875 C-1891.12750977 4271.05902344 -1891.12750977 4271.05902344 -1891.95898438 4270.2265625 C-1894.80969831 4267.34555763 -1897.53618808 4264.40254942 -1900.16796875 4261.3203125 C-1905.13530629 4255.58404794 -1910.60356601 4250.32737542 -1916 4245 C-1928.18454036 4232.97138612 -1928.18454036 4232.97138612 -1933.61328125 4226.609375 C-1935.31380114 4224.63581389 -1937.12641758 4222.80897613 -1939 4221 C-1942.27202128 4217.7784145 -1945.29316055 4214.41407855 -1948.28515625 4210.93359375 C-1949.96004299 4209.04505403 -1951.69947587 4207.26844352 -1953.5 4205.5 C-1956.48893201 4202.55735676 -1959.24652298 4199.47644293 -1961.984375 4196.30078125 C-1964.44480309 4193.49226934 -1966.96976785 4190.74539813 -1969.5 4188 C-1973.12426742 4184.06389546 -1976.69718554 4180.09218306 -1980.19921875 4176.046875 C-1982.38775665 4173.55925274 -1984.63239191 4171.12646548 -1986.875 4168.6875 C-1990.18336914 4165.06476095 -1993.36012358 4161.38307109 -1996.4375 4157.5625 C-1999.65943317 4153.56775746 -2003.00657611 4149.75447891 -2006.5 4146 C-2010.80996438 4141.3675162 -2014.85061168 4136.57877767 -2018.8203125 4131.6484375 C-2020.97757399 4129.02724881 -2023.21311 4126.50845719 -2025.5 4124 C-2030.2060465 4118.82825098 -2034.60869856 4113.43939952 -2039 4108 C-2043.28122767 4102.72902615 -2047.58006408 4097.47803156 -2051.98828125 4092.31274414 C-2056.70488796 4086.78484786 -2061.27571043 4081.17039791 -2065.73828125 4075.43554688 C-2069.22110793 4070.96673686 -2072.78475345 4066.57028009 -2076.375 4062.1875 C-2081.46487996 4055.9612431 -2086.39447021 4049.62813659 -2091.25854492 4043.22436523 C-2094.69499021 4038.70053605 -2098.16793411 4034.20944996 -2101.6875 4029.75 C-2113.53464387 4014.72768501 -2124.98205345 3999.41547341 -2136.31640625 3984.00390625 C-2138.73502955 3980.71567998 -2141.15954581 3977.43195008 -2143.58984375 3974.15234375 C-2149.66833353 3965.94278333 -2155.67501826 3957.69332134 -2161.54052734 3949.33007812 C-2165.06350576 3944.31021188 -2168.64529868 3939.33640979 -2172.25 3934.375 C-2185.76766648 3915.70919346 -2198.6621371 3896.6387923 -2211.39463806 3877.43327332 C-2213.89464687 3873.66252227 -2216.40190277 3869.89670464 -2218.91403198 3866.13401794 C-2223.06007195 3859.92373847 -2227.18631107 3853.7021274 -2231.25 3847.4375 C-2232.05824219 3846.19214478 -2232.05824219 3846.19214478 -2232.8828125 3844.92163086 C-2254.14980035 3812.09316848 -2274.69363973 3778.79747405 -2294.28955078 3744.94433594 C-2296.03569062 3741.93856282 -2297.79516699 3738.94097281 -2299.55859375 3735.9453125 C-2305.72733218 3725.45474818 -2311.75827815 3714.91294896 -2317.53833008 3704.20288086 C-2320.523787 3698.67749132 -2323.58029125 3693.20093363 -2326.70166016 3687.7512207 C-2333.87282649 3675.22504731 -2340.53572305 3662.47352497 -2347.10202026 3649.62393188 C-2349.15932563 3645.60849686 -2351.2572576 3641.61616707 -2353.37149048 3637.63044739 C-2359.76291632 3625.57074235 -2365.90036648 3613.38678377 -2372.00317383 3601.17895508 C-2373.79435963 3597.59646274 -2375.59377829 3594.01812841 -2377.39257812 3590.43945312 C-2385.08363732 3575.09455027 -2392.44496337 3559.63652023 -2399.60366821 3544.03744507 C-2401.17877616 3540.61110764 -2402.76902862 3537.1920661 -2404.36358643 3533.77474976 C-2443.18699475 3450.54845675 -2476.9231798 3364.43291303 -2505 3277 C-2505.43705261 3275.64146912 -2505.43705261 3275.64146912 -2505.88293457 3274.25549316 C-2516.56499957 3241.02100076 -2526.58017341 3207.61375976 -2536 3174 C-2536.25225342 3173.10120117 -2536.50450684 3172.20240234 -2536.7644043 3171.27636719 C-2558.59188849 3093.37218472 -2575.8054916 3013.81306416 -2589 2934 C-2589.23206146 2932.60282745 -2589.23206146 2932.60282745 -2589.46881104 2931.1774292 C-2604.58746266 2840.11480465 -2614.93065203 2748.4996753 -2622.1875 2622.8125 C-2622.22452026 2622.0313382 -2622.26154053 2621.25017639 -2622.29968262 2620.44534302 C-2623.56657395 2593.14749623 -2624.16212942 2565.84622838 -2624.16725707 2538.5209136 C-2624.16798715 2536.31150806 -2624.1701564 2534.10210811 -2624.17275429 2531.89270401 C-2624.18191192 2524.06681189 -2624.18610234 2516.24093636 -2624.18530273 2508.41503906 C-2624.18477323 2502.09437498 -2624.19177309 2495.77377325 -2624.20581055 2489.453125 C-2624.29224205 2449.5880096 -2623.88568893 2409.8307431 -2622 2370 C-2621.959995 2369.14891411 -2621.91999001 2368.29782822 -2621.87877274 2367.42095184 C-2621.40155821 2357.35844882 -2620.82814499 2347.30348736 -2620.1875 2337.25 C-2620.10217817 2335.88634204 -2620.01701824 2334.52267393 -2619.93200684 2333.15899658 C-2614.28714215 2242.91014817 -2604.03177244 2153.17267321 -2589 2064 C-2588.8420697 2063.06208618 -2588.6841394 2062.12417236 -2588.52142334 2061.15783691 C-2572.3404698 1965.34137383 -2550.1587763 1870.43696015 -2495.99291992 1694.97808838 C-2495.07544737 1692.2262911 -2494.16117612 1689.47345578 -2493.24804688 1686.72021484 C-2480.60705574 1648.66157602 -2466.39261472 1611.16694979 -2451.5 1573.9375 C-2451.05326935 1572.81997345 -2450.6065387 1571.7024469 -2450.14627075 1570.55105591 C-2443.631106 1554.28142012 -2436.88236681 1538.11746572 -2430 1522 C-2429.68383728 1521.25817474 -2429.36767456 1520.51634949 -2429.04193115 1519.75204468 C-2415.97210508 1489.09335179 -2402.43506036 1458.61187965 -2387.78198242 1428.67504883 C-2386.39328266 1425.82324655 -2385.02688152 1422.96127211 -2383.6652832 1420.09643555 C-2376.88592529 1405.8360781 -2369.92881401 1391.66974584 -2362.86645508 1377.54760742 C-2361.66283568 1375.14045007 -2360.4620636 1372.731907 -2359.26391602 1370.32202148 C-2351.88673227 1355.48537508 -2344.29127133 1340.80678164 -2336.27017212 1326.30734253 C-2333.3072038 1320.92493591 -2330.44657736 1315.48742976 -2327.5625 1310.0625 C-2320.90930658 1297.59209611 -2314.03638357 1285.25804565 -2307 1273 C-2306.40719238 1271.96665527 -2305.81438477 1270.93331055 -2305.20361328 1269.86865234 C-2293.30523879 1249.14901521 -2281.38864241 1228.43148072 -2269 1208 C-2268.49001465 1207.15646973 -2267.9800293 1206.31293945 -2267.45458984 1205.44384766 C-2259.94797078 1193.03096993 -2252.34957972 1180.68438106 -2244.55810547 1168.44824219 C-2242.90142828 1165.84511483 -2241.24931556 1163.23912623 -2239.59765625 1160.6328125 C-2217.35810607 1125.56750729 -2194.50593424 1090.81772681 -2170.41503906 1056.99169922 C-2168.95556401 1054.93745534 -2167.50401999 1052.87781694 -2166.0546875 1050.81640625 C-2146.33062592 1022.76455096 -2126.03043748 995.08787062 -2105 968 C-2104.47051758 967.31728027 -2103.94103516 966.63456055 -2103.39550781 965.93115234 C-2099.27130168 960.61481105 -2095.13864916 955.30510417 -2091 950 C-2090.48727539 949.34257813 -2089.97455078 948.68515625 -2089.44628906 948.0078125 C-2084.18590657 941.26893048 -2078.87821073 934.57782594 -2073.4453125 927.9765625 C-2070.44907399 924.329384 -2067.47440721 920.66498623 -2064.5 917 C-2062.83646393 914.95214787 -2061.17266405 912.90451036 -2059.50878906 910.85693359 C-2058.19040211 909.23433632 -2056.87250355 907.61134223 -2055.5546875 905.98828125 C-2051.12419742 900.54941798 -2046.62433338 895.17533849 -2042.08105469 889.83081055 C-2039.22107147 886.46111255 -2036.40725959 883.05951093 -2033.625 879.625 C-2028.45733579 873.28035889 -2023.07991685 867.12367942 -2017.70263672 860.95703125 C-2016.00615182 859.00707098 -2014.31641753 857.05147887 -2012.62890625 855.09375 C-2006.902182 848.45340098 -2001.12214373 841.8806376 -1995.19921875 835.4140625 C-1992.68154574 832.65043564 -1990.22265414 829.84033532 -1987.76953125 827.01953125 C-1984.97868015 823.83438772 -1982.13870897 820.69396506 -1979.30078125 817.55078125 C-1977.8358989 815.92672663 -1976.37456169 814.29946215 -1974.91796875 812.66796875 C-1969.81323797 806.95711038 -1964.61114331 801.34316872 -1959.37548828 795.75268555 C-1955.96458394 792.10982501 -1952.57177432 788.45181674 -1949.19921875 784.7734375 C-1944.65749642 779.82096508 -1940.06074777 774.96898736 -1935.23046875 770.29296875 C-1933.33821697 768.34769415 -1931.5724806 766.36389732 -1929.80393982 764.30812073 C-1926.31486 760.31013379 -1922.66372593 756.52200114 -1918.90649414 752.77709961 C-1918.23557236 752.10442551 -1917.56465057 751.4317514 -1916.87339783 750.73869324 C-1914.67980618 748.54074095 -1912.48262496 746.34641931 -1910.28515625 744.15234375 C-1908.74476277 742.61127557 -1907.20451767 741.07005905 -1905.66441345 739.52870178 C-1902.44594784 736.30876703 -1899.22569389 733.09063454 -1896.00415039 729.8737793 C-1891.89097277 725.76629846 -1887.78230147 721.65434395 -1883.67496586 717.5410223 C-1880.49820696 714.3606366 -1877.31905373 711.18265287 -1874.13918877 708.005373 C-1872.6239136 706.49076124 -1871.10937074 704.97541648 -1869.59559822 703.4593029 C-1867.47378722 701.33493045 -1865.34875915 699.21382674 -1863.22290039 697.09350586 C-1862.60810822 696.47668945 -1861.99331604 695.85987305 -1861.3598938 695.22436523 C-1857.63484303 691.5171217 -1853.78963917 688.00368012 -1849.80124569 684.5809412 C-1847.06854114 682.18246484 -1844.53468896 679.60432328 -1842 677 C-1838.17161813 673.06644281 -1834.2042521 669.39050206 -1830.05273438 665.79882812 C-1826.70636816 662.86637971 -1823.48289434 659.80632116 -1820.25 656.75 C-1811.60868059 648.6169935 -1802.95250812 640.5039761 -1793.98046875 632.734375 C-1791.68866845 630.72735462 -1789.44003248 628.67597149 -1787.1875 626.625 C-1783.74621795 623.51471149 -1780.23678702 620.53521688 -1776.625 617.625 C-1772.61173716 614.38047483 -1768.77584616 611.01252817 -1765 607.5 C-1760.47008675 603.28976858 -1755.79707836 599.32362154 -1750.98046875 595.4453125 C-1747.42708806 592.52995691 -1743.96289938 589.52173251 -1740.5 586.5 C-1735.40478532 582.06083792 -1730.26314201 577.6998288 -1725.01171875 573.4453125 C-1721.89004256 570.91072197 -1718.7872885 568.3542749 -1715.68652344 565.79418945 C-1709.67675891 560.83280656 -1703.66122315 555.88226999 -1697.55859375 551.03515625 C-1695.5865504 549.46655383 -1693.62136988 547.89064308 -1691.66015625 546.30859375 C-1684.29937047 540.37945425 -1676.86043714 534.57091226 -1669.33325195 528.85449219 C-1664.70282496 525.32904749 -1660.14666838 521.72597045 -1655.625 518.0625 C-1648.5672096 512.36150653 -1641.28429849 506.9937491 -1633.9609375 501.640625 C-1628.91841231 497.95194504 -1623.9266667 494.19786506 -1618.9375 490.4375 C-1610.44081381 484.04503719 -1601.85317314 477.78993328 -1593.21337891 471.59277344 C-1590.98430287 469.98870416 -1588.7626448 468.37485937 -1586.54296875 466.7578125 C-1578.13552224 460.639554 -1569.65118157 454.65982883 -1561.05078125 448.81567383 C-1555.679941 445.16303793 -1550.35825141 441.44806113 -1545.0625 437.6875 C-1539.0354424 433.41414161 -1532.95519827 429.24406371 -1526.78417969 425.18017578 C-1524.68700583 423.79296472 -1522.59723213 422.39495716 -1520.5078125 420.99609375 C-1486.85955669 398.47645983 -1452.75912759 376.73564689 -1418.14453125 355.734375 C-1414.4037327 353.46428145 -1410.66844135 351.1856014 -1406.93939209 348.89625549 C-1392.09588852 339.78520981 -1377.1135875 331.02943854 -1361.86962891 322.59814453 C-1357.47215985 320.14912016 -1353.11207021 317.63634118 -1348.75 315.125 C-1325.11350798 301.56977835 -1301.12071613 288.66888688 -1277 276 C-1275.25493164 275.08299316 -1275.25493164 275.08299316 -1273.47460938 274.14746094 C-1242.57625733 257.95203374 -1211.43085511 242.12211277 -1179.67089844 227.68164062 C-1175.55082409 225.80118346 -1171.45188612 223.87616592 -1167.3515625 221.953125 C-1142.06073765 210.11547201 -1116.47083113 199.0379799 -1090.7520752 188.16540527 C-1088.21812036 187.09236616 -1085.68615563 186.01483293 -1083.15527344 184.93457031 C-997.17688913 148.24196149 -908.14560719 117.67893736 -751 74 C-749.97297974 73.73552063 -748.94595947 73.47104126 -747.88781738 73.19854736 C-657.70294864 50.03307994 -565.97280054 32.79074497 -248 0 C-246.81041687 -0.06058594 -245.62083374 -0.12117188 -244.39520264 -0.18359375 C-163.36605771 -4.28381228 -81.02268889 -4.12651747 0 0 Z " fill="#323232" transform="translate(2624,63)"/>
</svg>
