<?xml version="1.0" standalone="no"?>
<!DOCTYPE svg PUBLIC "-//W3C//DTD SVG 20010904//EN"
 "http://www.w3.org/TR/2001/REC-SVG-20010904/DTD/svg10.dtd">
<svg version="1.0" xmlns="http://www.w3.org/2000/svg"
 width="700.000000pt" height="700.000000pt" viewBox="0 0 948.000000 980.000000"
 preserveAspectRatio="xMidYMid meet">
<metadata>
Created by potrace 1.16, written by Peter Selinger 2001-2019
</metadata>
<g transform="translate(0.000000,980.000000) scale(0.100000,-0.100000)"
fill="white" stroke="white">
<path d="M5335 9784 c-148 -27 -282 -110 -342 -211 -56 -96 -85 -258 -103
-581 -43 -746 -392 -1506 -1045 -2272 -197 -230 -724 -737 -861 -826 l-24 -16
2 -2647 3 -2646 24 -63 c84 -225 338 -405 694 -490 l112 -27 2055 0 2055 0 52
29 c171 95 354 386 508 811 46 127 240 799 375 1300 341 1264 580 2405 629
2999 32 383 -115 627 -428 707 -74 19 -114 20 -1448 19 -755 0 -1373 3 -1373
7 0 4 22 95 49 203 278 1098 338 1990 180 2638 -133 543 -426 921 -816 1051
-103 35 -168 38 -298 15z"/>
<path d="M205 5852 c-33 -11 -67 -33 -101 -67 -65 -65 -94 -137 -94 -238 0
-40 72 -1244 160 -2677 113 -1827 165 -2620 175 -2656 21 -72 86 -143 167
-180 l63 -29 765 0 765 0 56 28 c60 29 102 78 119 138 15 50 14 5316 -1 5395
-24 129 -103 226 -226 276 l-58 23 -870 2 c-787 2 -875 0 -920 -15z"/>
</g>
</svg>
