<?xml version="1.0" encoding="UTF-8"?>
<svg version="1.1" viewBox="0 0 1280 1280" width="1280" height="1280" xmlns="http://www.w3.org/2000/svg">
<path transform="translate(600,152)" d="m0 0h61l32 3 30 5 32 8 33 11 26 11 19 9 23 13 22 14 16 12 14 11 15 13 16 15 8 8 7 8 11 12 11 14 10 13 18 27 11 19 12 23 12 27 11 30 8 27 8 36 4 28 2 20 1 22v42l-2 34-3 24-5 28-8 32-12 36-10 24-14 29-10 18-12 19-14 20-11 14-11 13-9 10-11 12-11 11-8 7-10 9-14 11-16 12-15 10-20 12-18 10-26 12-26 10-22 7-27 7-28 5-27 3-10 1h-65l-32-3-33-6-31-8-27-9-24-10-27-13-21-12-27-18-12-9-16-13-12-11-8-7-21-21-7-8-11-13-15-20-18-27-12-21-12-23-12-28-12-34-8-30-6-29-4-30-2-23v-69l3-33 6-36 9-36 12-36 11-26 12-25 13-23 11-17 12-17 10-13 11-13 7-8 9-10 22-22 11-9 10-9 16-12 13-9 19-12 21-12 27-13 31-12 25-8 33-8 26-4 17-2zm16 44-31 3-24 4-25 6-26 8-26 10-18 8-19 10-17 10-18 12-19 14-14 12-10 9-13 12-15 16-12 14-13 17-10 14-11 17-13 23-11 22-13 32-9 27-8 32-5 27-3 25-1 14v36l2 23 3 22 6 31 7 26 9 27 10 24 12 25 8 15 13 21 11 16 13 17 11 13 11 12 9 10 7 7 8 7 11 10 14 11 19 14 19 12 18 10 15 8 28 12 36 12 29 7 22 4 32 3h31l31-3 27-5 21-5 29-9 27-11 25-12 23-13 21-14 16-12 11-9 14-12 26-26 7-8 11-13 15-20 15-23 11-19 9-17 11-25 9-24 8-25 7-29 4-22 3-22 2-31v-15l-2-31-5-35-7-30-8-28-9-24-10-23-8-16-10-19-12-19-14-20-11-14-11-13-9-10h-2l-3 21-1 16-2 11-1 13-2 5-4-2-6-8-10-13-4-1-11 8-11 9-18 14-11 9-17 14-11 9-9 7-14 11-13 11-9 7-10 8-11 9-13 10-14 12-10 8-14 11-12 10-10 8-7 5v2l-4 2-15 12-11 9-7 5h-6l-16-8-21-10-17-9-16-8-13-6-17-8-44-22-5-2-7 1-14 9-23 15-17 11-45 30-16 10-6 4-4 1 1-43 5-5 10-7 35-24 9-7 1-3 1-55h115l3 1 1 41 6 5 23 11h7l1-9v-118l1-3 4-1h110l3 1 1 2 1 111 4 1 17-14 8-7 5-6 1-174 110-1 8 1 1 73 3 3 6-3 10-9 11-9 1-1v-7l-8-11-6-8 1-2 23 2 13 2 15 2h11l-6-7-7-7-11-9-13-11-18-13-22-14-22-12-25-12-26-10-30-9-27-6-25-4-25-2z" fill="#01F6FF"/>
<path transform="translate(277,630)" d="m0 0 5 1 17 7 7 4 10 4 42 19 11 5 23 10 15 7 42 19 16 7 12 3h28l8-2 22-9 16-6 14-5 23-5 15-1 8 1v3l-8 4-30 9-16 6-15 8-10 8-3 1v2l-3 3h-2l-2 4-9 14-15 25-5 10-3 10v12l3 8 5 5 6 4 12 3h17l16-4 12-5 14-9 13-12 8-7 7-4 12-3 10-1h19l6 2 5 3 7 9 8 9v2l4 2 18 20 11 12 6 7v2l4 2 2 4h2l7 8 10 10 7 8 10 10 7 8 20 20 1 2v8l-7 10-6 3-7 1-11-4-8-7-7-8-8-8-14-16-18-18-7-8-8-8-3-2-6-1v5l16 17 12 13 7 8 5 5v2l3 1 7 8 1 3 3 1v2h2l8 11 1 3v11l-4 8-7 8-6 3h-11l-12-6-10-9-35-35-2-1v-2l-7-2h-2l1 6 5 5v2l4 2 2 4 4 2 29 29 3 5 1 4v7l-2 6-5 6-6 3h-11l-9-5-14-12-13-12v-2l-4-2-19-19-6-1 1 4 5 6 8 7 10 10 8 7 15 15 2 6-5 6-9 3h-13l-3-3 1-16-3-11-6-9-6-5-14-6-3-3-4-8-6-7-12-7-12-3h-14l-5-3-4-6-8-6-8-3-11-2h-14l-6-3-5-9-8-8-13-5h-14l-10 3-9 6-6-1-15-8-14-7-19-10-15-8-16-8-38-20-3-3-6-14-6-17-4-14-4-16-3-13-3-24-1-12v-46l4-39z" fill="#169AFD"/>
<path transform="translate(808,278)" d="m0 0 12 1 1 1 1 73 2 2 6-3 10-9 11-9v-7l-8-11-6-8 2-3 23 2 13 2 24 3 7 3 5 6v9l-2 14-1 16-2 11-1 13-3 6-5-3-15-20-4-1-11 8-11 9-18 14-11 9-17 14-11 9-9 7-14 11-13 11-9 7-10 8-11 9-13 10-14 12-10 8-14 11-12 10-15 12h-2v2l-14 11-10 8-13 10h-6l-16-8-21-10-17-9-16-8-13-6-17-8-44-22-5-2-7 1-14 9-23 15-17 11-45 30-16 10-6 4h-4v-43l5-5 11-8 35-24 8-6 1-3 1-53 1-2 4-1h111l4 2 1 41 5 4 23 11 7 1v-127l2-4 4-1h110l4 2 1 2 1 111 4-1 16-13 8-7 4-5 1-172 3-3z" fill="#169AFD"/>
<path transform="translate(937,672)" d="m0 0 4 1 1 3v47l-2 15-1 13-5 24-4 18-10 28-4 10-11 23-5 3-5 2-20 4-15 4-30 7-22 12-10 7-14 9-5-2-17-17-7-8-7-7-7-8-5-4-7-8-6-6v-2l-4-2-9-10-7-8-14-14-9-11-10-11-7-8-7-4-5-2-10-2h-12l-24 2-10 4-10 7-12 11-10 9-16 8-9 3-9 2h-7l-13-4-4-3-1-3v-7l4-10 10-16 11-15 7-11 9-9 14-9 19-8 16-5 28-9 19-5 22-3h21l15 3 18 5 23 2 24-1 19-3 31-6 28-6 31-6 33-7 12-2 7-2z" fill="#169AFD"/>
<path transform="translate(818,452)" d="m0 0h3v227l-3 3-21 4-18 4-14 2h-33l-18-2-10-3-3-3v-135l6-7h2v-2l9-7 33-27 10-8 13-11 9-7h2v-2l10-8 13-11z" fill="#159AFD"/>
<path transform="translate(456,540)" d="m0 0 7 1 16 8 17 9 12 6 2 2v132l-3 3-3 1-14 1-13-2-13-5-15-7-24-10-15-6-15-7-5-4v-77l3-5 10-6 23-15 18-12z" fill="#169AFD"/>
<path transform="translate(664,577)" d="m0 0h2l1 3v98l-2 4-19 2-16-5-11-4-5-1h-23l-13 2-18 5-9 3-4-1-1-12v-80l1-6 6 1 21 10 19 10 16 8h8l5-2v-2l14-11 3-1v-2l9-7z" fill="#189BFD"/>
<path transform="translate(547,948)" d="m0 0 9 1 12 7 3 3 3 6-1 8-5 7h-2l-1 3h-2v2l-17 17-4 2-14 1-12-3-6-6-1-3v-10l3-7 8-10 2-3h2v-2l9-7 9-5z" fill="#199BFD"/>
<path transform="translate(495,927)" d="m0 0h8l11 3 7 6 2 3v9l-6 10-7 9-9 10-3 2-5 1h-8l-10-3-8-6-3-4-1-4v-9l3-10 9-10 7-4z" fill="#199BFD"/>
<path transform="translate(443,902)" d="m0 0h11l8 4 5 7 3 8v9l-5 8-8 5-8 3h-12l-8-5-6-8v-13l4-8 8-7z" fill="#189BFD"/>
<path transform="translate(581,977)" d="m0 0h10l9 6 3 7 1 8-4 11-7 7-7 3h-19l-10-5-3-5 2-6 9-10 10-10 4-5z" fill="#199BFD"/>
</svg>
