<?xml version="1.0" encoding="UTF-8"?>
<svg version="1.1" viewBox="0 0 2048 542" width="1280" height="1280" xmlns="http://www.w3.org/2000/svg">
<path transform="translate(241,39)" d="m0 0h35l25 3 22 5 20 7 20 9 17 10 14 10 11 9 15 14 11 12 12 16 13 21 11 23 10 30 5 24 2 16v52l-3 21-5 22-8 24-14 29-11 17-12 16-14 15-10 10-14 11-14 10-18 10-17 8-24 8-18 4-12 2-22 1h-22l-19-1-25-5-19-6-15-6-16-8-14-8-14-10-13-11-11-10-7-8-8-9-11-15-11-18-12-25-9-27-5-21-3-26v-41l3-25 6-25 7-21 9-20 10-18 11-16 9-11 11-12 12-12 14-11 11-8 15-9 23-11 24-8 25-5zm2 23-24 4-24 7-18 8-19 10-17 12-11 9-21 21-13 17-10 16-10 19-8 21-6 20-4 23-1 9v32l4 27 6 22 8 21 8 16 10 17 12 16 12 14 9 9 11 9 13 10 13 8 17 9 20 8 21 6 20 3 13 1h11l20-2 23-5 21-7 16-7 19-11 14-10 21-18 7-8 11-13 11-16 9-16 9-19 9-27 5-25 1-7v-42l-4-24-7-25-10-24-9-17-10-15-11-14-5-6-4-2-3 33-6-5-5-6-5 1-13 11-35 28-14 11-13 11-14 11-17 14-14 11-10 8-5-1-32-16-42-20-5 1-24 16-29 19-8 5v-23l4-2 24-16 2-2v-29h60l1 22 16 8 3-1 1-66h58l1 47v10h4l10-8 4-4 1-7v-83h60v39l5-1 11-10-1-6-6-9 10 2 16 2h5l-2-4-10-9-13-10-18-11-15-8-24-9-25-6-14-2z" fill="#0BF9FD"/>
<path transform="translate(1787,208)" d="m0 0h9v15l21-9 11-3h18l12 4 11 8 7 9 5 11 2 9 1 10v121l-1 1h-57l-1-113-2-11-4-6-6-3-11-1-6 1v132l-1 1h-57v-169l10-2z" fill="#0BF9FD"/>
<path transform="translate(79,283)" d="m0 0 5 1 36 16 37 17 21 9h20l26-10 13-3h12l-1 2-24 8-10 5-10 9-10 16-5 10-1 3v9l5 6 5 2h15l11-4 11-8 8-7 9-3h16l6 5 7 8 12 13 7 8 8 8 7 8 17 17 3 4-1 5-4 5h-9l-8-7-11-11-7-8-12-12-4-1 2 4 7 8 15 16 8 10 1 6-3 6-4 4h-9l-9-6-8-8v-2l-4-2-8-8-4-2 3 7 20 20 2 7-3 6-4 2-7-1-8-6-7-7-8-7-6-6-3-1 3 5 21 21 1 4-5 3h-8l-1-5-1-7-3-7-6-4-6-3-6-9-11-4h-7l-10-8-7-2-11-1-7-9-8-3-10 1-5 3-6-1-37-19-20-11-7-14-6-21-3-21v-26l2-20z" fill="#1397F7"/>
<path transform="translate(1470,169)" d="m0 0h13l26 4 34 8 1 1v34l-5-1-19-7-18-5-13-1-10 3-7 6-2 5v10l3 6 9 8 27 18 17 12 12 11 7 10 4 10 2 12v13l-3 14-8 16-9 11-11 8-15 7-13 3h-27l-24-4-29-8-2-1-1-36h4l24 10 18 5 5 1h15l12-6 4-6 1-3v-9l-3-6-8-7-23-16-17-12-12-11-7-7-7-12-4-16v-15l3-14 4-10 8-11 9-9 10-6 13-5z" fill="#0BF9FD"/>
<path transform="translate(750,211)" d="m0 0h24l13 3 10 5 10 9 5 10 2 10v134l-1 1h-53l-1-1v-8l-20 9-7 2h-19l-11-4-11-8-8-11-4-8-3-13v-14l3-14 4-9 6-9 5-5 7-6 14-7 12-3 28-3h4l-1-22-3-6-6-3-4-1h-9l-21 5-20 7-4 1-1-5-1-20 8-4 30-8zm5 88-11 4-8 9-3 8v16l5 8 6 3 4 1h11v-49z" fill="#0BF9FD"/>
<path transform="translate(1559,211)" d="m0 0h58l4 10 19 55 10 28 12-36 17-53 1-2 38-1 1 2-11 30-20 57-35 98-6 15-7 13-8 10-10 7-12 4-6 1h-15l-22-3-3-1v-18l1-15 10 2 11 2h9l10-4 6-5 6-10 3-8-2-9-20-57-38-108z" fill="#0BF9FD"/>
<path transform="translate(296,104)" d="m0 0h60v39l6-3 9-8-1-6-5-7v-2l26 3 8 2 1 3v23l-1 11h-3l-9-10-5 1-13 11-35 28-14 11-13 11-14 11-17 14-14 11-10 8-5-1-32-16-42-20-5 1-24 16-29 19-9 5v-22l5-5 24-16 1-1 1-29 16-1h44l1 1v22l6 2 10 5h2l1-66 1-1h58l1 1 1 47v10l5-2 11-10 1-7v-78z" fill="#1397F7"/>
<path transform="translate(595,171)" d="m0 0h25l43 7 7 2v32l-7-1-31-6-8-1h-17l-13 4-9 7-7 12-5 16-2 14-1 14v19l2 22 4 16 5 10 7 8 10 5 4 1h19l29-5 18-4h3l-1 28-2 2-37 9-18 3h-31l-17-4-14-6-10-7-10-9-8-10-9-17-5-17-2-11-1-12v-15l2-18 5-19 7-17 9-14 11-13 10-8 13-8 16-6z" fill="#0BFAFE"/>
<path transform="translate(1031,211)" d="m0 0h23l16 4 12 6 12 11 8 11 5 13 2 17v20l-7 2-73 8h-8l4 15 7 14 9 8 11 5 10 2h21l15-2h5l4 23v5l-33 8-15 3-8 1h-28l-14-4-14-7-10-9-8-9-6-11-5-13-3-14v-28l3-17 6-17 6-11 7-9 10-10 11-7 11-5zm4 27-6 3-5 7-2 7-1 9v13l26-3 5-1v-19l-2-9-5-6z" fill="#0BFAFE"/>
<path transform="translate(1190,211)" d="m0 0h23l16 4 11 6 9 7 9 11 6 12 3 15v28l-42 5-45 5 4 16 6 11 4 5 11 7 9 3 6 1h21l15-2h5l1 1 3 20v7l-15 4-27 6-13 2h-28l-15-4-12-6-10-8-8-9-8-14-5-14-2-10v-33l3-16 6-16 7-12 8-10 10-9 12-7 16-5zm3 27-6 4-4 5-3 11-1 10v9l19-2 12-2 1-1v-12l-2-14-4-6-5-2z" fill="#0BF9FD"/>
<path transform="translate(416,304)" d="m0 0h1v34l-3 18-6 21-6 14-4 6-13 4-25 6-15 9-8 5-7-6-8-8-7-8-15-15-7-8-11-12-6-7-6-3-13-1-11 1-8 4-10 9-9 6-11 3-9-1-4-4 1-6 7-12 9-12 9-8 12-5 25-8 9-2 9-1h10l21 4h19l20-3 58-12z" fill="#1396F7"/>
<path transform="translate(1976,211)" d="m0 0h25l27 4 12 3v30l-38-8-8-1h-9l-8 3-5 6-3 8-2 14v35l3 15 6 12 6 7 8 5 11 3h16l15-2h5l2 7 3 17-1 4-30 8-23 4h-25l-14-4-12-6-11-9-8-10-8-16-4-14-2-16v-11l3-22 5-15 7-14 7-9 8-9 13-9 12-6z" fill="#0BF9FD"/>
<path transform="translate(890,208)" d="m0 0h7v16l13-9 9-4 4-1h15l11 3 1 1v55l-5-1-44-15-4-1v131l-1 1h-56l-1-1v-166l5-2z" fill="#0BF9FD"/>
<path transform="translate(1335,208)" d="m0 0h7v16l13-9 9-4 4-1h16l10 3 1 1v55l-11-3-38-13h-3l-1 130-1 1h-56l-1-1v-166l6-2z" fill="#0BF9FD"/>
<path transform="translate(355,191)" d="m0 0h1v117l-15 4-11 2h-23l-9-2-2-1-1-20v-43l1-8 15-13 10-8 16-13 13-11z" fill="#1396F7"/>
<path transform="translate(170,237)" d="m0 0 6 1 21 11 1 1v67l-2 2h-14l-26-11-18-8-1-1v-40l11-8 17-11z" fill="#1398F7"/>
<path transform="translate(275,256)" d="m0 0h2v53h-13l-12-4h-16l-17 5h-2v-50l5 1 28 14 5-2 14-12z" fill="#1396F7"/>
<path transform="translate(216,445)" d="m0 0 7 1 7 6v5l-9 10-7 6h-9l-6-3-2-6 4-8 7-7z" fill="#139AF7"/>
<path transform="translate(186,435)" d="m0 0h13l5 5v6l-7 9-5 5h-8l-7-3-2-2-1-6 2-7 7-6z" fill="#139AF7"/>
<path transform="translate(164,421)" d="m0 0 8 1 4 5 1 2v7l-4 5-5 2h-8l-5-4-1-2v-7l4-6z" fill="#139FF7"/>
<path transform="translate(235,459)" d="m0 0 7 2 3 4v7l-4 6-3 2h-11l-6-3 1-5 9-9z" fill="#139DF7"/>
</svg>
