<?xml version="1.0" encoding="UTF-8"?>
<svg version="1.1" xmlns="http://www.w3.org/2000/svg" width="1667" height="1667">
<path d="M0 0 C3.54049467 0.00460749 7.08064374 -0.00222511 10.62109375 -0.02050781 C43.6760796 -0.18926347 76.59915935 1.37360046 109.40258789 5.62817383 C110.22682251 5.73205414 111.05105713 5.83593445 111.90026855 5.94296265 C190.80712131 15.91017346 267.99921313 37.25491804 415.7956543 106.74682617 C418.45938376 108.27650674 421.13660143 109.77884783 423.82055664 111.27270508 C436.17567451 118.17581236 448.05053187 125.68066273 459.83081055 133.52124023 C462.34345897 135.19315459 464.86207924 136.85557433 467.38305664 138.51489258 C490.0830203 153.49328617 511.85563281 169.62509245 532.84057617 186.9284668 C534.36401948 188.18117372 535.89645424 189.42292642 537.42993164 190.66333008 C548.68911035 199.77317951 559.57491019 209.30789339 570.16333008 219.18701172 C572.2736186 221.15392307 574.39217612 223.11079562 576.52368164 225.0546875 C583.93881041 231.82603495 591.14542723 238.77606956 598.23217773 245.88989258 C599.91934747 247.5824873 601.61188985 249.2695798 603.30493164 250.95629883 C608.37501058 256.02327604 613.35944747 261.1024668 618.01538086 266.55834961 C620.5494187 269.50313559 623.23718475 272.30278937 625.90258789 275.12817383 C630.65000009 280.19702894 635.14917418 285.39251388 639.49243164 290.81567383 C641.39781856 293.15626428 643.3717968 295.39635493 645.40258789 297.62817383 C649.71753139 302.42918804 653.65472427 307.49526459 657.61352539 312.58911133 C659.53093195 315.0532431 661.47214712 317.4945497 663.44165039 319.91723633 C671.19047812 329.45168583 678.44004282 339.2815995 685.52758789 349.31567383 C686.16776855 350.21914551 686.80794922 351.12261719 687.4675293 352.0534668 C696.55481544 364.90237465 705.32358361 377.8849043 713.52758789 391.31567383 C714.10331543 392.25604492 714.67904297 393.19641602 715.2722168 394.1652832 C762.39405342 471.3534312 796.85935603 553.71358541 836.52758789 754.31567383 C836.60170898 755.09726868 836.67583008 755.87886353 836.75219727 756.68414307 C841.24486432 804.28313458 841.89873407 853.67255605 837.52758789 901.31567383 C837.39680978 902.81920511 837.26662843 904.32278838 837.13696289 905.82641602 C829.97231689 987.92519049 810.98197187 1068.62600369 757.52758789 1196.31567383 C757.21672241 1196.95696228 756.90585693 1197.59825073 756.58557129 1198.25897217 C747.82807668 1216.29088539 738.6960318 1234.02964478 728.52758789 1251.31567383 C728.03339355 1252.15952637 727.53919922 1253.00337891 727.0300293 1253.87280273 C715.91158274 1272.80381595 704.1814062 1291.37194458 691.52758789 1309.31567383 C691.12652832 1309.88624512 690.72546875 1310.45681641 690.31225586 1311.04467773 C687.41569141 1315.15810702 684.47981073 1319.24205609 681.52758789 1323.31567383 C680.74061523 1324.40452881 680.74061523 1324.40452881 679.93774414 1325.51538086 C672.24564895 1336.13642338 664.31572723 1346.49184145 655.95141602 1356.59204102 C653.93918316 1359.02797448 651.95451039 1361.48609858 649.96508789 1363.94067383 C642.33427064 1373.24552776 634.50099004 1382.36113651 626.32543945 1391.19165039 C623.79898344 1393.9205173 621.32406369 1396.68090203 618.90258789 1399.50317383 C615.68006406 1403.22680783 612.20353144 1406.65551476 608.69946289 1410.11254883 C606.79992154 1412.03942171 605.02735845 1414.00406297 603.27758789 1416.06567383 C596.31038868 1424.16971208 588.56234378 1431.73155328 580.41821289 1438.64379883 C578.1911171 1440.61321411 576.11543835 1442.69941724 574.02758789 1444.81567383 C570.6750201 1448.20835781 567.23283107 1451.40668067 563.61352539 1454.51098633 C561.27733288 1456.53218659 558.99793938 1458.60946222 556.71508789 1460.69067383 C552.39984213 1464.58492 547.95667034 1468.28222107 543.43774414 1471.93676758 C540.85843594 1474.0452222 538.31799113 1476.18898473 535.78735352 1478.35498047 C529.43990436 1483.78386956 522.94640819 1488.96631305 516.27709961 1493.99584961 C514.43133819 1495.3882842 512.59083497 1496.78750714 510.75024414 1498.18676758 C479.55253011 1521.8292698 446.69280105 1543.22409677 412.52758789 1562.31567383 C411.26736816 1563.02409424 411.26736816 1563.02409424 409.98168945 1563.74682617 C360.58380039 1591.4464883 308.52226583 1613.31986161 254.52758789 1630.31567383 C253.81900635 1630.5389032 253.1104248 1630.76213257 252.38037109 1630.99212646 C189.87458288 1650.61273721 124.88243922 1662.16311822 59.52758789 1666.31567383 C58.82376984 1666.36266418 58.11995178 1666.40965454 57.39480591 1666.45806885 C40.64383543 1667.55121703 23.86943487 1667.56111514 7.09008789 1667.56567383 C5.96880367 1667.56633661 5.96880367 1667.56633661 4.82486725 1667.56701279 C-21.37263955 1667.57510467 -47.382868 1666.88109826 -73.47241211 1664.31567383 C-74.34160278 1664.23081726 -75.21079346 1664.14596069 -76.10632324 1664.05853271 C-158.57684961 1655.9083662 -239.78389438 1635.71729868 -349.47583008 1588.73608398 C-352.44932385 1587.3266179 -355.43065291 1585.93500193 -358.41381836 1584.54614258 C-370.76494138 1578.76232793 -382.79939081 1572.52597156 -394.69995117 1565.8659668 C-397.50171812 1564.29928662 -400.31092301 1562.7465688 -403.12084961 1561.19458008 C-430.61385153 1545.92512945 -456.97442847 1528.71134776 -482.47241211 1510.31567383 C-483.2379541 1509.76411621 -484.00349609 1509.21255859 -484.79223633 1508.64428711 C-494.66553982 1501.50853566 -504.29683049 1494.15589714 -513.69506836 1486.40551758 C-516.73960413 1483.8984826 -519.83343381 1481.46562939 -522.95507812 1479.05566406 C-529.18288102 1474.24565633 -535.05526781 1469.18328012 -540.80053711 1463.80786133 C-543.03356469 1461.72500812 -545.29172658 1459.69200887 -547.59741211 1457.69067383 C-552.27627372 1453.62417856 -556.88918774 1449.48968174 -561.47241211 1445.31567383 C-561.96999023 1444.86466309 -562.46756836 1444.41365234 -562.98022461 1443.94897461 C-572.05774412 1435.69592193 -580.78951612 1427.10445667 -589.47241211 1418.44067383 C-590.01479523 1417.90087891 -590.55717834 1417.36108398 -591.11599731 1416.80493164 C-596.56144349 1411.37999387 -601.94064073 1405.94212275 -606.93823242 1400.0949707 C-609.48196343 1397.14482564 -612.17501978 1394.33627774 -614.84741211 1391.50317383 C-619.49556744 1386.5359429 -623.91719747 1381.4599135 -628.17163086 1376.14770508 C-630.83151588 1372.87365305 -633.5851259 1369.69069693 -636.34741211 1366.50317383 C-642.28714263 1359.61226419 -647.9236563 1352.5232835 -653.47241211 1345.31567383 C-654.08665039 1344.52209473 -654.70088867 1343.72851562 -655.33374023 1342.91088867 C-663.47564964 1332.38331226 -671.461265 1321.80209181 -678.85522461 1310.73413086 C-680.79208447 1307.83761308 -682.74228849 1304.95021521 -684.69116211 1302.06176758 C-698.87879236 1280.99118375 -712.19039936 1259.55984515 -724.47241211 1237.31567383 C-725.01929688 1236.32631836 -725.56618164 1235.33696289 -726.12963867 1234.31762695 C-767.86293195 1158.59485759 -797.27904021 1076.64999411 -827.67553711 856.94067383 C-827.67977818 855.66726639 -827.67977818 855.66726639 -827.68410492 854.36813354 C-827.69897742 849.85341095 -827.70827554 845.33871919 -827.71264648 840.82397461 C-827.7169783 837.1946376 -827.73067899 833.56554543 -827.75366211 829.9362793 C-828.14660644 766.53233374 -820.50884681 704.11084689 -806.47241211 642.31567383 C-806.31470337 641.62082886 -806.15699463 640.92598389 -805.99450684 640.21008301 C-791.89836641 578.44309031 -769.28353402 519.13419465 -741.47241211 462.31567383 C-741.01366699 461.37095215 -740.55492187 460.42623047 -740.08227539 459.45288086 C-733.09587861 445.08007394 -725.48847291 431.13843861 -717.47241211 417.31567383 C-716.68761475 415.95490723 -716.68761475 415.95490723 -715.88696289 414.56665039 C-704.11216911 394.18734074 -691.61106286 374.24193154 -677.80883789 355.16967773 C-676.51628365 353.37653618 -675.23964499 351.57326028 -673.96850586 349.76489258 C-667.38815537 340.42134752 -660.47106805 331.34869762 -653.47241211 322.31567383 C-652.98595215 321.6859668 -652.49949219 321.05625977 -651.99829102 320.4074707 C-645.82463505 312.4263185 -639.46561131 304.63347111 -632.89477539 296.97631836 C-631.42424211 295.25943416 -629.96144288 293.53618701 -628.49975586 291.81176758 C-622.89802258 285.21755133 -617.20042361 278.73725506 -611.31542969 272.39428711 C-609.58143422 270.52249579 -607.86410271 268.63982438 -606.15698242 266.74316406 C-598.421554 258.16845571 -590.30417431 249.99475728 -582.12841797 241.84130859 C-579.77511911 239.49340327 -577.42725821 237.14015415 -575.07983398 234.78637695 C-573.56127453 233.26847786 -572.04240515 231.75088877 -570.52319336 230.23364258 C-569.83340897 229.54183395 -569.14362457 228.85002533 -568.43293762 228.13725281 C-564.49157388 224.21458225 -560.45021552 220.46590089 -556.23425293 216.83940125 C-553.64855767 214.60316361 -551.16140686 212.27073747 -548.65991211 209.94067383 C-544.03941662 205.67172189 -539.28134459 201.63536088 -534.37866211 197.69067383 C-531.67109018 195.4780344 -529.02094363 193.21461563 -526.37988281 190.92382812 C-519.90560034 185.30970919 -513.27752829 179.96329952 -506.43383789 174.80444336 C-504.16359616 173.08127506 -501.90978199 171.33766414 -499.65600586 169.59301758 C-488.92607307 161.31054377 -478.0390886 153.37858064 -466.76782227 145.84936523 C-464.49131541 144.32830418 -462.22159709 142.79754299 -459.95288086 141.26489258 C-433.37577073 123.36159265 -405.88269539 107.14185913 -377.47241211 92.31567383 C-376.87233337 92.00243164 -376.27225464 91.68918945 -375.6539917 91.36645508 C-344.55554098 75.16488275 -312.48390669 61.15395304 -279.47241211 49.31567383 C-278.80935059 49.07717712 -278.14628906 48.83868042 -277.46313477 48.59295654 C-255.06011088 40.54541566 -232.45791755 33.50175591 -209.47241211 27.31567383 C-208.27664551 26.99260254 -207.08087891 26.66953125 -205.84887695 26.33666992 C-165.88480057 15.66098347 -125.02480589 8.45368485 -83.90991211 4.06567383 C-83.19471405 3.98845093 -82.47951599 3.91122803 -81.74264526 3.83166504 C-76.32485395 3.25552972 -70.90168729 2.76982429 -65.47241211 2.31567383 C-63.95077957 2.18486923 -63.95077957 2.18486923 -62.39840698 2.05142212 C-41.59142297 0.31168726 -20.86993212 -0.02937931 0 0 Z " fill="#FECB00" transform="translate(827.472412109375,-0.315673828125)"/>
<path d="M0 0 C10.89120266 8.54144713 17.56008608 18.41161877 23.6875 30.6875 C24.91728927 33.1130199 26.15407332 35.53495345 27.390625 37.95703125 C27.69729599 38.5598291 28.00396698 39.16262695 28.31993103 39.78369141 C31.0860906 45.20758789 33.99095861 50.54761716 36.9375 55.875 C41.9467518 64.96106006 46.72640846 74.1564926 51.46798706 83.38372803 C55.5447805 91.31255192 59.69370779 99.19265722 64 107 C68.98945674 116.04592563 73.74937005 125.20069891 78.47027588 134.38830566 C82.50360653 142.23314013 86.6091878 150.02832133 90.875 157.75 C95.99969117 167.0404894 100.89607444 176.44119293 105.75 185.875 C106.27880768 186.90191956 106.27880768 186.90191956 106.81829834 187.94958496 C108.87605499 191.94870088 110.92309951 195.9531033 112.96118164 199.96228027 C114.04328924 202.08491507 115.13401072 204.20300634 116.22460938 206.32128906 C116.94698573 207.73744095 117.66900236 209.1537764 118.390625 210.5703125 C118.72358582 211.21249725 119.05654663 211.85468201 119.39959717 212.5163269 C125.70027495 224.96245428 125.14991022 236.95742502 121 250 C120.73316406 250.85335938 120.46632813 251.70671875 120.19140625 252.5859375 C116.12191531 264.05285864 107.72889755 272.70624158 99.17125511 281.05423927 C97.56186814 282.62457388 95.96271466 284.20475751 94.36555481 285.78752136 C90.9813576 289.13784493 87.58534326 292.4760244 84.1875 295.8125 C80.22743546 299.70144569 76.27254211 303.59538463 72.33004189 307.50214195 C70.76127538 309.05160371 69.18370131 310.59168916 67.60551453 312.13154602 C66.64045635 313.08570295 65.67581889 314.04028567 64.71166992 314.99536133 C63.87198166 315.81933914 63.0322934 316.64331696 62.16716003 317.49226379 C57.38062652 323.03101645 56.487096 327.71139458 56.6796875 334.80664062 C57.20649371 340.05864157 58.72995551 344.79769333 60.5 349.75 C60.86528809 350.80002197 61.23057617 351.85004395 61.60693359 352.93188477 C64.43452524 360.85583031 67.67043163 368.35651064 71.73779297 375.71582031 C73.23304096 378.42172752 74.69432387 381.14523687 76.16015625 383.8671875 C82.96810205 396.37815468 90.23585567 408.35345919 98.52441406 419.93652344 C99.91285111 421.87812997 101.28343443 423.83093925 102.6484375 425.7890625 C114.69607606 442.99158734 128.19659604 458.95207972 142.47576904 474.33299255 C143.60415401 475.56707466 144.71943054 476.81317085 145.82745361 478.06556702 C151.96937047 484.99293592 158.42271428 491.56947565 164.97265625 498.10546875 C166.10662621 499.24011461 167.2404479 500.37490869 168.37413025 501.50984192 C170.73323541 503.8704094 173.0941087 506.22918965 175.45629883 508.58666992 C178.4641185 511.58878003 181.4674069 514.59537687 184.46938419 517.60332775 C186.80374085 519.94131865 189.14049949 522.2768972 191.4779644 524.61178017 C192.58573953 525.71889462 193.69279016 526.82673455 194.79905891 527.93535423 C200.69223304 533.83831054 206.64751496 539.58661564 213 545 C214.7964755 546.640583 216.58869202 548.28585216 218.375 549.9375 C222.50704343 553.69749041 226.70144593 557.2977489 231.10546875 560.734375 C233.21714201 562.38723666 235.29462695 564.06087392 237.36328125 565.765625 C259.55817876 583.80197074 284.30841224 600.39283598 310 613 C311.1444458 613.57790283 311.1444458 613.57790283 312.31201172 614.16748047 C324.86181802 620.45448954 340.68670626 627.15017539 355 626 C364.06642706 622.67564341 369.93101286 615.57269974 376.10302734 608.40136719 C382.68538817 600.87178975 389.81145105 593.84655278 396.84887695 586.74609375 C398.65177813 584.9216194 400.44839315 583.09091085 402.23852539 581.25390625 C429.35277051 553.43879618 429.35277051 553.43879618 449.69140625 552.63671875 C451.64851027 552.6380261 453.60566408 552.65508058 455.5625 552.6875 C456.53896484 552.68427734 457.51542969 552.68105469 458.52148438 552.67773438 C473.18833225 552.78565098 483.76133017 558.0646121 496.1875 565.4375 C497.75636963 566.36067017 497.75636963 566.36067017 499.35693359 567.30249023 C502.57404544 569.1970332 505.7872378 571.0980925 509 573 C510.89432648 574.11753468 512.7888489 575.2347373 514.68359375 576.3515625 C519.21921515 579.0267898 523.75129168 581.70795793 528.28222656 584.39111328 C532.85308731 587.09700372 537.42668959 589.79825263 542 592.5 C543.83334629 593.5833114 545.66667963 594.66664473 547.5 595.75 C548.4075 596.28625 549.315 596.8225 550.25 597.375 C602.49999995 628.24999997 602.49999995 628.24999997 605.2512207 629.87573242 C607.08047206 630.95664629 608.90973634 632.0375383 610.73901367 633.1184082 C615.38490864 635.86357813 620.03056299 638.60915386 624.67578125 641.35546875 C625.60994873 641.9076709 626.54411621 642.45987305 627.5065918 643.02880859 C629.36364347 644.12659064 631.22057882 645.22456949 633.07739258 646.32275391 C638.05167673 649.2633454 643.03290755 652.19149946 648.02197266 655.10693359 C651.35538173 657.05887573 654.67895786 659.02711264 658 661 C659.03640625 661.61230469 660.0728125 662.22460938 661.140625 662.85546875 C672.62985049 669.86774744 684.27119679 679.47200933 688.56640625 692.7578125 C691.07163566 705.71278261 688.22267932 718.07237769 681.18455505 728.97067261 C677.36101175 734.27278869 672.74646718 738.76419341 668.09765625 743.328125 C667.04984554 744.37099407 666.00285976 745.41469256 664.95664978 746.45916748 C662.77828039 748.62995991 660.59368551 750.79419029 658.40356445 752.953125 C655.61696887 755.7000766 652.84130958 758.45774767 650.06963444 761.21974564 C647.39495813 763.88438349 644.71543261 766.54412179 642.03515625 769.203125 C641.28579143 769.9473962 641.28579143 769.9473962 640.52128792 770.70670319 C639.08458088 772.13163855 637.64402731 773.55269231 636.20336914 774.97363281 C635.38953262 775.77762512 634.57569611 776.58161743 633.73719788 777.40997314 C631.58807774 779.44354146 629.41277051 781.38728811 627.17388916 783.31817627 C622.9282934 787.00952475 618.96284844 790.93078619 615.0144043 794.93554688 C614.26037323 795.69585709 613.50634216 796.4561673 612.72946167 797.23951721 C611.10522607 798.87751656 609.48207014 800.51658708 607.85989952 802.15663147 C605.28477183 804.75860821 602.70511063 807.35600739 600.12397766 809.95202637 C592.78968593 817.32885883 585.45805685 824.7082669 578.14282227 832.10400391 C573.65545548 836.64008814 569.15821639 841.16618123 564.65452003 845.68605042 C562.94895391 847.40146424 561.24703678 849.12051467 559.54898643 850.84336853 C542.70463155 867.92831289 542.70463155 867.92831289 533 873 C532.18097702 873.46144409 531.36195404 873.92288818 530.51811218 874.39831543 C525.5835521 877.14274564 520.42264126 878.97927456 515.0625 880.6875 C514.43061768 880.89004395 513.79873535 881.09258789 513.14770508 881.30126953 C503.88090495 884.119505 494.67425511 885.39115607 485 885.375 C483.94748047 885.37338867 482.89496094 885.37177734 481.81054688 885.37011719 C466.44717039 885.14535178 451.20553535 883.06472322 436 881 C434.77522949 880.8345166 433.55045898 880.6690332 432.28857422 880.49853516 C419.54788862 878.72894538 407.23184323 876.3551588 394.93017578 872.58496094 C392.05138477 871.71251175 389.14935947 870.92600368 386.25 870.125 C380.05363296 868.34426835 373.89914737 866.43713541 367.75 864.5 C366.83895508 864.21527832 365.92791016 863.93055664 364.98925781 863.63720703 C359.67765358 861.9485523 354.50280816 860.0602228 349.34423828 857.95068359 C345.94654807 856.57278257 342.50466141 855.32389966 339.0625 854.0625 C333.53280103 852.01318993 328.14096155 849.80032829 322.8034668 847.28417969 C320.04244129 846.01944102 317.2576903 844.85640006 314.4453125 843.7109375 C308.07294302 841.06734185 301.84031715 838.17946972 295.625 835.1875 C293.98591675 834.40028564 293.98591675 834.40028564 292.3137207 833.59716797 C285.35970252 830.22580457 278.61554494 826.65520137 271.96875 822.71875 C269.09095613 821.05265881 266.17998532 819.57297677 263.1875 818.125 C255.92324257 814.5604907 249.02495505 810.40589338 242.08886719 806.24951172 C240.18071448 805.1080992 238.26744061 803.97603586 236.3515625 802.84765625 C205.73367267 784.74949522 176.01601392 764.91800094 148 743 C146.84916533 742.10780585 145.69811768 741.21588637 144.546875 740.32421875 C137.58644545 734.91492673 130.79103149 729.34771218 124.08984375 723.62109375 C121.22422306 721.17696666 118.30594478 718.80304266 115.375 716.4375 C110.61192782 712.56187067 106.06635751 708.48765711 101.546875 704.33203125 C99.41058251 702.37594748 97.25219343 700.45812303 95.0625 698.5625 C90.75086302 694.81172637 86.54385307 690.94919258 82.34280396 687.07574463 C80.25439013 685.15165141 78.15993932 683.23506854 76.06027222 681.32318115 C67.54127842 673.55081067 59.34136683 665.48853135 51.1953125 657.328125 C49.8183316 655.95182009 48.44120248 654.57566345 47.06393433 653.199646 C44.20343445 650.34060671 41.34471598 647.4798018 38.48730469 644.61767578 C34.84295446 640.96760203 31.19409466 637.32207445 27.54390144 633.677845 C24.70923353 630.84680415 21.87696814 628.01336934 19.04540634 625.17922211 C17.70105014 623.83420397 16.35596502 622.48991396 15.01010513 621.14640045 C2.36032796 608.51386491 2.36032796 608.51386491 -2.62628174 602.61183167 C-5.25483607 599.52765696 -8.0879868 596.62784782 -10.875 593.6875 C-15.74227637 588.51718255 -20.35425868 583.23665532 -24.78515625 577.68359375 C-27.2950494 574.64250629 -29.93810303 571.75897544 -32.625 568.875 C-36.30248623 564.91592983 -39.76454655 560.88452024 -43.01953125 556.5703125 C-45.09442548 553.87745175 -47.2437666 551.25835812 -49.40673828 548.63623047 C-56.54713121 539.96289562 -63.28783681 531.03473409 -69.87402344 521.93505859 C-71.53856463 519.63704364 -73.2095083 517.3441268 -74.88378906 515.05322266 C-82.76299021 504.24392945 -90.34541143 493.26406948 -97.75 482.125 C-98.31037964 481.28338318 -98.87075928 480.44176636 -99.44812012 479.574646 C-117.94139247 451.76397741 -135.63217435 423.19054933 -150 393 C-150.55333008 391.8454834 -151.10666016 390.6909668 -151.67675781 389.50146484 C-165.58662443 360.4515389 -165.58662443 360.4515389 -170.60546875 346.69140625 C-171.62017184 344.00542748 -172.68820593 341.47608804 -173.89379883 338.88134766 C-176.03290501 334.09155763 -177.60916204 329.23239721 -179.09375 324.20703125 C-179.50385315 322.84429329 -179.50385315 322.84429329 -179.92224121 321.45402527 C-180.78703963 318.57514465 -181.64355185 315.69387432 -182.5 312.8125 C-183.07369609 310.90023375 -183.64791095 308.98812305 -184.22265625 307.07617188 C-185.58977925 302.52063657 -186.94448527 297.96156659 -188.290802 293.39984131 C-188.73270451 291.904496 -189.17631258 290.40965235 -189.62252808 288.91558838 C-201.44629364 249.3238982 -212.51656531 194.88683545 -194 156 C-193.71382813 155.39462402 -193.42765625 154.78924805 -193.1328125 154.16552734 C-189.77634832 147.2836619 -185.76743972 141.41167857 -180.51321411 135.87094116 C-179.99062299 135.31276211 -179.46803187 134.75458306 -178.92960465 134.17948949 C-173.20239855 128.09379564 -167.31956103 122.1638348 -161.41357422 116.25244141 C-160.20618481 115.04040665 -158.99898651 113.8281815 -157.79196167 112.61578369 C-154.554906 109.3657822 -151.31467532 106.11896595 -148.07338095 102.87319231 C-146.04190989 100.83876631 -144.01101701 98.80376479 -141.98028946 96.76859665 C-135.60632136 90.38101162 -129.23039766 83.99538846 -122.85156047 77.61266577 C-115.52278057 70.27939455 -108.2006124 62.93960431 -100.88404453 55.59414923 C-95.19899284 49.88744074 -89.50815014 44.18654931 -83.81292737 38.48999155 C-80.42325572 35.09927639 -77.03601275 31.70622043 -73.65481186 28.30705643 C-70.47826333 25.11395373 -67.29453766 21.92818155 -64.10533524 18.74771881 C-62.94263097 17.58578051 -61.78244518 16.42131519 -60.62510681 15.25403214 C-44.03607581 -1.46906431 -22.88928576 -14.8131758 0 0 Z " fill="#000000" transform="translate(590,394)"/>
</svg>
