<?xml version="1.0" encoding="UTF-8"?>
<svg version="1.1" xmlns="http://www.w3.org/2000/svg" width="512" height="512">
<path d="M0 0 C7.93613787 -0.02312764 15.87226176 -0.04091723 23.80842495 -0.05181217 C27.49314498 -0.05704008 31.17784203 -0.06413605 34.86254883 -0.07543945 C38.41570831 -0.08627162 41.96884563 -0.09227753 45.52202034 -0.09487724 C46.88045666 -0.0967309 48.23889171 -0.10035038 49.59731865 -0.10573006 C51.49382223 -0.11294475 53.39034793 -0.11340809 55.28686523 -0.11352539 C56.36830307 -0.115746 57.44974091 -0.11796661 58.56394958 -0.12025452 C61 0 61 0 62 1 C62.29731912 2.44625885 62.53875972 3.9040825 62.75610352 5.36450195 C62.96620811 6.75648552 62.96620811 6.75648552 63.18055725 8.17658997 C63.32851242 9.18694809 63.47646759 10.19730621 63.62890625 11.23828125 C63.78286362 12.27059372 63.93682098 13.30290619 64.09544373 14.36650085 C64.42101787 16.55613036 64.74452932 18.74606738 65.06616211 20.9362793 C65.55895887 24.28841229 66.05923576 27.63936534 66.56054688 30.99023438 C66.87544867 33.11451687 67.18991603 35.23886382 67.50390625 37.36328125 C67.65388565 38.36756668 67.80386505 39.37185211 67.95838928 40.40657043 C68.09530685 41.34401596 68.23222443 42.28146149 68.37329102 43.24731445 C68.49462906 44.07036575 68.6159671 44.89341705 68.74098206 45.7414093 C69 48 69 48 69 52 C70.88332031 52.14888672 70.88332031 52.14888672 72.8046875 52.30078125 C78.46100302 52.93404987 83.70826678 54.48675544 89.125 56.1875 C90.13763916 56.50211182 91.15027832 56.81672363 92.19360352 57.14086914 C107.49104966 61.96978367 122.55323352 67.99986856 136.16796875 76.58203125 C136.84279297 77.00572998 137.51761719 77.42942871 138.21289062 77.8659668 C139.50042766 78.68691493 140.77725607 79.52498077 142.04101562 80.38208008 C145.45225718 82.57843381 145.45225718 82.57843381 149.38671875 82.6328125 C153.28484567 80.19721152 156.95728646 77.51809981 160.625 74.75 C162.31107444 73.49202199 163.99727637 72.23421483 165.68359375 70.9765625 C166.98659424 70.00058105 166.98659424 70.00058105 168.31591797 69.00488281 C172.7559921 65.68835664 177.22284244 62.40831104 181.6875 59.125 C183.29569822 57.94027424 184.90378287 56.75539429 186.51171875 55.5703125 C187.67447161 54.71353141 188.83723067 53.85675873 190 53 C198.08406592 59.76647509 205.48682064 67.19069308 212.96386719 74.61376953 C214.66365322 76.29686533 216.36880398 77.97455936 218.07910156 79.64697266 C220.55440596 82.06784875 223.01316297 84.50445849 225.46875 86.9453125 C226.23940796 87.69330109 227.01006592 88.44128967 227.80407715 89.21194458 C228.50230591 89.91302338 229.20053467 90.61410217 229.91992188 91.33642578 C230.54056519 91.94898224 231.1612085 92.5615387 231.80065918 93.19265747 C233 95 233 95 232.75930786 97.11715698 C231.91817292 99.20290525 230.91551152 100.81040896 229.5859375 102.625 C228.82531006 103.67071167 228.82531006 103.67071167 228.04931641 104.73754883 C227.49679199 105.48415771 226.94426758 106.2307666 226.375 107 C225.8082959 107.77947998 225.2415918 108.55895996 224.65771484 109.36206055 C221.42914348 113.78238938 218.13000097 118.13921021 214.765625 122.45703125 C213.73042725 123.79797852 213.73042725 123.79797852 212.67431641 125.16601562 C211.32528831 126.90814865 209.96324268 128.64029133 208.58740234 130.36132812 C207.66628662 131.55338867 207.66628662 131.55338867 206.7265625 132.76953125 C205.90019287 133.81524292 205.90019287 133.81524292 205.05712891 134.88208008 C203.65227429 137.69665601 204.04559611 139.04776141 205 142 C205.87217519 143.87649098 205.87217519 143.87649098 207.00390625 145.609375 C207.41068604 146.27179199 207.81746582 146.93420898 208.23657227 147.61669922 C208.67412842 148.32068848 209.11168457 149.02467773 209.5625 149.75 C222.12475569 170.68335338 231.19129544 193.80759028 235 218 C235.93827637 218.05498657 235.93827637 218.05498657 236.89550781 218.11108398 C247.26568934 218.84060371 257.48297594 220.48466187 267.75 222.0625 C274.1025 223.031875 280.455 224.00125 287 225 C287 245.46 287 265.92 287 287 C279.53375 288.155 272.0675 289.31 264.375 290.5 C262.02810059 290.86544922 259.68120117 291.23089844 257.26318359 291.60742188 C255.39165624 291.89488747 253.52007757 292.18201924 251.6484375 292.46875 C250.68591064 292.61989258 249.72338379 292.77103516 248.73168945 292.92675781 C244.1084616 293.63083913 239.69369028 294.19242069 235 294 C234.88785156 294.76957031 234.77570313 295.53914063 234.66015625 296.33203125 C230.46859313 320.74172235 221.15641459 344.45300896 207.41650391 365.02758789 C206.95808105 365.73520264 206.4996582 366.44281738 206.02734375 367.171875 C205.61218506 367.7915918 205.19702637 368.41130859 204.76928711 369.04980469 C203.70165911 371.75631451 204.12123001 373.25311279 205 376 C206.24585819 378.15592763 206.24585819 378.15592763 207.88671875 380.1953125 C208.4892749 380.98518555 209.09183105 381.77505859 209.71264648 382.58886719 C210.36434814 383.42579102 211.0160498 384.26271484 211.6875 385.125 C213.04773205 386.90299049 214.40708383 388.6816547 215.765625 390.4609375 C216.46365234 391.37069336 217.16167969 392.28044922 217.88085938 393.21777344 C221.28658139 397.68915685 224.612529 402.21842465 227.9375 406.75 C228.5461792 407.57773926 229.1548584 408.40547852 229.78198242 409.25830078 C231.18886319 411.17156066 232.59470346 413.08557655 234 415 C229.37508621 420.55439924 224.44639036 425.68525669 219.3203125 430.77734375 C218.10116653 431.99436729 218.10116653 431.99436729 216.85739136 433.23597717 C214.28228262 435.8055259 211.7037038 438.37155968 209.125 440.9375 C207.36956054 442.68791929 205.61434983 444.438568 203.859375 446.18945312 C199.57555918 450.46229302 195.28889528 454.73225899 191 459 C189.57729011 458.05851071 188.15551724 457.11560537 186.73413086 456.17211914 C185.9422789 455.64719376 185.15042694 455.12226837 184.33457947 454.58143616 C180.98779645 452.31433677 177.77484182 449.88955402 174.5625 447.4375 C165.81243876 440.81342357 156.91779018 434.3956498 148 428 C147.20980469 428.46148437 146.41960937 428.92296875 145.60546875 429.3984375 C142.46890772 431.21226594 139.3219449 433.00445287 136.1640625 434.78076172 C134.73178725 435.58770921 133.30204686 436.39917403 131.875 437.21533203 C113.94423212 447.41102002 90.11281582 459.31968791 69 459 C68.96334229 459.69697998 68.92668457 460.39395996 68.88891602 461.11206055 C68.20650976 471.77834875 66.56715933 482.2570562 64.9375 492.8125 C63.4834375 502.3103125 63.4834375 502.3103125 62 512 C41.54 512 21.08 512 0 512 C-1.155 504.36875 -2.31 496.7375 -3.5 488.875 C-3.86544922 486.47589355 -4.23089844 484.07678711 -4.60742188 481.60498047 C-4.89488016 479.69243522 -5.18201149 477.77984079 -5.46875 475.8671875 C-5.61989258 474.88306885 -5.77103516 473.8989502 -5.92675781 472.88500977 C-6.62309851 468.21313211 -7.19546624 463.74005626 -7 459 C-7.61311035 458.9575415 -8.2262207 458.91508301 -8.85791016 458.87133789 C-14.96579291 458.36672294 -20.5317729 457.25976034 -26.375 455.4375 C-27.66192749 455.04050903 -27.66192749 455.04050903 -28.97485352 454.63549805 C-49.11441544 448.26877413 -68.23237377 439.45154952 -86 428 C-86.47606689 428.35078613 -86.95213379 428.70157227 -87.44262695 429.06298828 C-88.11769287 429.56040527 -88.79275879 430.05782227 -89.48828125 430.5703125 C-90.24866699 431.13065186 -91.00905273 431.69099121 -91.79248047 432.26831055 C-93.48790629 433.51745929 -95.18354818 434.76631481 -96.87939453 436.01489258 C-101.363456 439.31695776 -105.84388342 442.62372515 -110.31640625 445.94140625 C-111.16485107 446.56966309 -112.0132959 447.19791992 -112.88745117 447.84521484 C-114.51525267 449.05076888 -116.14177078 450.25805823 -117.7668457 451.46728516 C-118.511521 452.01819824 -119.25619629 452.56911133 -120.0234375 453.13671875 C-120.67231934 453.61842529 -121.32120117 454.10013184 -121.98974609 454.59643555 C-124.2523499 456.17619135 -126.63372277 457.58023366 -129 459 C-143.19 444.81 -157.38 430.62 -172 416 C-165.24263039 405.86394558 -165.24263039 405.86394558 -162.703125 402.421875 C-161.86019897 401.278396 -161.86019897 401.278396 -161.00024414 400.11181641 C-160.42266357 399.33241699 -159.84508301 398.55301758 -159.25 397.75 C-158.64599365 396.92806152 -158.0419873 396.10612305 -157.41967773 395.25927734 C-154.62267565 391.46802408 -151.80129208 387.7130891 -148.83203125 384.0546875 C-148.36055664 383.46848633 -147.88908203 382.88228516 -147.40332031 382.27832031 C-146.14750435 380.729816 -144.87321238 379.19634704 -143.59765625 377.6640625 C-141.73989057 375.1707554 -141.73989057 375.1707554 -142.24975586 372.60498047 C-143.01207303 369.95808031 -143.97275987 368.00062551 -145.40625 365.65625 C-145.89851074 364.83302246 -146.39077148 364.00979492 -146.89794922 363.16162109 C-147.42662598 362.28328613 -147.95530273 361.40495117 -148.5 360.5 C-160.59692775 339.82374204 -168.97369757 317.62803795 -173 294 C-173.62551758 293.96334229 -174.25103516 293.92668457 -174.89550781 293.88891602 C-185.26568934 293.15939629 -195.48297594 291.51533813 -205.75 289.9375 C-215.27875 288.4834375 -215.27875 288.4834375 -225 287 C-225 266.54 -225 246.08 -225 225 C-217.348125 223.845 -209.69625 222.69 -201.8125 221.5 C-199.40428955 221.13455078 -196.9960791 220.76910156 -194.51489258 220.39257812 C-192.59981568 220.10517842 -190.68469795 219.81805064 -188.76953125 219.53125 C-187.78029663 219.38010742 -186.79106201 219.22896484 -185.77185059 219.07324219 C-184.81822632 218.93112305 -183.86460205 218.78900391 -182.88208008 218.64257812 C-181.64630974 218.45604675 -181.64630974 218.45604675 -180.38557434 218.26574707 C-177.9041988 217.98932798 -175.49462226 217.95435408 -173 218 C-172.92523438 217.36578125 -172.85046875 216.7315625 -172.7734375 216.078125 C-169.29321341 191.37535791 -158.70180621 162.64071589 -143.546875 142.70703125 C-143.03640625 141.81371094 -142.5259375 140.92039063 -142 140 C-143.04824497 136.51477932 -144.66883745 133.81500624 -146.8359375 130.91796875 C-147.40022461 130.15814697 -147.96451172 129.3983252 -148.54589844 128.61547852 C-149.14950195 127.81424561 -149.75310547 127.0130127 -150.375 126.1875 C-150.99407227 125.35597412 -151.61314453 124.52444824 -152.25097656 123.66772461 C-155.32494166 119.54439037 -158.42216545 115.4387535 -161.5234375 111.3359375 C-162.06822754 110.6138208 -162.61301758 109.8917041 -163.17431641 109.14770508 C-164.20170608 107.78809318 -165.23247569 106.43102675 -166.26708984 105.0769043 C-168.5174813 102.10649709 -170.32429336 99.35141328 -172 96 C-157.81 81.81 -143.62 67.62 -129 53 C-123.78988452 56.47341032 -118.92318821 59.72862384 -114.0625 63.5625 C-108.58918411 67.82305974 -103.03846924 71.97128372 -97.4375 76.0625 C-96.66349854 76.63492432 -95.88949707 77.20734863 -95.09204102 77.79711914 C-94.35912842 78.32942139 -93.62621582 78.86172363 -92.87109375 79.41015625 C-92.22068115 79.88590088 -91.57026855 80.36164551 -90.90014648 80.85180664 C-88.87006435 82.07851566 -87.35455855 82.71204724 -85 83 C-82.61152501 81.77875714 -80.48178583 80.5254243 -78.25 79.0625 C-56.93119667 65.71539329 -32.2438133 54.53321814 -7 52 C-6.94501343 50.94582886 -6.94501343 50.94582886 -6.88891602 49.87036133 C-6.22016687 39.37124781 -4.58503906 29.06937003 -2.9375 18.6875 C-2.65253531 16.86791044 -2.36802683 15.04824937 -2.08398438 13.22851562 C-1.39457213 8.81816956 -0.6990197 4.40883309 0 0 Z M-76.76953125 133.921875 C-78.81782622 135.83026891 -80.92035597 137.63624726 -83.0625 139.4375 C-112.12062839 164.94343233 -129.34084477 205.93209355 -132 244 C-133.3446277 273.03761818 -128.88351839 300.81144442 -116 327 C-115.69336426 327.63099609 -115.38672852 328.26199219 -115.07080078 328.91210938 C-96.85319016 365.97063922 -63.80970787 395.76376618 -24.89575195 409.76123047 C17.97709775 424.10431982 63.40006021 421.85213391 104.125 402.0234375 C142.72058149 382.53125954 172.09626057 348.02996496 185.94335938 307.21972656 C189.20780523 296.98320263 191.88571424 286.70872032 193 276 C193.10957031 275.04609375 193.21914063 274.0921875 193.33203125 273.109375 C197.67141605 229.83124388 184.73149158 187.94906369 158.0625 153.875 C151.32308067 145.6349545 144.34301837 137.64750174 136 131 C135.20045898 130.35659668 135.20045898 130.35659668 134.38476562 129.70019531 C108.19477487 108.79067296 74.91494251 94.0408678 41 93 C40.29391602 92.97421875 39.58783203 92.9484375 38.86035156 92.921875 C-3.41127787 91.55441428 -45.5380061 104.77924468 -76.76953125 133.921875 Z " fill="#000000" transform="translate(225,0)"/>
<path d="M0 0 C8.13373836 23.85710565 15.6213349 47.90007496 23 72 C23.78654379 70.11331688 24.57298114 68.22658937 25.359375 66.33984375 C25.79733398 65.28917725 26.23529297 64.23851074 26.68652344 63.15600586 C27.1199707 62.11452393 27.55341797 61.07304199 28 60 C28.41088867 59.02796631 28.82177734 58.05593262 29.24511719 57.05444336 C31.00080227 52.7006344 31.49702207 50.1934309 29.65625 45.7734375 C28.3842368 43.5474144 27.07919906 41.33994438 25.7421875 39.15234375 C23.33925518 34.80443706 22.51989983 30.9394921 23 26 C24.63707295 21.72542063 26.9347294 19.98305883 31 18 C37.13814693 15.67173737 43.32415043 16.78349783 49.23828125 19.05078125 C51.97167712 20.52354222 53.63491027 21.93096481 54.65234375 24.91015625 C55.70236894 32.83568886 53.14907877 39.03157832 48.5625 45.4375 C46.18360447 50.86138182 48.03239999 54.62666325 50 60 C50.54720703 61.56041016 50.54720703 61.56041016 51.10546875 63.15234375 C52.04219707 65.77991742 53.00675685 68.39336697 54 71 C56.09690444 67.85464334 57.00480546 65.23024188 58.13891602 61.63256836 C58.34242676 60.99160721 58.5459375 60.35064606 58.75561523 59.69026184 C59.42613021 57.57482496 60.08996845 55.45735314 60.75390625 53.33984375 C61.2190151 51.86904015 61.68459272 50.39838471 62.15061951 48.9278717 C63.37577827 45.05835868 64.59551424 41.18715893 65.81384277 37.31549072 C67.76616341 31.11425443 69.72638131 24.9155118 71.68717766 18.71695137 C72.37196443 16.54931749 73.05426725 14.38091359 73.73622131 12.21238708 C74.1542501 10.88758579 74.57233288 9.56280153 74.99047852 8.23803711 C75.35528824 7.07904404 75.72009796 5.92005096 76.09596252 4.72593689 C77 2 77 2 78 0 C81.62242065 1.30847894 84.84824923 3.01405705 88.16162109 4.96948242 C99.93767942 11.90010715 112.2861027 17.28798203 125.3359375 21.33300781 C134.47526413 24.16817268 141.1101405 27.09502788 146.375 35.5 C148.70115196 40.51017345 150.64813809 45.41927855 150 51 C148.27734375 53.39453125 148.27734375 53.39453125 145.9375 55.8125 C145.10605469 56.68648438 144.27460938 57.56046875 143.41796875 58.4609375 C142.62003906 59.29882812 141.82210937 60.13671875 141 61 C139.91050708 62.3073915 138.8266368 63.6195013 137.75 64.9375 C121.6007572 83.25714217 98.22123423 95.45224755 75 102 C74.30680664 102.19899902 73.61361328 102.39799805 72.89941406 102.60302734 C37.85997887 112.21721844 0.32537374 105.36167554 -31 88 C-43.96899134 80.57968311 -54.81006836 70.82284665 -65 60 C-65.77472656 59.19175781 -66.54945313 58.38351562 -67.34765625 57.55078125 C-70.45823907 54.00731414 -72.51257493 51.40743092 -72.25 46.5625 C-70.26689185 37.32411812 -65.81772118 30.31289299 -58 25 C-53.99750471 23.18979093 -49.88449544 21.90752644 -45.6875 20.625 C-30.88329993 15.79833664 -16.81229855 10.07523192 -3.93359375 1.21484375 C-2 0 -2 0 0 0 Z " fill="#000000" transform="translate(217,281)"/>
<path d="M0 0 C1.581387 1.76201163 3.0398285 3.57885795 4.5 5.44140625 C6.23671255 7.24595914 7.85505731 8.0860005 10.125 9.125 C15.9585018 11.79776413 17.93143053 15.50600789 20.1875 21.375 C22.85715063 28.75642445 23.1383795 35.64210774 22.6875 43.375 C22.63432617 44.57382813 22.63432617 44.57382813 22.58007812 45.796875 C22.27830173 51.36397392 21.36943929 56.59827787 20 62 C20.804375 62.433125 21.60875 62.86625 22.4375 63.3125 C25 65 25 65 26 68 C27.03343003 78.7476723 23.2758508 91.26496002 17 100 C16.49082031 100.45890625 15.98164063 100.9178125 15.45703125 101.390625 C13.47835528 103.57618666 13.03933232 105.67031811 12.25 108.5 C7.56971476 123.19680478 -2.47281566 134.78680488 -16 142 C-24.42125047 146.31819595 -35.05010736 146.30176885 -44.16015625 144.30859375 C-58.00272493 139.65546588 -68.47777418 129.82797901 -75.51171875 117.19921875 C-77.53815669 112.84317499 -78.76133058 108.37325743 -80.04296875 103.75390625 C-81.27028264 100.22224791 -83.34434339 98.5908845 -86 96 C-89.56678571 88.23699581 -92.13330251 80.98559147 -92.25 72.4375 C-92.27578125 71.30183594 -92.3015625 70.16617188 -92.328125 68.99609375 C-92 66 -92 66 -90.671875 64.09765625 C-89 63 -89 63 -86 63 C-86.2165625 62.12859375 -86.433125 61.2571875 -86.65625 60.359375 C-90.00813535 46.02075433 -90.42787394 33.27694615 -83.3515625 19.87890625 C-75.11056301 6.61773458 -61.83497917 -6.71153188 -46.09570312 -10.45263672 C-29.02690217 -13.72842548 -13.54916982 -11.46283748 0 0 Z " fill="#000000" transform="translate(289,144)"/>
</svg>
